<ttFont>
    <TTGlyph name="A" xMin="-31" yMin="-76" xMax="717" yMax="1481">
      <contour>
        <pt x="717" y="43" on="1"/>
        <pt x="391" y="-4" on="1"/>
        <pt x="387" y="31" on="1"/>
        <pt x="411" y="34" on="0"/>
        <pt x="447" y="37" on="0"/>
        <pt x="471" y="50" on="0"/>
        <pt x="483" y="80" on="0"/>
        <pt x="483" y="109" on="1"/>
        <pt x="483" y="110" on="0"/>
        <pt x="483" y="116" on="0"/>
        <pt x="480" y="139" on="0"/>
        <pt x="473" y="188" on="0"/>
        <pt x="461" y="277" on="0"/>
        <pt x="443" y="413" on="0"/>
        <pt x="430" y="512" on="1"/>
        <pt x="199" y="512" on="1"/>
        <pt x="182" y="392" on="0"/>
        <pt x="158" y="225" on="0"/>
        <pt x="143" y="114" on="0"/>
        <pt x="134" y="50" on="0"/>
        <pt x="130" y="19" on="0"/>
        <pt x="129" y="10" on="0"/>
        <pt x="129" y="10" on="1"/>
        <pt x="129" y="-8" on="0"/>
        <pt x="148" y="-27" on="0"/>
        <pt x="175" y="-36" on="0"/>
        <pt x="207" y="-40" on="0"/>
        <pt x="219" y="-41" on="1"/>
        <pt x="215" y="-76" on="1"/>
        <pt x="-31" y="-53" on="1"/>
        <pt x="-27" y="-16" on="1"/>
        <pt x="-13" y="-18" on="0"/>
        <pt x="17" y="-23" on="0"/>
        <pt x="33" y="-23" on="1"/>
        <pt x="50" y="-23" on="0"/>
        <pt x="83" y="6" on="0"/>
        <pt x="86" y="23" on="1"/>
        <pt x="285" y="1370" on="1"/>
        <pt x="285" y="1384" on="1"/>
        <pt x="285" y="1411" on="0"/>
        <pt x="265" y="1435" on="0"/>
        <pt x="234" y="1441" on="0"/>
        <pt x="196" y="1438" on="0"/>
        <pt x="178" y="1438" on="1"/>
        <pt x="178" y="1473" on="1"/>
        <pt x="518" y="1481" on="1"/>
        <pt x="518" y="1444" on="1"/>
        <pt x="507" y="1444" on="0"/>
        <pt x="488" y="1446" on="0"/>
        <pt x="477" y="1446" on="1"/>
        <pt x="443" y="1446" on="0"/>
        <pt x="414" y="1420" on="0"/>
        <pt x="414" y="1384" on="1"/>
        <pt x="414" y="1383" on="0"/>
        <pt x="415" y="1377" on="0"/>
        <pt x="419" y="1346" on="0"/>
        <pt x="428" y="1282" on="0"/>
        <pt x="444" y="1165" on="0"/>
        <pt x="469" y="985" on="0"/>
        <pt x="506" y="724" on="0"/>
        <pt x="555" y="372" on="0"/>
        <pt x="588" y="141" on="1"/>
        <pt x="589" y="130" on="0"/>
        <pt x="601" y="106" on="0"/>
        <pt x="619" y="84" on="0"/>
        <pt x="641" y="70" on="0"/>
        <pt x="653" y="70" on="1"/>
        <pt x="669" y="70" on="0"/>
        <pt x="697" y="76" on="0"/>
        <pt x="713" y="78" on="1"/>
      </contour>
      <contour>
        <pt x="319" y="1350" on="1"/>
        <pt x="207" y="561" on="1"/>
        <pt x="424" y="561" on="1"/>
        <pt x="407" y="696" on="0"/>
        <pt x="355" y="1081" on="0"/>
      </contour>
    </TTGlyph>
    <TTGlyph name="AE" xMin="-31" yMin="-76" xMax="801" yMax="1479">
      <contour>
        <pt x="500" y="784" on="1"/>
        <pt x="608" y="784" on="1"/>
        <pt x="639" y="784" on="0"/>
        <pt x="662" y="826" on="0"/>
        <pt x="662" y="852" on="1"/>
        <pt x="662" y="940" on="1"/>
        <pt x="698" y="940" on="1"/>
        <pt x="700" y="573" on="1"/>
        <pt x="664" y="573" on="1"/>
        <pt x="664" y="680" on="1"/>
        <pt x="664" y="720" on="0"/>
        <pt x="629" y="750" on="0"/>
        <pt x="592" y="750" on="1"/>
        <pt x="587" y="750" on="0"/>
        <pt x="568" y="749" on="0"/>
        <pt x="544" y="749" on="0"/>
        <pt x="518" y="748" on="0"/>
        <pt x="506" y="748" on="1"/>
        <pt x="606" y="49" on="1"/>
        <pt x="645" y="51" on="1"/>
        <pt x="693" y="51" on="0"/>
        <pt x="757" y="110" on="0"/>
        <pt x="754" y="160" on="1"/>
        <pt x="756" y="369" on="1"/>
        <pt x="791" y="369" on="1"/>
        <pt x="791" y="16" on="1"/>
        <pt x="391" y="2" on="1"/>
        <pt x="387" y="37" on="1"/>
        <pt x="411" y="40" on="0"/>
        <pt x="447" y="41" on="0"/>
        <pt x="471" y="52" on="0"/>
        <pt x="483" y="80" on="0"/>
        <pt x="483" y="109" on="1"/>
        <pt x="483" y="110" on="0"/>
        <pt x="482" y="118" on="0"/>
        <pt x="479" y="144" on="0"/>
        <pt x="472" y="195" on="0"/>
        <pt x="461" y="284" on="0"/>
        <pt x="443" y="417" on="0"/>
        <pt x="430" y="512" on="1"/>
        <pt x="199" y="512" on="1"/>
        <pt x="181" y="388" on="0"/>
        <pt x="158" y="218" on="0"/>
        <pt x="142" y="107" on="0"/>
        <pt x="134" y="46" on="0"/>
        <pt x="130" y="17" on="0"/>
        <pt x="129" y="10" on="0"/>
        <pt x="129" y="10" on="1"/>
        <pt x="129" y="-8" on="0"/>
        <pt x="148" y="-27" on="0"/>
        <pt x="175" y="-36" on="0"/>
        <pt x="207" y="-40" on="0"/>
        <pt x="219" y="-41" on="1"/>
        <pt x="215" y="-76" on="1"/>
        <pt x="-31" y="-53" on="1"/>
        <pt x="-27" y="-16" on="1"/>
        <pt x="-13" y="-18" on="0"/>
        <pt x="17" y="-23" on="0"/>
        <pt x="33" y="-23" on="1"/>
        <pt x="50" y="-23" on="0"/>
        <pt x="83" y="6" on="0"/>
        <pt x="86" y="23" on="1"/>
        <pt x="285" y="1370" on="1"/>
        <pt x="285" y="1384" on="1"/>
        <pt x="285" y="1411" on="0"/>
        <pt x="265" y="1435" on="0"/>
        <pt x="234" y="1441" on="0"/>
        <pt x="196" y="1438" on="0"/>
        <pt x="178" y="1438" on="1"/>
        <pt x="178" y="1473" on="1"/>
        <pt x="799" y="1479" on="1"/>
        <pt x="801" y="1157" on="1"/>
        <pt x="766" y="1157" on="1"/>
        <pt x="760" y="1335" on="1"/>
        <pt x="758" y="1363" on="0"/>
        <pt x="734" y="1405" on="0"/>
        <pt x="697" y="1431" on="0"/>
        <pt x="651" y="1444" on="0"/>
        <pt x="627" y="1444" on="1"/>
        <pt x="615" y="1444" on="0"/>
        <pt x="552" y="1443" on="0"/>
        <pt x="482" y="1443" on="0"/>
        <pt x="420" y="1442" on="0"/>
        <pt x="408" y="1442" on="1"/>
      </contour>
      <contour>
        <pt x="207" y="561" on="1"/>
        <pt x="424" y="561" on="1"/>
        <pt x="415" y="628" on="0"/>
        <pt x="394" y="789" on="0"/>
        <pt x="369" y="982" on="0"/>
        <pt x="338" y="1212" on="0"/>
        <pt x="319" y="1350" on="1"/>
      </contour>
    </TTGlyph>
    <TTGlyph name="AEacute" xMin="-31" yMin="-76" xMax="801" yMax="1825">
      <component glyphName="AE" x="0" y="0" flags="0x204"/>
      <component glyphName="acute" x="393" y="381" flags="0x4"/>
    </TTGlyph>
    <TTGlyph name="Aacute" xMin="-31" yMin="-76" xMax="717" yMax="1804">
      <component glyphName="A" x="0" y="0" flags="0x204"/>
      <component glyphName="acute" x="328" y="360" flags="0x4"/>
    </TTGlyph>
    <TTGlyph name="Abreve" xMin="-31" yMin="-76" xMax="717" yMax="1761">
      <component glyphName="A" x="0" y="0" flags="0x204"/>
      <component glyphName="breve" x="193" y="362" flags="0x4"/>
    </TTGlyph>
    <TTGlyph name="Acircumflex" xMin="-31" yMin="-76" xMax="717" yMax="1821">
      <component glyphName="A" x="0" y="0" flags="0x204"/>
      <component glyphName="circumflex" x="166" y="408" flags="0x4"/>
    </TTGlyph>
    <TTGlyph name="Adieresis" xMin="-31" yMin="-76" xMax="717" yMax="1647">
      <component glyphName="A" x="0" y="0" flags="0x204"/>
      <component glyphName="dieresis" x="199" y="281" flags="0x4"/>
    </TTGlyph>
    <TTGlyph name="Agrave" xMin="-31" yMin="-76" xMax="717" yMax="1815">
      <component glyphName="A" x="0" y="0" flags="0x204"/>
      <component glyphName="grave" x="45" y="371" flags="0x4"/>
    </TTGlyph>
    <TTGlyph name="Amacron" xMin="-31" yMin="-76" xMax="717" yMax="1603">
      <component glyphName="A" x="0" y="0" flags="0x204"/>
      <component glyphName="macron" x="162" y="266" flags="0x4"/>
    </TTGlyph>
    <TTGlyph name="Aogonek" xMin="-31" yMin="-190" xMax="717" yMax="1481">
      <contour>
        <pt x="666" y="-150" on="1"/>
        <pt x="650" y="-168" on="0"/>
        <pt x="596" y="-190" on="0"/>
        <pt x="571" y="-190" on="1"/>
        <pt x="522" y="-190" on="0"/>
        <pt x="461" y="-133" on="0"/>
        <pt x="461" y="-82" on="1"/>
        <pt x="461" y="-27" on="0"/>
        <pt x="500" y="10" on="1"/>
        <pt x="391" y="-4" on="1"/>
        <pt x="387" y="31" on="1"/>
        <pt x="411" y="34" on="0"/>
        <pt x="447" y="37" on="0"/>
        <pt x="471" y="50" on="0"/>
        <pt x="483" y="80" on="0"/>
        <pt x="483" y="109" on="1"/>
        <pt x="483" y="110" on="0"/>
        <pt x="483" y="116" on="0"/>
        <pt x="480" y="139" on="0"/>
        <pt x="473" y="188" on="0"/>
        <pt x="461" y="277" on="0"/>
        <pt x="443" y="413" on="0"/>
        <pt x="430" y="512" on="1"/>
        <pt x="199" y="512" on="1"/>
        <pt x="182" y="392" on="0"/>
        <pt x="158" y="225" on="0"/>
        <pt x="143" y="114" on="0"/>
        <pt x="134" y="50" on="0"/>
        <pt x="130" y="19" on="0"/>
        <pt x="129" y="10" on="0"/>
        <pt x="129" y="10" on="1"/>
        <pt x="129" y="-8" on="0"/>
        <pt x="148" y="-27" on="0"/>
        <pt x="175" y="-36" on="0"/>
        <pt x="207" y="-40" on="0"/>
        <pt x="219" y="-41" on="1"/>
        <pt x="215" y="-76" on="1"/>
        <pt x="-31" y="-53" on="1"/>
        <pt x="-27" y="-16" on="1"/>
        <pt x="-13" y="-18" on="0"/>
        <pt x="17" y="-23" on="0"/>
        <pt x="33" y="-23" on="1"/>
        <pt x="50" y="-23" on="0"/>
        <pt x="83" y="6" on="0"/>
        <pt x="86" y="23" on="1"/>
        <pt x="285" y="1370" on="1"/>
        <pt x="285" y="1384" on="1"/>
        <pt x="285" y="1411" on="0"/>
        <pt x="265" y="1435" on="0"/>
        <pt x="234" y="1441" on="0"/>
        <pt x="196" y="1438" on="0"/>
        <pt x="178" y="1438" on="1"/>
        <pt x="178" y="1473" on="1"/>
        <pt x="518" y="1481" on="1"/>
        <pt x="518" y="1444" on="1"/>
        <pt x="507" y="1444" on="0"/>
        <pt x="488" y="1446" on="0"/>
        <pt x="477" y="1446" on="1"/>
        <pt x="443" y="1446" on="0"/>
        <pt x="414" y="1420" on="0"/>
        <pt x="414" y="1384" on="1"/>
        <pt x="414" y="1383" on="0"/>
        <pt x="415" y="1377" on="0"/>
        <pt x="419" y="1346" on="0"/>
        <pt x="428" y="1282" on="0"/>
        <pt x="444" y="1165" on="0"/>
        <pt x="469" y="985" on="0"/>
        <pt x="506" y="724" on="0"/>
        <pt x="555" y="372" on="0"/>
        <pt x="588" y="141" on="1"/>
        <pt x="589" y="130" on="0"/>
        <pt x="601" y="106" on="0"/>
        <pt x="619" y="84" on="0"/>
        <pt x="641" y="70" on="0"/>
        <pt x="653" y="70" on="1"/>
        <pt x="669" y="70" on="0"/>
        <pt x="697" y="76" on="0"/>
        <pt x="713" y="78" on="1"/>
        <pt x="717" y="43" on="1"/>
        <pt x="563" y="20" on="1"/>
        <pt x="548" y="0" on="0"/>
        <pt x="528" y="-48" on="0"/>
        <pt x="528" y="-68" on="1"/>
        <pt x="528" y="-105" on="0"/>
        <pt x="569" y="-150" on="0"/>
        <pt x="594" y="-150" on="1"/>
        <pt x="609" y="-150" on="0"/>
        <pt x="640" y="-137" on="0"/>
        <pt x="651" y="-129" on="1"/>
      </contour>
      <contour>
        <pt x="319" y="1350" on="1"/>
        <pt x="207" y="561" on="1"/>
        <pt x="424" y="561" on="1"/>
        <pt x="407" y="696" on="0"/>
        <pt x="355" y="1081" on="0"/>
      </contour>
    </TTGlyph>
    <TTGlyph name="Aring" xMin="-31" yMin="-76" xMax="717" yMax="1716">
      <component glyphName="A" x="0" y="0" flags="0x204"/>
      <component glyphName="ring" x="244" y="301" flags="0x4"/>
    </TTGlyph>
    <TTGlyph name="Atilde" xMin="-31" yMin="-76" xMax="717" yMax="1744">
      <component glyphName="A" x="0" y="0" flags="0x204"/>
      <component glyphName="tilde" x="139" y="360" flags="0x4"/>
    </TTGlyph>
    <TTGlyph name="B" xMin="12" yMin="0" xMax="608" yMax="1430">
      <contour>
        <pt x="608" y="473" on="1"/>
        <pt x="608" y="369" on="0"/>
        <pt x="562" y="196" on="0"/>
        <pt x="465" y="70" on="0"/>
        <pt x="315" y="0" on="0"/>
        <pt x="211" y="0" on="1"/>
        <pt x="12" y="0" on="1"/>
        <pt x="12" y="35" on="1"/>
        <pt x="49" y="35" on="1"/>
        <pt x="64" y="35" on="0"/>
        <pt x="93" y="48" on="0"/>
        <pt x="116" y="69" on="0"/>
        <pt x="130" y="98" on="0"/>
        <pt x="131" y="113" on="1"/>
        <pt x="143" y="1321" on="1"/>
        <pt x="144" y="1350" on="0"/>
        <pt x="129" y="1381" on="0"/>
        <pt x="100" y="1394" on="0"/>
        <pt x="61" y="1395" on="0"/>
        <pt x="37" y="1395" on="1"/>
        <pt x="37" y="1430" on="1"/>
        <pt x="254" y="1430" on="1"/>
        <pt x="332" y="1430" on="0"/>
        <pt x="462" y="1394" on="0"/>
        <pt x="555" y="1320" on="0"/>
        <pt x="606" y="1209" on="0"/>
        <pt x="606" y="1133" on="1"/>
        <pt x="606" y="1088" on="0"/>
        <pt x="580" y="988" on="0"/>
        <pt x="528" y="900" on="0"/>
        <pt x="452" y="836" on="0"/>
        <pt x="403" y="827" on="1"/>
        <pt x="462" y="809" on="0"/>
        <pt x="541" y="733" on="0"/>
        <pt x="588" y="636" on="0"/>
        <pt x="608" y="525" on="0"/>
      </contour>
      <contour>
        <pt x="504" y="465" on="1"/>
        <pt x="504" y="496" on="0"/>
        <pt x="499" y="572" on="0"/>
        <pt x="484" y="650" on="0"/>
        <pt x="458" y="724" on="0"/>
        <pt x="418" y="781" on="0"/>
        <pt x="361" y="815" on="0"/>
        <pt x="322" y="815" on="1"/>
        <pt x="240" y="815" on="1"/>
        <pt x="229" y="51" on="1"/>
        <pt x="311" y="53" on="0"/>
        <pt x="418" y="131" on="0"/>
        <pt x="480" y="251" on="0"/>
        <pt x="504" y="396" on="0"/>
      </contour>
      <contour>
        <pt x="246" y="1399" on="1"/>
        <pt x="240" y="850" on="1"/>
        <pt x="319" y="850" on="1"/>
        <pt x="354" y="850" on="0"/>
        <pt x="410" y="879" on="0"/>
        <pt x="451" y="926" on="0"/>
        <pt x="479" y="988" on="0"/>
        <pt x="496" y="1054" on="0"/>
        <pt x="504" y="1119" on="0"/>
        <pt x="504" y="1147" on="1"/>
        <pt x="504" y="1275" on="0"/>
        <pt x="372" y="1399" on="0"/>
        <pt x="256" y="1399" on="1"/>
      </contour>
    </TTGlyph>
    <TTGlyph name="C" xMin="72" yMin="-23" xMax="543" yMax="1479">
      <contour>
        <pt x="543" y="270" on="1"/>
        <pt x="543" y="219" on="0"/>
        <pt x="524" y="114" on="0"/>
        <pt x="478" y="30" on="0"/>
        <pt x="397" y="-23" on="0"/>
        <pt x="336" y="-23" on="1"/>
        <pt x="269" y="-23" on="0"/>
        <pt x="179" y="49" on="0"/>
        <pt x="120" y="168" on="0"/>
        <pt x="89" y="323" on="0"/>
        <pt x="74" y="489" on="0"/>
        <pt x="72" y="656" on="0"/>
        <pt x="72" y="727" on="1"/>
        <pt x="72" y="796" on="0"/>
        <pt x="74" y="958" on="0"/>
        <pt x="86" y="1121" on="0"/>
        <pt x="114" y="1272" on="0"/>
        <pt x="165" y="1388" on="0"/>
        <pt x="245" y="1458" on="0"/>
        <pt x="303" y="1458" on="1"/>
        <pt x="335" y="1458" on="0"/>
        <pt x="387" y="1432" on="0"/>
        <pt x="427" y="1391" on="0"/>
        <pt x="459" y="1339" on="0"/>
        <pt x="471" y="1313" on="1"/>
        <pt x="467" y="1479" on="1"/>
        <pt x="502" y="1479" on="1"/>
        <pt x="516" y="1047" on="1"/>
        <pt x="481" y="1044" on="1"/>
        <pt x="480" y="1070" on="0"/>
        <pt x="475" y="1145" on="0"/>
        <pt x="462" y="1227" on="0"/>
        <pt x="439" y="1307" on="0"/>
        <pt x="403" y="1371" on="0"/>
        <pt x="351" y="1411" on="0"/>
        <pt x="315" y="1411" on="1"/>
        <pt x="280" y="1411" on="0"/>
        <pt x="233" y="1338" on="0"/>
        <pt x="202" y="1220" on="0"/>
        <pt x="185" y="1075" on="0"/>
        <pt x="177" y="929" on="0"/>
        <pt x="176" y="800" on="0"/>
        <pt x="176" y="758" on="1"/>
        <pt x="176" y="691" on="0"/>
        <pt x="178" y="531" on="0"/>
        <pt x="189" y="371" on="0"/>
        <pt x="213" y="221" on="0"/>
        <pt x="257" y="105" on="0"/>
        <pt x="325" y="35" on="0"/>
        <pt x="375" y="35" on="1"/>
        <pt x="406" y="35" on="0"/>
        <pt x="451" y="63" on="0"/>
        <pt x="481" y="107" on="0"/>
        <pt x="499" y="165" on="0"/>
        <pt x="508" y="225" on="0"/>
        <pt x="510" y="283" on="0"/>
        <pt x="510" y="305" on="1"/>
        <pt x="541" y="305" on="1"/>
        <pt x="541" y="296" on="0"/>
        <pt x="543" y="278" on="0"/>
      </contour>
    </TTGlyph>
    <TTGlyph name="Cacute" xMin="72" yMin="-23" xMax="590" yMax="1800">
      <component glyphName="C" x="0" y="0" flags="0x204"/>
      <component glyphName="acute" x="311" y="356" flags="0x4"/>
    </TTGlyph>
    <TTGlyph name="Ccaron" xMin="72" yMin="-23" xMax="543" yMax="1806">
      <component glyphName="C" x="0" y="0" flags="0x204"/>
      <component glyphName="caron" x="137" y="393" flags="0x4"/>
    </TTGlyph>
    <TTGlyph name="Ccedilla" xMin="72" yMin="-254" xMax="543" yMax="1479">
      <contour>
        <pt x="301" y="-254" on="1"/>
        <pt x="291" y="-254" on="0"/>
        <pt x="267" y="-250" on="0"/>
        <pt x="243" y="-242" on="0"/>
        <pt x="223" y="-230" on="0"/>
        <pt x="217" y="-221" on="1"/>
        <pt x="231" y="-197" on="1"/>
        <pt x="242" y="-209" on="0"/>
        <pt x="267" y="-217" on="0"/>
        <pt x="283" y="-217" on="1"/>
        <pt x="301" y="-217" on="0"/>
        <pt x="324" y="-181" on="0"/>
        <pt x="324" y="-164" on="1"/>
        <pt x="324" y="-142" on="0"/>
        <pt x="294" y="-119" on="0"/>
        <pt x="274" y="-119" on="1"/>
        <pt x="262" y="-119" on="0"/>
        <pt x="250" y="-125" on="1"/>
        <pt x="295" y="-18" on="1"/>
        <pt x="239" y="-7" on="0"/>
        <pt x="162" y="75" on="0"/>
        <pt x="112" y="195" on="0"/>
        <pt x="86" y="345" on="0"/>
        <pt x="74" y="503" on="0"/>
        <pt x="72" y="659" on="0"/>
        <pt x="72" y="727" on="1"/>
        <pt x="72" y="796" on="0"/>
        <pt x="74" y="958" on="0"/>
        <pt x="86" y="1121" on="0"/>
        <pt x="114" y="1272" on="0"/>
        <pt x="165" y="1388" on="0"/>
        <pt x="245" y="1458" on="0"/>
        <pt x="303" y="1458" on="1"/>
        <pt x="335" y="1458" on="0"/>
        <pt x="387" y="1432" on="0"/>
        <pt x="427" y="1391" on="0"/>
        <pt x="459" y="1339" on="0"/>
        <pt x="471" y="1313" on="1"/>
        <pt x="467" y="1479" on="1"/>
        <pt x="502" y="1479" on="1"/>
        <pt x="516" y="1047" on="1"/>
        <pt x="481" y="1044" on="1"/>
        <pt x="480" y="1070" on="0"/>
        <pt x="475" y="1145" on="0"/>
        <pt x="462" y="1227" on="0"/>
        <pt x="439" y="1307" on="0"/>
        <pt x="403" y="1371" on="0"/>
        <pt x="351" y="1411" on="0"/>
        <pt x="315" y="1411" on="1"/>
        <pt x="280" y="1411" on="0"/>
        <pt x="233" y="1338" on="0"/>
        <pt x="202" y="1220" on="0"/>
        <pt x="185" y="1075" on="0"/>
        <pt x="177" y="929" on="0"/>
        <pt x="176" y="800" on="0"/>
        <pt x="176" y="758" on="1"/>
        <pt x="176" y="691" on="0"/>
        <pt x="178" y="531" on="0"/>
        <pt x="189" y="371" on="0"/>
        <pt x="213" y="221" on="0"/>
        <pt x="257" y="105" on="0"/>
        <pt x="325" y="35" on="0"/>
        <pt x="375" y="35" on="1"/>
        <pt x="406" y="35" on="0"/>
        <pt x="451" y="63" on="0"/>
        <pt x="481" y="107" on="0"/>
        <pt x="499" y="165" on="0"/>
        <pt x="508" y="225" on="0"/>
        <pt x="510" y="283" on="0"/>
        <pt x="510" y="305" on="1"/>
        <pt x="541" y="305" on="1"/>
        <pt x="541" y="296" on="0"/>
        <pt x="543" y="278" on="0"/>
        <pt x="543" y="270" on="1"/>
        <pt x="543" y="219" on="0"/>
        <pt x="524" y="114" on="0"/>
        <pt x="478" y="30" on="0"/>
        <pt x="397" y="-23" on="0"/>
        <pt x="336" y="-23" on="1"/>
        <pt x="328" y="-23" on="1"/>
        <pt x="305" y="-84" on="1"/>
        <pt x="328" y="-84" on="1"/>
        <pt x="362" y="-84" on="0"/>
        <pt x="406" y="-124" on="0"/>
        <pt x="406" y="-158" on="1"/>
        <pt x="406" y="-179" on="0"/>
        <pt x="388" y="-215" on="0"/>
        <pt x="359" y="-240" on="0"/>
        <pt x="321" y="-254" on="0"/>
      </contour>
    </TTGlyph>
    <TTGlyph name="Ccircumflex" xMin="72" yMin="-23" xMax="543" yMax="1806">
      <component glyphName="C" x="0" y="0" flags="0x204"/>
      <component glyphName="circumflex" x="113" y="393" flags="0x4"/>
    </TTGlyph>
    <TTGlyph name="Cdotaccent" xMin="72" yMin="-23" xMax="543" yMax="1647">
      <component glyphName="C" x="0" y="0" flags="0x204"/>
      <component glyphName="dotaccent" x="240" y="281" flags="0x4"/>
    </TTGlyph>
    <TTGlyph name="D" xMin="20" yMin="-25" xMax="571" yMax="1454">
      <contour>
        <pt x="571" y="748" on="1"/>
        <pt x="571" y="657" on="0"/>
        <pt x="568" y="477" on="0"/>
        <pt x="549" y="311" on="0"/>
        <pt x="508" y="167" on="0"/>
        <pt x="432" y="59" on="0"/>
        <pt x="314" y="-7" on="0"/>
        <pt x="229" y="-12" on="1"/>
        <pt x="31" y="-25" on="1"/>
        <pt x="31" y="12" on="1"/>
        <pt x="55" y="12" on="0"/>
        <pt x="91" y="17" on="0"/>
        <pt x="115" y="34" on="0"/>
        <pt x="127" y="66" on="0"/>
        <pt x="127" y="94" on="1"/>
        <pt x="135" y="1335" on="1"/>
        <pt x="135" y="1369" on="0"/>
        <pt x="118" y="1403" on="0"/>
        <pt x="88" y="1417" on="0"/>
        <pt x="45" y="1417" on="0"/>
        <pt x="20" y="1417" on="1"/>
        <pt x="20" y="1454" on="1"/>
        <pt x="229" y="1454" on="1"/>
        <pt x="315" y="1454" on="0"/>
        <pt x="433" y="1398" on="0"/>
        <pt x="509" y="1299" on="0"/>
        <pt x="549" y="1165" on="0"/>
        <pt x="568" y="1008" on="0"/>
        <pt x="571" y="835" on="0"/>
      </contour>
      <contour>
        <pt x="469" y="764" on="1"/>
        <pt x="469" y="935" on="0"/>
        <pt x="457" y="1182" on="0"/>
        <pt x="409" y="1341" on="0"/>
        <pt x="315" y="1417" on="0"/>
        <pt x="233" y="1417" on="1"/>
        <pt x="225" y="27" on="1"/>
        <pt x="310" y="27" on="0"/>
        <pt x="407" y="137" on="0"/>
        <pt x="456" y="334" on="0"/>
        <pt x="469" y="604" on="0"/>
      </contour>
    </TTGlyph>
    <TTGlyph name="Dcaron" xMin="20" yMin="-25" xMax="571" yMax="1796">
      <component glyphName="D" x="0" y="0" flags="0x204"/>
      <component glyphName="caron" x="143" y="383" flags="0x4"/>
    </TTGlyph>
    <TTGlyph name="Dcroat" xMin="35" yMin="-25" xMax="586" yMax="1454">
      <component glyphName="Eth" x="0" y="0" flags="0x204"/>
    </TTGlyph>
    <TTGlyph name="E" xMin="27" yMin="6" xMax="510" yMax="1427">
      <contour>
        <pt x="240" y="784" on="1"/>
        <pt x="311" y="784" on="1"/>
        <pt x="342" y="784" on="0"/>
        <pt x="367" y="826" on="0"/>
        <pt x="367" y="852" on="1"/>
        <pt x="367" y="940" on="1"/>
        <pt x="403" y="940" on="1"/>
        <pt x="403" y="573" on="1"/>
        <pt x="367" y="573" on="1"/>
        <pt x="367" y="680" on="1"/>
        <pt x="367" y="720" on="0"/>
        <pt x="330" y="750" on="0"/>
        <pt x="293" y="750" on="1"/>
        <pt x="285" y="750" on="0"/>
        <pt x="255" y="748" on="0"/>
        <pt x="240" y="748" on="1"/>
        <pt x="240" y="49" on="1"/>
        <pt x="344" y="51" on="1"/>
        <pt x="392" y="51" on="0"/>
        <pt x="457" y="110" on="0"/>
        <pt x="457" y="160" on="1"/>
        <pt x="457" y="369" on="1"/>
        <pt x="492" y="369" on="1"/>
        <pt x="492" y="16" on="1"/>
        <pt x="27" y="6" on="1"/>
        <pt x="27" y="41" on="1"/>
        <pt x="49" y="41" on="0"/>
        <pt x="90" y="45" on="0"/>
        <pt x="121" y="60" on="0"/>
        <pt x="139" y="91" on="0"/>
        <pt x="139" y="119" on="1"/>
        <pt x="139" y="1315" on="1"/>
        <pt x="139" y="1344" on="0"/>
        <pt x="121" y="1375" on="0"/>
        <pt x="90" y="1388" on="0"/>
        <pt x="49" y="1389" on="0"/>
        <pt x="27" y="1389" on="1"/>
        <pt x="27" y="1423" on="1"/>
        <pt x="508" y="1427" on="1"/>
        <pt x="510" y="1106" on="1"/>
        <pt x="475" y="1106" on="1"/>
        <pt x="473" y="1284" on="1"/>
        <pt x="470" y="1312" on="0"/>
        <pt x="446" y="1354" on="0"/>
        <pt x="410" y="1380" on="0"/>
        <pt x="365" y="1393" on="0"/>
        <pt x="340" y="1393" on="1"/>
        <pt x="315" y="1393" on="0"/>
        <pt x="264" y="1391" on="0"/>
        <pt x="240" y="1391" on="1"/>
      </contour>
    </TTGlyph>
    <TTGlyph name="Eacute" xMin="27" yMin="6" xMax="537" yMax="1757">
      <component glyphName="E" x="0" y="0" flags="0x204"/>
      <component glyphName="acute" x="258" y="313" flags="0x4"/>
    </TTGlyph>
    <TTGlyph name="Ebreve" xMin="27" yMin="6" xMax="510" yMax="1727">
      <component glyphName="E" x="0" y="0" flags="0x204"/>
      <component glyphName="breve" x="125" y="328" flags="0x4"/>
    </TTGlyph>
    <TTGlyph name="Ecaron" xMin="27" yMin="6" xMax="510" yMax="1765">
      <component glyphName="E" x="0" y="0" flags="0x204"/>
      <component glyphName="caron" x="117" y="352" flags="0x4"/>
    </TTGlyph>
    <TTGlyph name="Ecircumflex" xMin="27" yMin="6" xMax="510" yMax="1761">
      <component glyphName="E" x="0" y="0" flags="0x204"/>
      <component glyphName="circumflex" x="90" y="348" flags="0x4"/>
    </TTGlyph>
    <TTGlyph name="Edieresis" xMin="27" yMin="6" xMax="510" yMax="1593">
      <component glyphName="E" x="0" y="0" flags="0x204"/>
      <component glyphName="dieresis" x="123" y="227" flags="0x4"/>
    </TTGlyph>
    <TTGlyph name="Edotaccent" xMin="27" yMin="6" xMax="510" yMax="1612">
      <component glyphName="E" x="0" y="0" flags="0x204"/>
      <component glyphName="dotaccent" x="219" y="246" flags="0x4"/>
    </TTGlyph>
    <TTGlyph name="Egrave" xMin="-3" yMin="6" xMax="510" yMax="1761">
      <component glyphName="E" x="0" y="0" flags="0x204"/>
      <component glyphName="grave" x="-3" y="317" flags="0x4"/>
    </TTGlyph>
    <TTGlyph name="Emacron" xMin="27" yMin="6" xMax="510" yMax="1552">
      <component glyphName="E" x="0" y="0" flags="0x204"/>
      <component glyphName="macron" x="94" y="215" flags="0x4"/>
    </TTGlyph>
    <TTGlyph name="Eng" xMin="23" yMin="-516" xMax="721" yMax="1481">
      <contour>
        <pt x="551" y="-223" on="1"/>
        <pt x="551" y="-297" on="0"/>
        <pt x="517" y="-407" on="0"/>
        <pt x="459" y="-480" on="0"/>
        <pt x="381" y="-516" on="0"/>
        <pt x="336" y="-516" on="1"/>
        <pt x="294" y="-516" on="0"/>
        <pt x="223" y="-488" on="0"/>
        <pt x="171" y="-434" on="0"/>
        <pt x="141" y="-357" on="0"/>
        <pt x="141" y="-309" on="1"/>
        <pt x="141" y="-256" on="1"/>
        <pt x="141" y="-236" on="0"/>
        <pt x="153" y="-199" on="0"/>
        <pt x="177" y="-170" on="0"/>
        <pt x="211" y="-152" on="0"/>
        <pt x="233" y="-152" on="1"/>
        <pt x="255" y="-152" on="0"/>
        <pt x="287" y="-170" on="0"/>
        <pt x="308" y="-200" on="0"/>
        <pt x="319" y="-237" on="0"/>
        <pt x="319" y="-256" on="1"/>
        <pt x="319" y="-299" on="1"/>
        <pt x="285" y="-299" on="1"/>
        <pt x="285" y="-256" on="1"/>
        <pt x="285" y="-244" on="0"/>
        <pt x="279" y="-220" on="0"/>
        <pt x="267" y="-199" on="0"/>
        <pt x="247" y="-186" on="0"/>
        <pt x="233" y="-186" on="1"/>
        <pt x="204" y="-186" on="0"/>
        <pt x="176" y="-231" on="0"/>
        <pt x="176" y="-256" on="1"/>
        <pt x="176" y="-307" on="1"/>
        <pt x="176" y="-339" on="0"/>
        <pt x="194" y="-400" on="0"/>
        <pt x="232" y="-447" on="0"/>
        <pt x="288" y="-475" on="0"/>
        <pt x="326" y="-475" on="1"/>
        <pt x="357" y="-475" on="0"/>
        <pt x="423" y="-454" on="0"/>
        <pt x="477" y="-397" on="0"/>
        <pt x="512" y="-297" on="0"/>
        <pt x="514" y="-217" on="1"/>
        <pt x="516" y="35" on="1"/>
        <pt x="186" y="1137" on="1"/>
        <pt x="176" y="68" on="1"/>
        <pt x="176" y="57" on="0"/>
        <pt x="185" y="33" on="0"/>
        <pt x="199" y="13" on="0"/>
        <pt x="218" y="-1" on="0"/>
        <pt x="229" y="-2" on="1"/>
        <pt x="289" y="-2" on="1"/>
        <pt x="289" y="-37" on="1"/>
        <pt x="23" y="-33" on="1"/>
        <pt x="23" y="2" on="1"/>
        <pt x="80" y="0" on="1"/>
        <pt x="92" y="0" on="0"/>
        <pt x="113" y="14" on="0"/>
        <pt x="128" y="35" on="0"/>
        <pt x="137" y="59" on="0"/>
        <pt x="137" y="70" on="1"/>
        <pt x="150" y="1262" on="1"/>
        <pt x="151" y="1289" on="0"/>
        <pt x="129" y="1315" on="0"/>
        <pt x="94" y="1324" on="0"/>
        <pt x="51" y="1323" on="0"/>
        <pt x="31" y="1323" on="1"/>
        <pt x="31" y="1358" on="1"/>
        <pt x="225" y="1360" on="1"/>
        <pt x="522" y="340" on="1"/>
        <pt x="541" y="1341" on="1"/>
        <pt x="541" y="1356" on="0"/>
        <pt x="533" y="1392" on="0"/>
        <pt x="515" y="1423" on="0"/>
        <pt x="488" y="1444" on="0"/>
        <pt x="469" y="1444" on="1"/>
        <pt x="395" y="1444" on="1"/>
        <pt x="395" y="1479" on="1"/>
        <pt x="721" y="1481" on="1"/>
        <pt x="721" y="1444" on="1"/>
        <pt x="686" y="1444" on="0"/>
        <pt x="633" y="1444" on="0"/>
        <pt x="596" y="1428" on="0"/>
        <pt x="576" y="1385" on="0"/>
        <pt x="575" y="1343" on="1"/>
      </contour>
    </TTGlyph>
    <TTGlyph name="Eogonek" xMin="27" yMin="-205" xMax="510" yMax="1427">
      <contour>
        <pt x="504" y="-164" on="1"/>
        <pt x="488" y="-182" on="0"/>
        <pt x="434" y="-205" on="0"/>
        <pt x="410" y="-205" on="1"/>
        <pt x="360" y="-205" on="0"/>
        <pt x="299" y="-147" on="0"/>
        <pt x="299" y="-96" on="1"/>
        <pt x="299" y="-65" on="0"/>
        <pt x="330" y="-9" on="0"/>
        <pt x="354" y="12" on="1"/>
        <pt x="27" y="6" on="1"/>
        <pt x="27" y="41" on="1"/>
        <pt x="49" y="41" on="0"/>
        <pt x="90" y="45" on="0"/>
        <pt x="121" y="60" on="0"/>
        <pt x="139" y="91" on="0"/>
        <pt x="139" y="119" on="1"/>
        <pt x="139" y="1315" on="1"/>
        <pt x="139" y="1344" on="0"/>
        <pt x="121" y="1375" on="0"/>
        <pt x="90" y="1388" on="0"/>
        <pt x="49" y="1389" on="0"/>
        <pt x="27" y="1389" on="1"/>
        <pt x="27" y="1423" on="1"/>
        <pt x="508" y="1427" on="1"/>
        <pt x="510" y="1106" on="1"/>
        <pt x="475" y="1106" on="1"/>
        <pt x="473" y="1284" on="1"/>
        <pt x="470" y="1312" on="0"/>
        <pt x="446" y="1354" on="0"/>
        <pt x="410" y="1380" on="0"/>
        <pt x="365" y="1393" on="0"/>
        <pt x="340" y="1393" on="1"/>
        <pt x="315" y="1393" on="0"/>
        <pt x="264" y="1391" on="0"/>
        <pt x="240" y="1391" on="1"/>
        <pt x="240" y="784" on="1"/>
        <pt x="311" y="784" on="1"/>
        <pt x="342" y="784" on="0"/>
        <pt x="367" y="826" on="0"/>
        <pt x="367" y="852" on="1"/>
        <pt x="367" y="940" on="1"/>
        <pt x="403" y="940" on="1"/>
        <pt x="403" y="573" on="1"/>
        <pt x="367" y="573" on="1"/>
        <pt x="367" y="680" on="1"/>
        <pt x="367" y="720" on="0"/>
        <pt x="330" y="750" on="0"/>
        <pt x="293" y="750" on="1"/>
        <pt x="285" y="750" on="0"/>
        <pt x="255" y="748" on="0"/>
        <pt x="240" y="748" on="1"/>
        <pt x="240" y="49" on="1"/>
        <pt x="344" y="51" on="1"/>
        <pt x="392" y="51" on="0"/>
        <pt x="457" y="110" on="0"/>
        <pt x="457" y="160" on="1"/>
        <pt x="457" y="369" on="1"/>
        <pt x="492" y="369" on="1"/>
        <pt x="492" y="16" on="1"/>
        <pt x="408" y="14" on="1"/>
        <pt x="391" y="-6" on="0"/>
        <pt x="367" y="-60" on="0"/>
        <pt x="367" y="-82" on="1"/>
        <pt x="367" y="-119" on="0"/>
        <pt x="407" y="-164" on="0"/>
        <pt x="432" y="-164" on="1"/>
        <pt x="448" y="-164" on="0"/>
        <pt x="478" y="-151" on="0"/>
        <pt x="489" y="-143" on="1"/>
      </contour>
    </TTGlyph>
    <TTGlyph name="Eth" xMin="35" yMin="-25" xMax="586" yMax="1454">
      <contour>
        <pt x="586" y="748" on="1"/>
        <pt x="586" y="657" on="0"/>
        <pt x="583" y="477" on="0"/>
        <pt x="564" y="311" on="0"/>
        <pt x="523" y="167" on="0"/>
        <pt x="447" y="59" on="0"/>
        <pt x="329" y="-7" on="0"/>
        <pt x="244" y="-12" on="1"/>
        <pt x="45" y="-25" on="1"/>
        <pt x="45" y="12" on="1"/>
        <pt x="70" y="12" on="0"/>
        <pt x="106" y="17" on="0"/>
        <pt x="130" y="34" on="0"/>
        <pt x="141" y="66" on="0"/>
        <pt x="141" y="94" on="1"/>
        <pt x="145" y="688" on="1"/>
        <pt x="39" y="688" on="1"/>
        <pt x="39" y="739" on="1"/>
        <pt x="145" y="739" on="1"/>
        <pt x="150" y="1335" on="1"/>
        <pt x="150" y="1369" on="0"/>
        <pt x="133" y="1403" on="0"/>
        <pt x="102" y="1417" on="0"/>
        <pt x="60" y="1417" on="0"/>
        <pt x="35" y="1417" on="1"/>
        <pt x="35" y="1454" on="1"/>
        <pt x="244" y="1454" on="1"/>
        <pt x="330" y="1454" on="0"/>
        <pt x="448" y="1398" on="0"/>
        <pt x="524" y="1299" on="0"/>
        <pt x="564" y="1165" on="0"/>
        <pt x="583" y="1008" on="0"/>
        <pt x="586" y="835" on="0"/>
      </contour>
      <contour>
        <pt x="395" y="688" on="1"/>
        <pt x="244" y="688" on="1"/>
        <pt x="240" y="27" on="1"/>
        <pt x="324" y="27" on="0"/>
        <pt x="421" y="137" on="0"/>
        <pt x="470" y="334" on="0"/>
        <pt x="483" y="604" on="0"/>
        <pt x="483" y="764" on="1"/>
        <pt x="483" y="935" on="0"/>
        <pt x="471" y="1182" on="0"/>
        <pt x="423" y="1341" on="0"/>
        <pt x="329" y="1417" on="0"/>
        <pt x="248" y="1417" on="1"/>
        <pt x="244" y="739" on="1"/>
        <pt x="395" y="739" on="1"/>
      </contour>
    </TTGlyph>
    <TTGlyph name="Euro" xMin="25" yMin="127" xMax="553" yMax="1327">
      <contour>
        <pt x="365" y="750" on="1"/>
        <pt x="262" y="750" on="1"/>
        <pt x="262" y="700" on="1"/>
        <pt x="348" y="700" on="1"/>
        <pt x="330" y="637" on="1"/>
        <pt x="262" y="637" on="1"/>
        <pt x="262" y="585" on="0"/>
        <pt x="268" y="477" on="0"/>
        <pt x="281" y="376" on="0"/>
        <pt x="302" y="286" on="0"/>
        <pt x="336" y="219" on="0"/>
        <pt x="384" y="180" on="0"/>
        <pt x="416" y="180" on="1"/>
        <pt x="451" y="180" on="0"/>
        <pt x="492" y="227" on="0"/>
        <pt x="513" y="294" on="0"/>
        <pt x="519" y="367" on="0"/>
        <pt x="518" y="393" on="1"/>
        <pt x="551" y="393" on="1"/>
        <pt x="551" y="388" on="0"/>
        <pt x="553" y="380" on="0"/>
        <pt x="553" y="377" on="1"/>
        <pt x="553" y="365" on="1"/>
        <pt x="553" y="323" on="0"/>
        <pt x="538" y="238" on="0"/>
        <pt x="500" y="170" on="0"/>
        <pt x="435" y="127" on="0"/>
        <pt x="385" y="127" on="1"/>
        <pt x="337" y="127" on="0"/>
        <pt x="269" y="172" on="0"/>
        <pt x="222" y="248" on="0"/>
        <pt x="194" y="349" on="0"/>
        <pt x="178" y="462" on="0"/>
        <pt x="172" y="581" on="0"/>
        <pt x="172" y="637" on="1"/>
        <pt x="25" y="637" on="1"/>
        <pt x="41" y="700" on="1"/>
        <pt x="172" y="700" on="1"/>
        <pt x="172" y="750" on="1"/>
        <pt x="57" y="750" on="1"/>
        <pt x="78" y="815" on="1"/>
        <pt x="172" y="815" on="1"/>
        <pt x="172" y="869" on="0"/>
        <pt x="178" y="985" on="0"/>
        <pt x="191" y="1095" on="0"/>
        <pt x="216" y="1194" on="0"/>
        <pt x="257" y="1268" on="0"/>
        <pt x="317" y="1311" on="0"/>
        <pt x="358" y="1311" on="1"/>
        <pt x="382" y="1311" on="0"/>
        <pt x="422" y="1294" on="0"/>
        <pt x="454" y="1266" on="0"/>
        <pt x="479" y="1229" on="0"/>
        <pt x="489" y="1210" on="1"/>
        <pt x="489" y="1241" on="0"/>
        <pt x="485" y="1298" on="0"/>
        <pt x="485" y="1327" on="1"/>
        <pt x="520" y="1327" on="1"/>
        <pt x="532" y="975" on="1"/>
        <pt x="498" y="973" on="1"/>
        <pt x="497" y="994" on="0"/>
        <pt x="492" y="1053" on="0"/>
        <pt x="482" y="1118" on="0"/>
        <pt x="464" y="1182" on="0"/>
        <pt x="436" y="1233" on="0"/>
        <pt x="396" y="1264" on="0"/>
        <pt x="369" y="1264" on="1"/>
        <pt x="346" y="1264" on="0"/>
        <pt x="312" y="1220" on="0"/>
        <pt x="289" y="1147" on="0"/>
        <pt x="274" y="1053" on="0"/>
        <pt x="266" y="954" on="0"/>
        <pt x="262" y="855" on="0"/>
        <pt x="262" y="815" on="1"/>
        <pt x="385" y="815" on="1"/>
      </contour>
    </TTGlyph>
    <TTGlyph name="F" xMin="23" yMin="12" xMax="549" yMax="1442">
      <contour>
        <pt x="250" y="729" on="1"/>
        <pt x="324" y="729" on="1"/>
        <pt x="355" y="729" on="0"/>
        <pt x="384" y="763" on="0"/>
        <pt x="393" y="811" on="0"/>
        <pt x="390" y="865" on="0"/>
        <pt x="389" y="885" on="1"/>
        <pt x="426" y="885" on="1"/>
        <pt x="426" y="457" on="1"/>
        <pt x="389" y="457" on="1"/>
        <pt x="389" y="627" on="1"/>
        <pt x="389" y="655" on="0"/>
        <pt x="353" y="694" on="0"/>
        <pt x="324" y="694" on="1"/>
        <pt x="250" y="694" on="1"/>
        <pt x="246" y="121" on="1"/>
        <pt x="246" y="86" on="0"/>
        <pt x="262" y="55" on="0"/>
        <pt x="291" y="46" on="0"/>
        <pt x="333" y="49" on="0"/>
        <pt x="360" y="49" on="1"/>
        <pt x="360" y="12" on="1"/>
        <pt x="33" y="12" on="1"/>
        <pt x="33" y="49" on="1"/>
        <pt x="74" y="49" on="1"/>
        <pt x="89" y="49" on="0"/>
        <pt x="115" y="62" on="0"/>
        <pt x="134" y="83" on="0"/>
        <pt x="145" y="110" on="0"/>
        <pt x="145" y="125" on="1"/>
        <pt x="154" y="1298" on="1"/>
        <pt x="154" y="1313" on="0"/>
        <pt x="136" y="1340" on="0"/>
        <pt x="109" y="1360" on="0"/>
        <pt x="77" y="1372" on="0"/>
        <pt x="63" y="1372" on="1"/>
        <pt x="52" y="1372" on="0"/>
        <pt x="34" y="1370" on="0"/>
        <pt x="23" y="1368" on="1"/>
        <pt x="23" y="1405" on="1"/>
        <pt x="547" y="1442" on="1"/>
        <pt x="549" y="1071" on="1"/>
        <pt x="514" y="1071" on="1"/>
        <pt x="512" y="1290" on="1"/>
        <pt x="512" y="1311" on="0"/>
        <pt x="503" y="1350" on="0"/>
        <pt x="482" y="1379" on="0"/>
        <pt x="448" y="1397" on="0"/>
        <pt x="424" y="1397" on="1"/>
        <pt x="382" y="1397" on="0"/>
        <pt x="298" y="1388" on="0"/>
        <pt x="256" y="1384" on="1"/>
      </contour>
    </TTGlyph>
    <TTGlyph name="G" xMin="74" yMin="-68" xMax="582" yMax="1524">
      <contour>
        <pt x="406" y="659" on="1"/>
        <pt x="326" y="655" on="1"/>
        <pt x="326" y="690" on="1"/>
        <pt x="580" y="705" on="1"/>
        <pt x="582" y="670" on="1"/>
        <pt x="485" y="664" on="1"/>
        <pt x="492" y="-68" on="1"/>
        <pt x="457" y="-68" on="1"/>
        <pt x="455" y="115" on="1"/>
        <pt x="449" y="86" on="0"/>
        <pt x="428" y="24" on="0"/>
        <pt x="392" y="-27" on="0"/>
        <pt x="341" y="-61" on="0"/>
        <pt x="307" y="-61" on="1"/>
        <pt x="250" y="-61" on="0"/>
        <pt x="171" y="-1" on="0"/>
        <pt x="119" y="106" on="0"/>
        <pt x="90" y="257" on="0"/>
        <pt x="77" y="438" on="0"/>
        <pt x="74" y="645" on="0"/>
        <pt x="74" y="756" on="1"/>
        <pt x="74" y="844" on="0"/>
        <pt x="76" y="1022" on="0"/>
        <pt x="89" y="1185" on="0"/>
        <pt x="116" y="1326" on="0"/>
        <pt x="166" y="1430" on="0"/>
        <pt x="244" y="1489" on="0"/>
        <pt x="301" y="1489" on="1"/>
        <pt x="332" y="1489" on="0"/>
        <pt x="384" y="1464" on="0"/>
        <pt x="426" y="1422" on="0"/>
        <pt x="456" y="1369" on="0"/>
        <pt x="465" y="1341" on="1"/>
        <pt x="463" y="1522" on="1"/>
        <pt x="496" y="1524" on="1"/>
        <pt x="502" y="1075" on="1"/>
        <pt x="467" y="1073" on="1"/>
        <pt x="467" y="1098" on="0"/>
        <pt x="464" y="1173" on="0"/>
        <pt x="453" y="1255" on="0"/>
        <pt x="433" y="1336" on="0"/>
        <pt x="399" y="1401" on="0"/>
        <pt x="348" y="1442" on="0"/>
        <pt x="313" y="1442" on="1"/>
        <pt x="276" y="1442" on="0"/>
        <pt x="226" y="1377" on="0"/>
        <pt x="193" y="1269" on="0"/>
        <pt x="176" y="1128" on="0"/>
        <pt x="167" y="976" on="0"/>
        <pt x="166" y="822" on="0"/>
        <pt x="166" y="756" on="1"/>
        <pt x="166" y="655" on="0"/>
        <pt x="167" y="462" on="0"/>
        <pt x="176" y="290" on="0"/>
        <pt x="194" y="145" on="0"/>
        <pt x="227" y="41" on="0"/>
        <pt x="278" y="-18" on="0"/>
        <pt x="315" y="-18" on="1"/>
        <pt x="347" y="-18" on="0"/>
        <pt x="384" y="38" on="0"/>
        <pt x="402" y="114" on="0"/>
        <pt x="406" y="192" on="0"/>
        <pt x="406" y="215" on="1"/>
      </contour>
    </TTGlyph>
    <TTGlyph name="Gbreve" xMin="74" yMin="-68" xMax="582" yMax="1755">
      <component glyphName="G" x="0" y="0" flags="0x204"/>
      <component glyphName="breve" x="145" y="356" flags="0x4"/>
    </TTGlyph>
    <TTGlyph name="Gcircumflex" xMin="74" yMin="-68" xMax="582" yMax="1857">
      <component glyphName="G" x="0" y="0" flags="0x204"/>
      <component glyphName="circumflex" x="123" y="444" flags="0x4"/>
    </TTGlyph>
    <TTGlyph name="Gcommaaccent" xMin="74" yMin="-387" xMax="582" yMax="1524">
      <component glyphName="G" x="0" y="0" flags="0x204"/>
      <component glyphName="uni0326" x="184" y="0" flags="0x4"/>
    </TTGlyph>
    <TTGlyph name="Gdotaccent" xMin="74" yMin="-68" xMax="582" yMax="1667">
      <component glyphName="G" x="0" y="0" flags="0x204"/>
      <component glyphName="dotaccent" x="240" y="301" flags="0x4"/>
    </TTGlyph>
    <TTGlyph name="H" xMin="23" yMin="-23" xMax="737" yMax="1483">
      <contour>
        <pt x="242" y="90" on="1"/>
        <pt x="243" y="62" on="0"/>
        <pt x="261" y="32" on="0"/>
        <pt x="292" y="17" on="0"/>
        <pt x="332" y="14" on="0"/>
        <pt x="354" y="14" on="1"/>
        <pt x="354" y="-23" on="1"/>
        <pt x="27" y="-23" on="1"/>
        <pt x="27" y="14" on="1"/>
        <pt x="63" y="14" on="1"/>
        <pt x="78" y="14" on="0"/>
        <pt x="106" y="27" on="0"/>
        <pt x="128" y="48" on="0"/>
        <pt x="141" y="75" on="0"/>
        <pt x="141" y="90" on="1"/>
        <pt x="133" y="1309" on="1"/>
        <pt x="133" y="1333" on="0"/>
        <pt x="114" y="1361" on="0"/>
        <pt x="83" y="1375" on="0"/>
        <pt x="44" y="1378" on="0"/>
        <pt x="25" y="1378" on="1"/>
        <pt x="23" y="1409" on="1"/>
        <pt x="350" y="1423" on="1"/>
        <pt x="352" y="1393" on="1"/>
        <pt x="313" y="1393" on="1"/>
        <pt x="298" y="1393" on="0"/>
        <pt x="269" y="1378" on="0"/>
        <pt x="246" y="1354" on="0"/>
        <pt x="233" y="1324" on="0"/>
        <pt x="233" y="1309" on="1"/>
        <pt x="238" y="604" on="1"/>
        <pt x="514" y="604" on="1"/>
        <pt x="528" y="1331" on="1"/>
        <pt x="528" y="1367" on="0"/>
        <pt x="522" y="1414" on="0"/>
        <pt x="499" y="1441" on="0"/>
        <pt x="455" y="1452" on="0"/>
        <pt x="418" y="1452" on="1"/>
        <pt x="416" y="1483" on="1"/>
        <pt x="737" y="1481" on="1"/>
        <pt x="737" y="1450" on="1"/>
        <pt x="717" y="1450" on="0"/>
        <pt x="678" y="1447" on="0"/>
        <pt x="648" y="1434" on="0"/>
        <pt x="629" y="1405" on="0"/>
        <pt x="629" y="1380" on="1"/>
        <pt x="606" y="109" on="1"/>
        <pt x="606" y="94" on="0"/>
        <pt x="618" y="66" on="0"/>
        <pt x="639" y="44" on="0"/>
        <pt x="667" y="31" on="0"/>
        <pt x="682" y="31" on="1"/>
        <pt x="719" y="31" on="1"/>
        <pt x="719" y="-4" on="1"/>
        <pt x="391" y="-4" on="1"/>
        <pt x="389" y="31" on="1"/>
        <pt x="412" y="31" on="0"/>
        <pt x="452" y="36" on="0"/>
        <pt x="483" y="52" on="0"/>
        <pt x="503" y="83" on="0"/>
        <pt x="506" y="109" on="1"/>
        <pt x="514" y="557" on="1"/>
        <pt x="238" y="557" on="1"/>
      </contour>
    </TTGlyph>
    <TTGlyph name="Hbar" xMin="20" yMin="-23" xMax="737" yMax="1483">
      <contour>
        <pt x="242" y="90" on="1"/>
        <pt x="243" y="62" on="0"/>
        <pt x="261" y="32" on="0"/>
        <pt x="292" y="17" on="0"/>
        <pt x="332" y="14" on="0"/>
        <pt x="354" y="14" on="1"/>
        <pt x="354" y="-23" on="1"/>
        <pt x="27" y="-23" on="1"/>
        <pt x="27" y="14" on="1"/>
        <pt x="63" y="14" on="1"/>
        <pt x="78" y="14" on="0"/>
        <pt x="106" y="27" on="0"/>
        <pt x="128" y="48" on="0"/>
        <pt x="141" y="75" on="0"/>
        <pt x="141" y="90" on="1"/>
        <pt x="135" y="846" on="1"/>
        <pt x="20" y="846" on="1"/>
        <pt x="20" y="918" on="1"/>
        <pt x="135" y="918" on="1"/>
        <pt x="133" y="1309" on="1"/>
        <pt x="133" y="1333" on="0"/>
        <pt x="114" y="1361" on="0"/>
        <pt x="83" y="1375" on="0"/>
        <pt x="44" y="1378" on="0"/>
        <pt x="25" y="1378" on="1"/>
        <pt x="23" y="1409" on="1"/>
        <pt x="350" y="1423" on="1"/>
        <pt x="352" y="1393" on="1"/>
        <pt x="313" y="1393" on="1"/>
        <pt x="298" y="1393" on="0"/>
        <pt x="269" y="1378" on="0"/>
        <pt x="246" y="1354" on="0"/>
        <pt x="233" y="1324" on="0"/>
        <pt x="233" y="1309" on="1"/>
        <pt x="236" y="918" on="1"/>
        <pt x="520" y="918" on="1"/>
        <pt x="528" y="1331" on="1"/>
        <pt x="528" y="1367" on="0"/>
        <pt x="522" y="1414" on="0"/>
        <pt x="499" y="1441" on="0"/>
        <pt x="455" y="1452" on="0"/>
        <pt x="418" y="1452" on="1"/>
        <pt x="416" y="1483" on="1"/>
        <pt x="737" y="1481" on="1"/>
        <pt x="737" y="1450" on="1"/>
        <pt x="717" y="1450" on="0"/>
        <pt x="678" y="1447" on="0"/>
        <pt x="648" y="1434" on="0"/>
        <pt x="629" y="1405" on="0"/>
        <pt x="629" y="1380" on="1"/>
        <pt x="621" y="918" on="1"/>
        <pt x="735" y="918" on="1"/>
        <pt x="735" y="846" on="1"/>
        <pt x="618" y="846" on="1"/>
        <pt x="606" y="109" on="1"/>
        <pt x="606" y="94" on="0"/>
        <pt x="618" y="66" on="0"/>
        <pt x="639" y="44" on="0"/>
        <pt x="667" y="31" on="0"/>
        <pt x="682" y="31" on="1"/>
        <pt x="719" y="31" on="1"/>
        <pt x="719" y="-4" on="1"/>
        <pt x="391" y="-4" on="1"/>
        <pt x="389" y="31" on="1"/>
        <pt x="412" y="31" on="0"/>
        <pt x="452" y="36" on="0"/>
        <pt x="483" y="52" on="0"/>
        <pt x="503" y="83" on="0"/>
        <pt x="506" y="109" on="1"/>
        <pt x="514" y="557" on="1"/>
        <pt x="238" y="557" on="1"/>
      </contour>
      <contour>
        <pt x="238" y="604" on="1"/>
        <pt x="514" y="604" on="1"/>
        <pt x="518" y="846" on="1"/>
        <pt x="236" y="846" on="1"/>
      </contour>
    </TTGlyph>
    <TTGlyph name="Hcircumflex" xMin="23" yMin="-23" xMax="737" yMax="1827">
      <component glyphName="H" x="0" y="0" flags="0x204"/>
      <component glyphName="circumflex" x="199" y="414" flags="0x4"/>
    </TTGlyph>
    <TTGlyph name="I" xMin="27" yMin="14" xMax="352" yMax="1413">
      <contour>
        <pt x="352" y="14" on="1"/>
        <pt x="27" y="14" on="1"/>
        <pt x="27" y="49" on="1"/>
        <pt x="63" y="49" on="1"/>
        <pt x="78" y="49" on="0"/>
        <pt x="107" y="62" on="0"/>
        <pt x="128" y="83" on="0"/>
        <pt x="141" y="110" on="0"/>
        <pt x="141" y="125" on="1"/>
        <pt x="141" y="1300" on="1"/>
        <pt x="141" y="1315" on="0"/>
        <pt x="128" y="1343" on="0"/>
        <pt x="107" y="1365" on="0"/>
        <pt x="80" y="1378" on="0"/>
        <pt x="66" y="1378" on="1"/>
        <pt x="27" y="1378" on="1"/>
        <pt x="27" y="1413" on="1"/>
        <pt x="352" y="1413" on="1"/>
        <pt x="352" y="1378" on="1"/>
        <pt x="317" y="1378" on="1"/>
        <pt x="286" y="1378" on="0"/>
        <pt x="242" y="1331" on="0"/>
        <pt x="242" y="1300" on="1"/>
        <pt x="242" y="125" on="1"/>
        <pt x="242" y="110" on="0"/>
        <pt x="254" y="83" on="0"/>
        <pt x="274" y="62" on="0"/>
        <pt x="302" y="49" on="0"/>
        <pt x="317" y="49" on="1"/>
        <pt x="352" y="49" on="1"/>
      </contour>
    </TTGlyph>
    <TTGlyph name="IJ" xMin="27" yMin="-39" xMax="965" yMax="1475">
      <component glyphName="I" x="0" y="0" flags="0x4"/>
      <component glyphName="J" x="381" y="0" flags="0x4"/>
    </TTGlyph>
    <TTGlyph name="Iacute" xMin="27" yMin="14" xMax="469" yMax="1747">
      <component glyphName="I" x="0" y="0" flags="0x204"/>
      <component glyphName="acute" x="190" y="303" flags="0x4"/>
    </TTGlyph>
    <TTGlyph name="Ibreve" xMin="27" yMin="14" xMax="352" yMax="1725">
      <component glyphName="I" x="0" y="0" flags="0x204"/>
      <component glyphName="breve" x="35" y="326" flags="0x4"/>
    </TTGlyph>
    <TTGlyph name="Icircumflex" xMin="18" yMin="14" xMax="372" yMax="1747">
      <component glyphName="I" x="6" y="0" flags="0x4"/>
      <component glyphName="circumflex" x="18" y="334" flags="0x4"/>
    </TTGlyph>
    <TTGlyph name="Idieresis" xMin="27" yMin="14" xMax="352" yMax="1591">
      <component glyphName="I" x="0" y="0" flags="0x204"/>
      <component glyphName="dieresis" x="45" y="225" flags="0x4"/>
    </TTGlyph>
    <TTGlyph name="Idotaccent" xMin="27" yMin="14" xMax="352" yMax="1587">
      <component glyphName="I" x="0" y="0" flags="0x204"/>
      <component glyphName="dotaccent" x="129" y="221" flags="0x4"/>
    </TTGlyph>
    <TTGlyph name="Igrave" xMin="-83" yMin="14" xMax="352" yMax="1751">
      <component glyphName="I" x="0" y="0" flags="0x204"/>
      <component glyphName="grave" x="-83" y="307" flags="0x4"/>
    </TTGlyph>
    <TTGlyph name="Imacron" xMin="4" yMin="14" xMax="375" yMax="1546">
      <component glyphName="I" x="0" y="0" flags="0x204"/>
      <component glyphName="macron" x="4" y="209" flags="0x4"/>
    </TTGlyph>
    <TTGlyph name="Iogonek" xMin="27" yMin="-197" xMax="352" yMax="1413">
      <contour>
        <pt x="303" y="-156" on="1"/>
        <pt x="288" y="-174" on="0"/>
        <pt x="234" y="-197" on="0"/>
        <pt x="209" y="-197" on="1"/>
        <pt x="159" y="-197" on="0"/>
        <pt x="98" y="-139" on="0"/>
        <pt x="98" y="-88" on="1"/>
        <pt x="98" y="-59" on="0"/>
        <pt x="124" y="-7" on="0"/>
        <pt x="145" y="14" on="1"/>
        <pt x="27" y="14" on="1"/>
        <pt x="27" y="49" on="1"/>
        <pt x="63" y="49" on="1"/>
        <pt x="78" y="49" on="0"/>
        <pt x="107" y="62" on="0"/>
        <pt x="128" y="83" on="0"/>
        <pt x="141" y="110" on="0"/>
        <pt x="141" y="125" on="1"/>
        <pt x="141" y="1300" on="1"/>
        <pt x="141" y="1315" on="0"/>
        <pt x="128" y="1343" on="0"/>
        <pt x="107" y="1365" on="0"/>
        <pt x="80" y="1378" on="0"/>
        <pt x="66" y="1378" on="1"/>
        <pt x="27" y="1378" on="1"/>
        <pt x="27" y="1413" on="1"/>
        <pt x="352" y="1413" on="1"/>
        <pt x="352" y="1378" on="1"/>
        <pt x="317" y="1378" on="1"/>
        <pt x="286" y="1378" on="0"/>
        <pt x="242" y="1331" on="0"/>
        <pt x="242" y="1300" on="1"/>
        <pt x="242" y="125" on="1"/>
        <pt x="242" y="110" on="0"/>
        <pt x="254" y="83" on="0"/>
        <pt x="274" y="62" on="0"/>
        <pt x="302" y="49" on="0"/>
        <pt x="317" y="49" on="1"/>
        <pt x="352" y="49" on="1"/>
        <pt x="352" y="14" on="1"/>
        <pt x="201" y="14" on="1"/>
        <pt x="185" y="-6" on="0"/>
        <pt x="166" y="-54" on="0"/>
        <pt x="166" y="-74" on="1"/>
        <pt x="166" y="-111" on="0"/>
        <pt x="207" y="-156" on="0"/>
        <pt x="231" y="-156" on="1"/>
        <pt x="247" y="-156" on="0"/>
        <pt x="278" y="-143" on="0"/>
        <pt x="289" y="-135" on="1"/>
      </contour>
    </TTGlyph>
    <TTGlyph name="Itilde" xMin="-11" yMin="14" xMax="397" yMax="1685">
      <component glyphName="I" x="0" y="0" flags="0x204"/>
      <component glyphName="tilde" x="-11" y="301" flags="0x4"/>
    </TTGlyph>
    <TTGlyph name="J" xMin="25" yMin="-39" xMax="584" yMax="1475">
      <contour>
        <pt x="584" y="1442" on="1"/>
        <pt x="547" y="1442" on="1"/>
        <pt x="516" y="1442" on="0"/>
        <pt x="471" y="1395" on="0"/>
        <pt x="471" y="1364" on="1"/>
        <pt x="455" y="172" on="1"/>
        <pt x="455" y="129" on="0"/>
        <pt x="426" y="52" on="0"/>
        <pt x="374" y="-5" on="0"/>
        <pt x="301" y="-39" on="0"/>
        <pt x="256" y="-39" on="1"/>
        <pt x="206" y="-39" on="0"/>
        <pt x="121" y="2" on="0"/>
        <pt x="60" y="71" on="0"/>
        <pt x="25" y="161" on="0"/>
        <pt x="25" y="209" on="1"/>
        <pt x="25" y="406" on="1"/>
        <pt x="25" y="426" on="0"/>
        <pt x="37" y="463" on="0"/>
        <pt x="60" y="492" on="0"/>
        <pt x="94" y="510" on="0"/>
        <pt x="117" y="510" on="1"/>
        <pt x="138" y="510" on="0"/>
        <pt x="171" y="492" on="0"/>
        <pt x="192" y="462" on="0"/>
        <pt x="203" y="425" on="0"/>
        <pt x="203" y="406" on="1"/>
        <pt x="203" y="260" on="1"/>
        <pt x="168" y="260" on="1"/>
        <pt x="168" y="406" on="1"/>
        <pt x="168" y="417" on="0"/>
        <pt x="162" y="442" on="0"/>
        <pt x="150" y="462" on="0"/>
        <pt x="131" y="475" on="0"/>
        <pt x="117" y="475" on="1"/>
        <pt x="88" y="475" on="0"/>
        <pt x="59" y="430" on="0"/>
        <pt x="59" y="406" on="1"/>
        <pt x="59" y="211" on="1"/>
        <pt x="59" y="179" on="0"/>
        <pt x="78" y="109" on="0"/>
        <pt x="115" y="51" on="0"/>
        <pt x="171" y="14" on="0"/>
        <pt x="209" y="14" on="1"/>
        <pt x="240" y="14" on="0"/>
        <pt x="294" y="43" on="0"/>
        <pt x="332" y="90" on="0"/>
        <pt x="354" y="149" on="0"/>
        <pt x="354" y="178" on="1"/>
        <pt x="371" y="1364" on="1"/>
        <pt x="371" y="1395" on="0"/>
        <pt x="324" y="1442" on="0"/>
        <pt x="293" y="1442" on="1"/>
        <pt x="258" y="1442" on="1"/>
        <pt x="258" y="1475" on="1"/>
        <pt x="584" y="1475" on="1"/>
      </contour>
    </TTGlyph>
    <TTGlyph name="Jcircumflex" xMin="25" yMin="-39" xMax="600" yMax="1814">
      <component glyphName="J" x="0" y="0" flags="0x204"/>
      <component glyphName="circumflex" x="246" y="401" flags="0x4"/>
    </TTGlyph>
    <TTGlyph name="K" xMin="2" yMin="-119" xMax="752" yMax="1528">
      <contour>
        <pt x="240" y="748" on="1"/>
        <pt x="260" y="794" on="0"/>
        <pt x="320" y="927" on="0"/>
        <pt x="385" y="1075" on="0"/>
        <pt x="449" y="1223" on="0"/>
        <pt x="500" y="1345" on="0"/>
        <pt x="532" y="1428" on="0"/>
        <pt x="532" y="1436" on="1"/>
        <pt x="532" y="1453" on="0"/>
        <pt x="509" y="1469" on="0"/>
        <pt x="478" y="1475" on="0"/>
        <pt x="444" y="1475" on="0"/>
        <pt x="432" y="1475" on="1"/>
        <pt x="432" y="1509" on="1"/>
        <pt x="752" y="1528" on="1"/>
        <pt x="752" y="1493" on="1"/>
        <pt x="705" y="1493" on="1"/>
        <pt x="687" y="1493" on="0"/>
        <pt x="651" y="1489" on="0"/>
        <pt x="619" y="1477" on="0"/>
        <pt x="593" y="1456" on="0"/>
        <pt x="586" y="1438" on="1"/>
        <pt x="319" y="813" on="1"/>
        <pt x="487" y="207" on="1"/>
        <pt x="495" y="178" on="0"/>
        <pt x="517" y="111" on="0"/>
        <pt x="546" y="43" on="0"/>
        <pt x="586" y="-19" on="0"/>
        <pt x="635" y="-65" on="0"/>
        <pt x="697" y="-90" on="0"/>
        <pt x="735" y="-86" on="1"/>
        <pt x="739" y="-109" on="1"/>
        <pt x="722" y="-114" on="0"/>
        <pt x="686" y="-119" on="0"/>
        <pt x="668" y="-119" on="1"/>
        <pt x="606" y="-119" on="0"/>
        <pt x="512" y="-60" on="0"/>
        <pt x="444" y="32" on="0"/>
        <pt x="399" y="142" on="0"/>
        <pt x="385" y="193" on="1"/>
        <pt x="256" y="664" on="1"/>
        <pt x="236" y="614" on="1"/>
        <pt x="215" y="88" on="1"/>
        <pt x="214" y="73" on="0"/>
        <pt x="226" y="45" on="0"/>
        <pt x="247" y="23" on="0"/>
        <pt x="274" y="10" on="0"/>
        <pt x="289" y="10" on="1"/>
        <pt x="328" y="10" on="1"/>
        <pt x="328" y="-23" on="1"/>
        <pt x="2" y="-27" on="1"/>
        <pt x="2" y="8" on="1"/>
        <pt x="39" y="8" on="1"/>
        <pt x="70" y="8" on="0"/>
        <pt x="113" y="55" on="0"/>
        <pt x="115" y="84" on="1"/>
        <pt x="160" y="1327" on="1"/>
        <pt x="160" y="1331" on="1"/>
        <pt x="160" y="1358" on="0"/>
        <pt x="140" y="1387" on="0"/>
        <pt x="108" y="1401" on="0"/>
        <pt x="68" y="1403" on="0"/>
        <pt x="47" y="1403" on="1"/>
        <pt x="47" y="1436" on="1"/>
        <pt x="377" y="1454" on="1"/>
        <pt x="377" y="1421" on="1"/>
        <pt x="340" y="1421" on="1"/>
        <pt x="325" y="1421" on="0"/>
        <pt x="299" y="1408" on="0"/>
        <pt x="278" y="1387" on="0"/>
        <pt x="265" y="1360" on="0"/>
        <pt x="264" y="1346" on="1"/>
      </contour>
    </TTGlyph>
    <TTGlyph name="Kcommaaccent" xMin="2" yMin="-387" xMax="752" yMax="1528">
      <component glyphName="K" x="0" y="0" flags="0x204"/>
      <component glyphName="uni0326" x="184" y="0" flags="0x4"/>
    </TTGlyph>
    <TTGlyph name="L" xMin="25" yMin="-2" xMax="471" yMax="1442">
      <contour>
        <pt x="471" y="6" on="1"/>
        <pt x="25" y="-2" on="1"/>
        <pt x="25" y="33" on="1"/>
        <pt x="61" y="33" on="1"/>
        <pt x="76" y="33" on="0"/>
        <pt x="104" y="48" on="0"/>
        <pt x="125" y="71" on="0"/>
        <pt x="137" y="100" on="0"/>
        <pt x="137" y="115" on="1"/>
        <pt x="137" y="1329" on="1"/>
        <pt x="137" y="1360" on="0"/>
        <pt x="92" y="1407" on="0"/>
        <pt x="61" y="1407" on="1"/>
        <pt x="25" y="1407" on="1"/>
        <pt x="25" y="1442" on="1"/>
        <pt x="350" y="1442" on="1"/>
        <pt x="350" y="1407" on="1"/>
        <pt x="315" y="1407" on="1"/>
        <pt x="299" y="1407" on="0"/>
        <pt x="271" y="1392" on="0"/>
        <pt x="250" y="1368" on="0"/>
        <pt x="238" y="1338" on="0"/>
        <pt x="238" y="1323" on="1"/>
        <pt x="238" y="100" on="1"/>
        <pt x="238" y="74" on="0"/>
        <pt x="260" y="37" on="0"/>
        <pt x="289" y="37" on="1"/>
        <pt x="309" y="37" on="0"/>
        <pt x="347" y="39" on="0"/>
        <pt x="367" y="41" on="1"/>
        <pt x="407" y="44" on="0"/>
        <pt x="436" y="83" on="0"/>
        <pt x="436" y="121" on="1"/>
        <pt x="436" y="362" on="1"/>
        <pt x="471" y="362" on="1"/>
      </contour>
    </TTGlyph>
    <TTGlyph name="Lacute" xMin="25" yMin="-2" xMax="471" yMax="1796">
      <component glyphName="L" x="0" y="0" flags="0x204"/>
      <component glyphName="acute" x="188" y="352" flags="0x4"/>
    </TTGlyph>
    <TTGlyph name="Lcaron" xMin="25" yMin="-2" xMax="503" yMax="1636">
      <component glyphName="L" x="0" y="0" flags="0x204"/>
      <component glyphName="uni0315" x="356" y="225" flags="0x4"/>
    </TTGlyph>
    <TTGlyph name="Lcommaaccent" xMin="25" yMin="-387" xMax="471" yMax="1442">
      <component glyphName="L" x="0" y="0" flags="0x204"/>
      <component glyphName="uni0326" x="133" y="0" flags="0x4"/>
    </TTGlyph>
    <TTGlyph name="Ldot" xMin="25" yMin="-2" xMax="621" yMax="1442">
      <component glyphName="L" x="0" y="0" flags="0x4"/>
      <component glyphName="periodcentered" x="428" y="0" flags="0x4"/>
    </TTGlyph>
    <TTGlyph name="Lslash" xMin="39" yMin="-2" xMax="485" yMax="1442">
      <contour>
        <pt x="399" y="756" on="1"/>
        <pt x="252" y="686" on="1"/>
        <pt x="252" y="100" on="1"/>
        <pt x="252" y="74" on="0"/>
        <pt x="274" y="37" on="0"/>
        <pt x="303" y="37" on="1"/>
        <pt x="323" y="37" on="0"/>
        <pt x="361" y="39" on="0"/>
        <pt x="381" y="41" on="1"/>
        <pt x="421" y="44" on="0"/>
        <pt x="451" y="83" on="0"/>
        <pt x="451" y="121" on="1"/>
        <pt x="451" y="362" on="1"/>
        <pt x="485" y="362" on="1"/>
        <pt x="485" y="6" on="1"/>
        <pt x="39" y="-2" on="1"/>
        <pt x="39" y="33" on="1"/>
        <pt x="76" y="33" on="1"/>
        <pt x="91" y="33" on="0"/>
        <pt x="119" y="48" on="0"/>
        <pt x="140" y="71" on="0"/>
        <pt x="152" y="100" on="0"/>
        <pt x="152" y="115" on="1"/>
        <pt x="152" y="637" on="1"/>
        <pt x="43" y="586" on="1"/>
        <pt x="43" y="637" on="1"/>
        <pt x="152" y="688" on="1"/>
        <pt x="152" y="1329" on="1"/>
        <pt x="152" y="1360" on="0"/>
        <pt x="107" y="1407" on="0"/>
        <pt x="76" y="1407" on="1"/>
        <pt x="39" y="1407" on="1"/>
        <pt x="39" y="1442" on="1"/>
        <pt x="365" y="1442" on="1"/>
        <pt x="365" y="1407" on="1"/>
        <pt x="330" y="1407" on="1"/>
        <pt x="314" y="1407" on="0"/>
        <pt x="285" y="1392" on="0"/>
        <pt x="264" y="1368" on="0"/>
        <pt x="252" y="1338" on="0"/>
        <pt x="252" y="1323" on="1"/>
        <pt x="252" y="737" on="1"/>
        <pt x="399" y="807" on="1"/>
      </contour>
    </TTGlyph>
    <TTGlyph name="M" xMin="12" yMin="-41" xMax="700" yMax="1513">
      <contour>
        <pt x="487" y="1335" on="1"/>
        <pt x="487" y="1383" on="0"/>
        <pt x="488" y="1441" on="0"/>
        <pt x="469" y="1472" on="0"/>
        <pt x="418" y="1480" on="0"/>
        <pt x="367" y="1479" on="1"/>
        <pt x="367" y="1509" on="1"/>
        <pt x="694" y="1513" on="1"/>
        <pt x="694" y="1481" on="1"/>
        <pt x="631" y="1481" on="1"/>
        <pt x="621" y="1481" on="0"/>
        <pt x="604" y="1469" on="0"/>
        <pt x="592" y="1451" on="0"/>
        <pt x="586" y="1430" on="0"/>
        <pt x="586" y="1421" on="1"/>
        <pt x="586" y="68" on="1"/>
        <pt x="586" y="57" on="0"/>
        <pt x="594" y="34" on="0"/>
        <pt x="609" y="14" on="0"/>
        <pt x="629" y="2" on="0"/>
        <pt x="641" y="2" on="1"/>
        <pt x="698" y="4" on="1"/>
        <pt x="700" y="-31" on="1"/>
        <pt x="375" y="-41" on="1"/>
        <pt x="373" y="-6" on="1"/>
        <pt x="430" y="-4" on="1"/>
        <pt x="442" y="-3" on="0"/>
        <pt x="463" y="11" on="0"/>
        <pt x="477" y="32" on="0"/>
        <pt x="485" y="57" on="0"/>
        <pt x="485" y="68" on="1"/>
        <pt x="487" y="1106" on="1"/>
        <pt x="303" y="457" on="1"/>
        <pt x="184" y="799" on="1"/>
        <pt x="199" y="135" on="1"/>
        <pt x="199" y="124" on="0"/>
        <pt x="207" y="100" on="0"/>
        <pt x="222" y="81" on="0"/>
        <pt x="242" y="68" on="0"/>
        <pt x="254" y="68" on="1"/>
        <pt x="311" y="70" on="1"/>
        <pt x="313" y="35" on="1"/>
        <pt x="47" y="27" on="1"/>
        <pt x="45" y="61" on="1"/>
        <pt x="102" y="63" on="1"/>
        <pt x="114" y="63" on="0"/>
        <pt x="135" y="77" on="0"/>
        <pt x="149" y="98" on="0"/>
        <pt x="157" y="122" on="0"/>
        <pt x="156" y="133" on="1"/>
        <pt x="135" y="1161" on="1"/>
        <pt x="135" y="1184" on="0"/>
        <pt x="106" y="1221" on="0"/>
        <pt x="80" y="1221" on="1"/>
        <pt x="63" y="1221" on="0"/>
        <pt x="31" y="1219" on="0"/>
        <pt x="14" y="1219" on="1"/>
        <pt x="12" y="1249" on="1"/>
        <pt x="279" y="1264" on="1"/>
        <pt x="281" y="1233" on="1"/>
        <pt x="261" y="1232" on="0"/>
        <pt x="224" y="1231" on="0"/>
        <pt x="194" y="1220" on="0"/>
        <pt x="176" y="1193" on="0"/>
        <pt x="176" y="1167" on="1"/>
        <pt x="178" y="1067" on="1"/>
        <pt x="187" y="1039" on="0"/>
        <pt x="212" y="961" on="0"/>
        <pt x="247" y="857" on="0"/>
        <pt x="293" y="725" on="0"/>
        <pt x="322" y="643" on="1"/>
        <pt x="487" y="1239" on="1"/>
      </contour>
    </TTGlyph>
    <TTGlyph name="N" xMin="23" yMin="-37" xMax="721" yMax="1481">
      <contour>
        <pt x="557" y="23" on="1"/>
        <pt x="520" y="27" on="1"/>
        <pt x="186" y="1137" on="1"/>
        <pt x="176" y="68" on="1"/>
        <pt x="176" y="57" on="0"/>
        <pt x="185" y="33" on="0"/>
        <pt x="199" y="13" on="0"/>
        <pt x="218" y="-1" on="0"/>
        <pt x="229" y="-2" on="1"/>
        <pt x="289" y="-2" on="1"/>
        <pt x="289" y="-37" on="1"/>
        <pt x="23" y="-33" on="1"/>
        <pt x="23" y="2" on="1"/>
        <pt x="80" y="0" on="1"/>
        <pt x="92" y="0" on="0"/>
        <pt x="113" y="14" on="0"/>
        <pt x="128" y="35" on="0"/>
        <pt x="137" y="59" on="0"/>
        <pt x="137" y="70" on="1"/>
        <pt x="150" y="1262" on="1"/>
        <pt x="151" y="1289" on="0"/>
        <pt x="129" y="1315" on="0"/>
        <pt x="94" y="1324" on="0"/>
        <pt x="51" y="1323" on="0"/>
        <pt x="31" y="1323" on="1"/>
        <pt x="31" y="1358" on="1"/>
        <pt x="225" y="1360" on="1"/>
        <pt x="522" y="340" on="1"/>
        <pt x="541" y="1341" on="1"/>
        <pt x="541" y="1356" on="0"/>
        <pt x="533" y="1392" on="0"/>
        <pt x="515" y="1423" on="0"/>
        <pt x="488" y="1444" on="0"/>
        <pt x="469" y="1444" on="1"/>
        <pt x="395" y="1444" on="1"/>
        <pt x="395" y="1479" on="1"/>
        <pt x="721" y="1481" on="1"/>
        <pt x="721" y="1444" on="1"/>
        <pt x="686" y="1444" on="0"/>
        <pt x="633" y="1444" on="0"/>
        <pt x="596" y="1428" on="0"/>
        <pt x="576" y="1385" on="0"/>
        <pt x="575" y="1343" on="1"/>
      </contour>
    </TTGlyph>
    <TTGlyph name="Nacute" xMin="23" yMin="-37" xMax="721" yMax="1749">
      <component glyphName="N" x="0" y="0" flags="0x204"/>
      <component glyphName="acute" x="268" y="305" flags="0x4"/>
    </TTGlyph>
    <TTGlyph name="Ncaron" xMin="23" yMin="-37" xMax="721" yMax="1718">
      <component glyphName="N" x="0" y="0" flags="0x204"/>
      <component glyphName="caron" x="119" y="305" flags="0x4"/>
    </TTGlyph>
    <TTGlyph name="Ncommaaccent" xMin="23" yMin="-387" xMax="721" yMax="1481">
      <component glyphName="N" x="0" y="0" flags="0x204"/>
      <component glyphName="uni0326" x="242" y="0" flags="0x4"/>
    </TTGlyph>
    <TTGlyph name="Ntilde" xMin="23" yMin="-37" xMax="721" yMax="1726">
      <component glyphName="N" x="0" y="0" flags="0x204"/>
      <component glyphName="tilde" x="135" y="342" flags="0x4"/>
    </TTGlyph>
    <TTGlyph name="O" xMin="94" yMin="-20" xMax="549" yMax="1460">
      <contour>
        <pt x="549" y="301" on="1"/>
        <pt x="549" y="231" on="0"/>
        <pt x="523" y="113" on="0"/>
        <pt x="466" y="28" on="0"/>
        <pt x="375" y="-20" on="0"/>
        <pt x="311" y="-20" on="1"/>
        <pt x="260" y="-20" on="0"/>
        <pt x="180" y="21" on="0"/>
        <pt x="124" y="92" on="0"/>
        <pt x="94" y="187" on="0"/>
        <pt x="94" y="240" on="1"/>
        <pt x="94" y="1190" on="1"/>
        <pt x="94" y="1253" on="0"/>
        <pt x="128" y="1353" on="0"/>
        <pt x="189" y="1423" on="0"/>
        <pt x="275" y="1460" on="0"/>
        <pt x="328" y="1460" on="1"/>
        <pt x="379" y="1460" on="0"/>
        <pt x="461" y="1424" on="0"/>
        <pt x="518" y="1358" on="0"/>
        <pt x="549" y="1262" on="0"/>
        <pt x="549" y="1202" on="1"/>
      </contour>
      <contour>
        <pt x="449" y="254" on="1"/>
        <pt x="449" y="1202" on="1"/>
        <pt x="449" y="1247" on="0"/>
        <pt x="440" y="1330" on="0"/>
        <pt x="414" y="1393" on="0"/>
        <pt x="370" y="1430" on="0"/>
        <pt x="336" y="1430" on="1"/>
        <pt x="297" y="1430" on="0"/>
        <pt x="244" y="1392" on="0"/>
        <pt x="210" y="1328" on="0"/>
        <pt x="195" y="1241" on="0"/>
        <pt x="195" y="1192" on="1"/>
        <pt x="195" y="248" on="1"/>
        <pt x="195" y="210" on="0"/>
        <pt x="208" y="130" on="0"/>
        <pt x="237" y="65" on="0"/>
        <pt x="284" y="23" on="0"/>
        <pt x="319" y="23" on="1"/>
        <pt x="358" y="23" on="0"/>
        <pt x="409" y="63" on="0"/>
        <pt x="438" y="128" on="0"/>
        <pt x="449" y="211" on="0"/>
      </contour>
    </TTGlyph>
    <TTGlyph name="OE" xMin="94" yMin="-20" xMax="823" yMax="1460">
      <contour>
        <pt x="553" y="784" on="1"/>
        <pt x="625" y="784" on="1"/>
        <pt x="656" y="784" on="0"/>
        <pt x="680" y="826" on="0"/>
        <pt x="680" y="852" on="1"/>
        <pt x="680" y="940" on="1"/>
        <pt x="717" y="940" on="1"/>
        <pt x="717" y="573" on="1"/>
        <pt x="680" y="573" on="1"/>
        <pt x="680" y="680" on="1"/>
        <pt x="680" y="720" on="0"/>
        <pt x="643" y="750" on="0"/>
        <pt x="606" y="750" on="1"/>
        <pt x="598" y="750" on="0"/>
        <pt x="568" y="748" on="0"/>
        <pt x="553" y="748" on="1"/>
        <pt x="553" y="49" on="1"/>
        <pt x="657" y="51" on="1"/>
        <pt x="705" y="51" on="0"/>
        <pt x="770" y="110" on="0"/>
        <pt x="770" y="160" on="1"/>
        <pt x="770" y="369" on="1"/>
        <pt x="805" y="369" on="1"/>
        <pt x="805" y="16" on="1"/>
        <pt x="453" y="6" on="1"/>
        <pt x="453" y="23" on="1"/>
        <pt x="425" y="3" on="0"/>
        <pt x="356" y="-20" on="0"/>
        <pt x="311" y="-20" on="1"/>
        <pt x="260" y="-20" on="0"/>
        <pt x="180" y="21" on="0"/>
        <pt x="124" y="92" on="0"/>
        <pt x="94" y="187" on="0"/>
        <pt x="94" y="240" on="1"/>
        <pt x="94" y="1190" on="1"/>
        <pt x="94" y="1253" on="0"/>
        <pt x="128" y="1353" on="0"/>
        <pt x="189" y="1423" on="0"/>
        <pt x="275" y="1460" on="0"/>
        <pt x="328" y="1460" on="1"/>
        <pt x="365" y="1460" on="0"/>
        <pt x="428" y="1440" on="0"/>
        <pt x="453" y="1423" on="1"/>
        <pt x="821" y="1427" on="1"/>
        <pt x="823" y="1106" on="1"/>
        <pt x="788" y="1106" on="1"/>
        <pt x="786" y="1284" on="1"/>
        <pt x="783" y="1312" on="0"/>
        <pt x="759" y="1354" on="0"/>
        <pt x="723" y="1380" on="0"/>
        <pt x="678" y="1393" on="0"/>
        <pt x="653" y="1393" on="1"/>
        <pt x="629" y="1393" on="0"/>
        <pt x="578" y="1391" on="0"/>
        <pt x="553" y="1391" on="1"/>
      </contour>
      <contour>
        <pt x="449" y="1202" on="1"/>
        <pt x="449" y="1247" on="0"/>
        <pt x="440" y="1330" on="0"/>
        <pt x="414" y="1393" on="0"/>
        <pt x="370" y="1430" on="0"/>
        <pt x="336" y="1430" on="1"/>
        <pt x="297" y="1430" on="0"/>
        <pt x="244" y="1392" on="0"/>
        <pt x="210" y="1328" on="0"/>
        <pt x="195" y="1241" on="0"/>
        <pt x="195" y="1192" on="1"/>
        <pt x="195" y="248" on="1"/>
        <pt x="195" y="210" on="0"/>
        <pt x="208" y="130" on="0"/>
        <pt x="237" y="65" on="0"/>
        <pt x="284" y="23" on="0"/>
        <pt x="319" y="23" on="1"/>
        <pt x="358" y="23" on="0"/>
        <pt x="409" y="63" on="0"/>
        <pt x="438" y="128" on="0"/>
        <pt x="449" y="211" on="0"/>
        <pt x="449" y="254" on="1"/>
      </contour>
    </TTGlyph>
    <TTGlyph name="Oacute" xMin="94" yMin="-20" xMax="607" yMax="1794">
      <component glyphName="O" x="0" y="0" flags="0x204"/>
      <component glyphName="acute" x="328" y="350" flags="0x4"/>
    </TTGlyph>
    <TTGlyph name="Obreve" xMin="94" yMin="-20" xMax="549" yMax="1735">
      <component glyphName="O" x="0" y="0" flags="0x204"/>
      <component glyphName="breve" x="166" y="336" flags="0x4"/>
    </TTGlyph>
    <TTGlyph name="Ocircumflex" xMin="94" yMin="-20" xMax="549" yMax="1773">
      <component glyphName="O" x="0" y="0" flags="0x204"/>
      <component glyphName="circumflex" x="143" y="360" flags="0x4"/>
    </TTGlyph>
    <TTGlyph name="Odieresis" xMin="94" yMin="-20" xMax="549" yMax="1612">
      <component glyphName="O" x="0" y="0" flags="0x204"/>
      <component glyphName="dieresis" x="176" y="246" flags="0x4"/>
    </TTGlyph>
    <TTGlyph name="Ograve" xMin="45" yMin="-20" xMax="549" yMax="1794">
      <component glyphName="O" x="0" y="0" flags="0x204"/>
      <component glyphName="grave" x="45" y="350" flags="0x4"/>
    </TTGlyph>
    <TTGlyph name="Ohungarumlaut" xMin="94" yMin="-20" xMax="706" yMax="1811">
      <component glyphName="O" x="0" y="0" flags="0x204"/>
      <component glyphName="hungarumlaut" x="229" y="367" flags="0x4"/>
    </TTGlyph>
    <TTGlyph name="Omacron" xMin="94" yMin="-20" xMax="549" yMax="1577">
      <component glyphName="O" x="0" y="0" flags="0x204"/>
      <component glyphName="macron" x="135" y="240" flags="0x4"/>
    </TTGlyph>
    <TTGlyph name="Oslash" xMin="94" yMin="-20" xMax="633" yMax="1460">
      <contour>
        <pt x="633" y="1380" on="1"/>
        <pt x="555" y="1171" on="1"/>
        <pt x="555" y="301" on="1"/>
        <pt x="555" y="231" on="0"/>
        <pt x="529" y="113" on="0"/>
        <pt x="472" y="28" on="0"/>
        <pt x="381" y="-20" on="0"/>
        <pt x="317" y="-20" on="1"/>
        <pt x="260" y="-20" on="0"/>
        <pt x="173" y="30" on="0"/>
        <pt x="145" y="72" on="1"/>
        <pt x="129" y="27" on="1"/>
        <pt x="94" y="37" on="1"/>
        <pt x="121" y="121" on="1"/>
        <pt x="112" y="149" on="0"/>
        <pt x="100" y="208" on="0"/>
        <pt x="100" y="240" on="1"/>
        <pt x="100" y="1190" on="1"/>
        <pt x="100" y="1253" on="0"/>
        <pt x="134" y="1353" on="0"/>
        <pt x="196" y="1423" on="0"/>
        <pt x="282" y="1460" on="0"/>
        <pt x="334" y="1460" on="1"/>
        <pt x="397" y="1460" on="0"/>
        <pt x="490" y="1407" on="0"/>
        <pt x="518" y="1358" on="1"/>
        <pt x="526" y="1382" on="1"/>
      </contour>
      <contour>
        <pt x="201" y="367" on="1"/>
        <pt x="455" y="1159" on="1"/>
        <pt x="455" y="1202" on="1"/>
        <pt x="455" y="1247" on="0"/>
        <pt x="446" y="1330" on="0"/>
        <pt x="420" y="1393" on="0"/>
        <pt x="376" y="1430" on="0"/>
        <pt x="342" y="1430" on="1"/>
        <pt x="304" y="1430" on="0"/>
        <pt x="250" y="1392" on="0"/>
        <pt x="216" y="1328" on="0"/>
        <pt x="201" y="1241" on="0"/>
        <pt x="201" y="1192" on="1"/>
      </contour>
      <contour>
        <pt x="455" y="901" on="1"/>
        <pt x="201" y="221" on="1"/>
        <pt x="203" y="186" on="0"/>
        <pt x="219" y="115" on="0"/>
        <pt x="249" y="58" on="0"/>
        <pt x="294" y="23" on="0"/>
        <pt x="326" y="23" on="1"/>
        <pt x="365" y="23" on="0"/>
        <pt x="415" y="63" on="0"/>
        <pt x="444" y="128" on="0"/>
        <pt x="455" y="211" on="0"/>
        <pt x="455" y="254" on="1"/>
      </contour>
    </TTGlyph>
    <TTGlyph name="Oslashacute" xMin="94" yMin="-20" xMax="633" yMax="1821">
      <component glyphName="Oslash" x="0" y="0" flags="0x204"/>
      <component glyphName="acute" x="328" y="377" flags="0x4"/>
    </TTGlyph>
    <TTGlyph name="Otilde" xMin="94" yMin="-20" xMax="549" yMax="1724">
      <component glyphName="O" x="0" y="0" flags="0x204"/>
      <component glyphName="tilde" x="117" y="340" flags="0x4"/>
    </TTGlyph>
    <TTGlyph name="P" xMin="23" yMin="23" xMax="547" yMax="1411">
      <contour>
        <pt x="291" y="72" on="1"/>
        <pt x="305" y="72" on="0"/>
        <pt x="334" y="74" on="0"/>
        <pt x="348" y="74" on="1"/>
        <pt x="350" y="39" on="1"/>
        <pt x="23" y="23" on="1"/>
        <pt x="23" y="57" on="1"/>
        <pt x="37" y="59" on="0"/>
        <pt x="66" y="58" on="0"/>
        <pt x="80" y="61" on="1"/>
        <pt x="105" y="65" on="0"/>
        <pt x="133" y="110" on="0"/>
        <pt x="133" y="133" on="1"/>
        <pt x="152" y="1311" on="1"/>
        <pt x="152" y="1338" on="0"/>
        <pt x="129" y="1364" on="0"/>
        <pt x="94" y="1373" on="0"/>
        <pt x="52" y="1371" on="0"/>
        <pt x="33" y="1370" on="1"/>
        <pt x="33" y="1405" on="1"/>
        <pt x="82" y="1407" on="0"/>
        <pt x="182" y="1411" on="0"/>
        <pt x="233" y="1411" on="1"/>
        <pt x="321" y="1411" on="0"/>
        <pt x="442" y="1353" on="0"/>
        <pt x="515" y="1251" on="0"/>
        <pt x="547" y="1113" on="0"/>
        <pt x="547" y="1034" on="1"/>
        <pt x="547" y="956" on="0"/>
        <pt x="514" y="820" on="0"/>
        <pt x="441" y="717" on="0"/>
        <pt x="325" y="650" on="0"/>
        <pt x="242" y="641" on="1"/>
        <pt x="236" y="135" on="1"/>
        <pt x="235" y="124" on="0"/>
        <pt x="243" y="102" on="0"/>
        <pt x="258" y="84" on="0"/>
        <pt x="279" y="72" on="0"/>
      </contour>
      <contour>
        <pt x="449" y="1053" on="1"/>
        <pt x="449" y="1103" on="0"/>
        <pt x="436" y="1213" on="0"/>
        <pt x="396" y="1304" on="0"/>
        <pt x="318" y="1364" on="0"/>
        <pt x="254" y="1364" on="1"/>
        <pt x="244" y="674" on="1"/>
        <pt x="308" y="686" on="0"/>
        <pt x="388" y="766" on="0"/>
        <pt x="433" y="876" on="0"/>
        <pt x="449" y="999" on="0"/>
      </contour>
    </TTGlyph>
    <TTGlyph name="Q" xMin="94" yMin="-352" xMax="549" yMax="1460">
      <contour>
        <pt x="520" y="-258" on="1"/>
        <pt x="510" y="-274" on="0"/>
        <pt x="474" y="-308" on="0"/>
        <pt x="429" y="-335" on="0"/>
        <pt x="382" y="-352" on="0"/>
        <pt x="362" y="-352" on="1"/>
        <pt x="321" y="-352" on="0"/>
        <pt x="261" y="-318" on="0"/>
        <pt x="221" y="-262" on="0"/>
        <pt x="201" y="-191" on="0"/>
        <pt x="201" y="-154" on="1"/>
        <pt x="201" y="-113" on="0"/>
        <pt x="212" y="-38" on="0"/>
        <pt x="223" y="0" on="1"/>
        <pt x="161" y="28" on="0"/>
        <pt x="94" y="158" on="0"/>
        <pt x="94" y="240" on="1"/>
        <pt x="94" y="1190" on="1"/>
        <pt x="94" y="1253" on="0"/>
        <pt x="128" y="1353" on="0"/>
        <pt x="189" y="1423" on="0"/>
        <pt x="275" y="1460" on="0"/>
        <pt x="328" y="1460" on="1"/>
        <pt x="379" y="1460" on="0"/>
        <pt x="461" y="1424" on="0"/>
        <pt x="518" y="1358" on="0"/>
        <pt x="549" y="1262" on="0"/>
        <pt x="549" y="1202" on="1"/>
        <pt x="549" y="301" on="1"/>
        <pt x="549" y="231" on="0"/>
        <pt x="523" y="113" on="0"/>
        <pt x="466" y="28" on="0"/>
        <pt x="375" y="-20" on="0"/>
        <pt x="311" y="-20" on="1"/>
        <pt x="297" y="-20" on="1"/>
        <pt x="291" y="-76" on="0"/>
        <pt x="291" y="-131" on="1"/>
        <pt x="291" y="-155" on="0"/>
        <pt x="297" y="-219" on="0"/>
        <pt x="318" y="-276" on="0"/>
        <pt x="355" y="-315" on="0"/>
        <pt x="387" y="-315" on="1"/>
        <pt x="405" y="-315" on="0"/>
        <pt x="437" y="-302" on="0"/>
        <pt x="467" y="-281" on="0"/>
        <pt x="492" y="-256" on="0"/>
        <pt x="502" y="-244" on="1"/>
      </contour>
      <contour>
        <pt x="449" y="1202" on="1"/>
        <pt x="449" y="1247" on="0"/>
        <pt x="440" y="1330" on="0"/>
        <pt x="414" y="1393" on="0"/>
        <pt x="370" y="1430" on="0"/>
        <pt x="336" y="1430" on="1"/>
        <pt x="297" y="1430" on="0"/>
        <pt x="244" y="1392" on="0"/>
        <pt x="210" y="1328" on="0"/>
        <pt x="195" y="1241" on="0"/>
        <pt x="195" y="1192" on="1"/>
        <pt x="195" y="530" on="1"/>
        <pt x="232" y="508" on="0"/>
        <pt x="282" y="439" on="0"/>
        <pt x="310" y="357" on="0"/>
        <pt x="322" y="269" on="0"/>
        <pt x="322" y="227" on="1"/>
        <pt x="322" y="175" on="0"/>
        <pt x="309" y="76" on="0"/>
        <pt x="303" y="25" on="1"/>
        <pt x="306" y="23" on="0"/>
        <pt x="314" y="23" on="0"/>
        <pt x="319" y="23" on="1"/>
        <pt x="358" y="23" on="0"/>
        <pt x="409" y="63" on="0"/>
        <pt x="438" y="128" on="0"/>
        <pt x="449" y="211" on="0"/>
        <pt x="449" y="254" on="1"/>
      </contour>
      <contour>
        <pt x="195" y="248" on="1"/>
        <pt x="195" y="198" on="0"/>
        <pt x="216" y="98" on="0"/>
        <pt x="242" y="63" on="1"/>
        <pt x="256" y="116" on="0"/>
        <pt x="281" y="223" on="0"/>
        <pt x="281" y="279" on="1"/>
        <pt x="281" y="307" on="0"/>
        <pt x="272" y="366" on="0"/>
        <pt x="252" y="421" on="0"/>
        <pt x="219" y="468" on="0"/>
        <pt x="195" y="485" on="1"/>
      </contour>
    </TTGlyph>
    <TTGlyph name="R" xMin="20" yMin="-209" xMax="707" yMax="1434">
      <contour>
        <pt x="446" y="463" on="1"/>
        <pt x="446" y="493" on="0"/>
        <pt x="433" y="556" on="0"/>
        <pt x="406" y="614" on="0"/>
        <pt x="361" y="664" on="0"/>
        <pt x="330" y="682" on="1"/>
        <pt x="290" y="673" on="0"/>
        <pt x="242" y="676" on="1"/>
        <pt x="233" y="127" on="1"/>
        <pt x="232" y="116" on="0"/>
        <pt x="241" y="93" on="0"/>
        <pt x="256" y="75" on="0"/>
        <pt x="277" y="63" on="0"/>
        <pt x="289" y="63" on="1"/>
        <pt x="303" y="63" on="0"/>
        <pt x="332" y="66" on="0"/>
        <pt x="346" y="66" on="1"/>
        <pt x="348" y="31" on="1"/>
        <pt x="20" y="14" on="1"/>
        <pt x="20" y="49" on="1"/>
        <pt x="78" y="53" on="1"/>
        <pt x="90" y="54" on="0"/>
        <pt x="110" y="69" on="0"/>
        <pt x="124" y="89" on="0"/>
        <pt x="131" y="113" on="0"/>
        <pt x="131" y="125" on="1"/>
        <pt x="150" y="1333" on="1"/>
        <pt x="150" y="1361" on="0"/>
        <pt x="127" y="1387" on="0"/>
        <pt x="92" y="1396" on="0"/>
        <pt x="50" y="1394" on="0"/>
        <pt x="31" y="1393" on="1"/>
        <pt x="31" y="1427" on="1"/>
        <pt x="83" y="1429" on="0"/>
        <pt x="190" y="1434" on="0"/>
        <pt x="244" y="1434" on="1"/>
        <pt x="332" y="1434" on="0"/>
        <pt x="451" y="1387" on="0"/>
        <pt x="523" y="1297" on="0"/>
        <pt x="553" y="1167" on="0"/>
        <pt x="553" y="1085" on="1"/>
        <pt x="553" y="1031" on="0"/>
        <pt x="538" y="916" on="0"/>
        <pt x="499" y="811" on="0"/>
        <pt x="434" y="725" on="0"/>
        <pt x="383" y="700" on="1"/>
        <pt x="429" y="681" on="0"/>
        <pt x="491" y="619" on="0"/>
        <pt x="529" y="543" on="0"/>
        <pt x="545" y="459" on="0"/>
        <pt x="545" y="418" on="1"/>
        <pt x="545" y="322" on="0"/>
        <pt x="530" y="133" on="0"/>
        <pt x="530" y="37" on="1"/>
        <pt x="530" y="-51" on="0"/>
        <pt x="617" y="-169" on="0"/>
        <pt x="707" y="-186" on="1"/>
        <pt x="707" y="-207" on="1"/>
        <pt x="699" y="-207" on="0"/>
        <pt x="684" y="-209" on="0"/>
        <pt x="678" y="-209" on="1"/>
        <pt x="623" y="-209" on="0"/>
        <pt x="532" y="-170" on="0"/>
        <pt x="466" y="-101" on="0"/>
        <pt x="430" y="-9" on="0"/>
        <pt x="430" y="45" on="1"/>
        <pt x="430" y="150" on="0"/>
        <pt x="446" y="358" on="0"/>
      </contour>
      <contour>
        <pt x="242" y="709" on="1"/>
        <pt x="307" y="713" on="0"/>
        <pt x="389" y="769" on="0"/>
        <pt x="436" y="854" on="0"/>
        <pt x="453" y="962" on="0"/>
        <pt x="453" y="1018" on="1"/>
        <pt x="453" y="1056" on="0"/>
        <pt x="454" y="1140" on="0"/>
        <pt x="447" y="1222" on="0"/>
        <pt x="426" y="1297" on="0"/>
        <pt x="383" y="1354" on="0"/>
        <pt x="313" y="1387" on="0"/>
        <pt x="260" y="1386" on="1"/>
        <pt x="252" y="1386" on="1"/>
      </contour>
    </TTGlyph>
    <TTGlyph name="Racute" xMin="20" yMin="-209" xMax="707" yMax="1772">
      <component glyphName="R" x="0" y="0" flags="0x204"/>
      <component glyphName="acute" x="324" y="328" flags="0x4"/>
    </TTGlyph>
    <TTGlyph name="Rcaron" xMin="20" yMin="-209" xMax="707" yMax="1780">
      <component glyphName="R" x="0" y="0" flags="0x204"/>
      <component glyphName="caron" x="152" y="367" flags="0x4"/>
    </TTGlyph>
    <TTGlyph name="Rcommaaccent" xMin="20" yMin="-352" xMax="707" yMax="1434">
      <component glyphName="R" x="0" y="0" flags="0x204"/>
      <component glyphName="uni0326" x="186" y="35" flags="0x4"/>
    </TTGlyph>
    <TTGlyph name="S" xMin="57" yMin="-39" xMax="477" yMax="1577">
      <contour>
        <pt x="461" y="1577" on="1"/>
        <pt x="455" y="979" on="1"/>
        <pt x="420" y="979" on="1"/>
        <pt x="420" y="1007" on="0"/>
        <pt x="421" y="1055" on="0"/>
        <pt x="421" y="1102" on="0"/>
        <pt x="422" y="1150" on="0"/>
        <pt x="422" y="1178" on="1"/>
        <pt x="422" y="1207" on="0"/>
        <pt x="399" y="1281" on="0"/>
        <pt x="360" y="1347" on="0"/>
        <pt x="305" y="1393" on="0"/>
        <pt x="274" y="1393" on="1"/>
        <pt x="243" y="1393" on="0"/>
        <pt x="200" y="1353" on="0"/>
        <pt x="171" y="1290" on="0"/>
        <pt x="155" y="1213" on="0"/>
        <pt x="147" y="1137" on="0"/>
        <pt x="145" y="1071" on="0"/>
        <pt x="145" y="1051" on="1"/>
        <pt x="145" y="979" on="0"/>
        <pt x="159" y="875" on="0"/>
        <pt x="200" y="795" on="0"/>
        <pt x="271" y="728" on="0"/>
        <pt x="328" y="692" on="1"/>
        <pt x="377" y="660" on="0"/>
        <pt x="436" y="576" on="0"/>
        <pt x="467" y="479" on="0"/>
        <pt x="477" y="376" on="0"/>
        <pt x="477" y="326" on="1"/>
        <pt x="477" y="286" on="0"/>
        <pt x="472" y="202" on="0"/>
        <pt x="456" y="121" on="0"/>
        <pt x="428" y="48" on="0"/>
        <pt x="381" y="-7" on="0"/>
        <pt x="314" y="-39" on="0"/>
        <pt x="268" y="-39" on="1"/>
        <pt x="211" y="-39" on="0"/>
        <pt x="132" y="7" on="0"/>
        <pt x="84" y="82" on="0"/>
        <pt x="63" y="177" on="0"/>
        <pt x="63" y="225" on="1"/>
        <pt x="63" y="249" on="0"/>
        <pt x="69" y="312" on="0"/>
        <pt x="88" y="369" on="0"/>
        <pt x="127" y="408" on="0"/>
        <pt x="160" y="408" on="1"/>
        <pt x="191" y="408" on="0"/>
        <pt x="225" y="374" on="0"/>
        <pt x="240" y="324" on="0"/>
        <pt x="242" y="267" on="0"/>
        <pt x="242" y="244" on="1"/>
        <pt x="242" y="203" on="1"/>
        <pt x="207" y="205" on="1"/>
        <pt x="207" y="268" on="1"/>
        <pt x="207" y="280" on="0"/>
        <pt x="206" y="316" on="0"/>
        <pt x="197" y="349" on="0"/>
        <pt x="178" y="373" on="0"/>
        <pt x="160" y="373" on="1"/>
        <pt x="137" y="373" on="0"/>
        <pt x="112" y="338" on="0"/>
        <pt x="100" y="290" on="0"/>
        <pt x="98" y="240" on="0"/>
        <pt x="98" y="225" on="1"/>
        <pt x="98" y="188" on="0"/>
        <pt x="116" y="109" on="0"/>
        <pt x="155" y="44" on="0"/>
        <pt x="216" y="2" on="0"/>
        <pt x="258" y="2" on="1"/>
        <pt x="291" y="2" on="0"/>
        <pt x="337" y="48" on="0"/>
        <pt x="366" y="119" on="0"/>
        <pt x="381" y="206" on="0"/>
        <pt x="388" y="289" on="0"/>
        <pt x="389" y="359" on="0"/>
        <pt x="389" y="377" on="1"/>
        <pt x="389" y="421" on="0"/>
        <pt x="380" y="505" on="0"/>
        <pt x="354" y="580" on="0"/>
        <pt x="307" y="642" on="0"/>
        <pt x="268" y="664" on="1"/>
        <pt x="200" y="702" on="0"/>
        <pt x="117" y="790" on="0"/>
        <pt x="72" y="891" on="0"/>
        <pt x="57" y="1006" on="0"/>
        <pt x="57" y="1071" on="1"/>
        <pt x="57" y="1104" on="0"/>
        <pt x="61" y="1186" on="0"/>
        <pt x="75" y="1269" on="0"/>
        <pt x="101" y="1348" on="0"/>
        <pt x="146" y="1409" on="0"/>
        <pt x="211" y="1446" on="0"/>
        <pt x="256" y="1446" on="1"/>
        <pt x="293" y="1446" on="0"/>
        <pt x="349" y="1418" on="0"/>
        <pt x="389" y="1373" on="0"/>
        <pt x="415" y="1319" on="0"/>
        <pt x="422" y="1294" on="1"/>
        <pt x="424" y="1577" on="1"/>
      </contour>
    </TTGlyph>
    <TTGlyph name="Sacute" xMin="57" yMin="-39" xMax="537" yMax="1796">
      <component glyphName="S" x="0" y="0" flags="0x204"/>
      <component glyphName="acute" x="258" y="352" flags="0x4"/>
    </TTGlyph>
    <TTGlyph name="Scaron" xMin="57" yMin="-39" xMax="477" yMax="1778">
      <component glyphName="S" x="0" y="0" flags="0x204"/>
      <component glyphName="caron" x="74" y="365" flags="0x4"/>
    </TTGlyph>
    <TTGlyph name="Scedilla" xMin="57" yMin="-287" xMax="477" yMax="1577">
      <contour>
        <pt x="236" y="-287" on="1"/>
        <pt x="216" y="-287" on="0"/>
        <pt x="164" y="-271" on="0"/>
        <pt x="152" y="-254" on="1"/>
        <pt x="166" y="-229" on="1"/>
        <pt x="177" y="-242" on="0"/>
        <pt x="202" y="-250" on="0"/>
        <pt x="217" y="-250" on="1"/>
        <pt x="236" y="-250" on="0"/>
        <pt x="258" y="-214" on="0"/>
        <pt x="258" y="-197" on="1"/>
        <pt x="258" y="-175" on="0"/>
        <pt x="229" y="-152" on="0"/>
        <pt x="209" y="-152" on="1"/>
        <pt x="197" y="-152" on="0"/>
        <pt x="184" y="-158" on="1"/>
        <pt x="236" y="-37" on="1"/>
        <pt x="187" y="-30" on="0"/>
        <pt x="121" y="20" on="0"/>
        <pt x="80" y="92" on="0"/>
        <pt x="63" y="180" on="0"/>
        <pt x="63" y="225" on="1"/>
        <pt x="63" y="249" on="0"/>
        <pt x="69" y="312" on="0"/>
        <pt x="88" y="369" on="0"/>
        <pt x="127" y="408" on="0"/>
        <pt x="160" y="408" on="1"/>
        <pt x="191" y="408" on="0"/>
        <pt x="225" y="374" on="0"/>
        <pt x="240" y="324" on="0"/>
        <pt x="242" y="267" on="0"/>
        <pt x="242" y="244" on="1"/>
        <pt x="242" y="203" on="1"/>
        <pt x="207" y="205" on="1"/>
        <pt x="207" y="268" on="1"/>
        <pt x="207" y="280" on="0"/>
        <pt x="206" y="316" on="0"/>
        <pt x="197" y="349" on="0"/>
        <pt x="178" y="373" on="0"/>
        <pt x="160" y="373" on="1"/>
        <pt x="137" y="373" on="0"/>
        <pt x="112" y="338" on="0"/>
        <pt x="100" y="290" on="0"/>
        <pt x="98" y="240" on="0"/>
        <pt x="98" y="225" on="1"/>
        <pt x="98" y="188" on="0"/>
        <pt x="116" y="109" on="0"/>
        <pt x="155" y="44" on="0"/>
        <pt x="216" y="2" on="0"/>
        <pt x="258" y="2" on="1"/>
        <pt x="291" y="2" on="0"/>
        <pt x="337" y="48" on="0"/>
        <pt x="366" y="119" on="0"/>
        <pt x="381" y="206" on="0"/>
        <pt x="388" y="289" on="0"/>
        <pt x="389" y="359" on="0"/>
        <pt x="389" y="377" on="1"/>
        <pt x="389" y="421" on="0"/>
        <pt x="380" y="505" on="0"/>
        <pt x="354" y="580" on="0"/>
        <pt x="307" y="642" on="0"/>
        <pt x="268" y="664" on="1"/>
        <pt x="200" y="702" on="0"/>
        <pt x="117" y="790" on="0"/>
        <pt x="72" y="891" on="0"/>
        <pt x="57" y="1006" on="0"/>
        <pt x="57" y="1071" on="1"/>
        <pt x="57" y="1104" on="0"/>
        <pt x="61" y="1186" on="0"/>
        <pt x="75" y="1269" on="0"/>
        <pt x="101" y="1348" on="0"/>
        <pt x="146" y="1409" on="0"/>
        <pt x="211" y="1446" on="0"/>
        <pt x="256" y="1446" on="1"/>
        <pt x="293" y="1446" on="0"/>
        <pt x="349" y="1418" on="0"/>
        <pt x="389" y="1373" on="0"/>
        <pt x="415" y="1319" on="0"/>
        <pt x="422" y="1294" on="1"/>
        <pt x="424" y="1577" on="1"/>
        <pt x="461" y="1577" on="1"/>
        <pt x="455" y="979" on="1"/>
        <pt x="420" y="979" on="1"/>
        <pt x="420" y="1007" on="0"/>
        <pt x="421" y="1055" on="0"/>
        <pt x="421" y="1102" on="0"/>
        <pt x="422" y="1150" on="0"/>
        <pt x="422" y="1178" on="1"/>
        <pt x="422" y="1207" on="0"/>
        <pt x="399" y="1281" on="0"/>
        <pt x="360" y="1347" on="0"/>
        <pt x="305" y="1393" on="0"/>
        <pt x="274" y="1393" on="1"/>
        <pt x="243" y="1393" on="0"/>
        <pt x="200" y="1353" on="0"/>
        <pt x="171" y="1290" on="0"/>
        <pt x="155" y="1213" on="0"/>
        <pt x="147" y="1137" on="0"/>
        <pt x="145" y="1071" on="0"/>
        <pt x="145" y="1051" on="1"/>
        <pt x="145" y="979" on="0"/>
        <pt x="159" y="875" on="0"/>
        <pt x="200" y="795" on="0"/>
        <pt x="271" y="728" on="0"/>
        <pt x="328" y="692" on="1"/>
        <pt x="377" y="660" on="0"/>
        <pt x="436" y="576" on="0"/>
        <pt x="467" y="479" on="0"/>
        <pt x="477" y="376" on="0"/>
        <pt x="477" y="326" on="1"/>
        <pt x="477" y="286" on="0"/>
        <pt x="472" y="202" on="0"/>
        <pt x="456" y="121" on="0"/>
        <pt x="428" y="49" on="0"/>
        <pt x="381" y="-6" on="0"/>
        <pt x="314" y="-38" on="0"/>
        <pt x="268" y="-39" on="1"/>
        <pt x="240" y="-117" on="1"/>
        <pt x="262" y="-117" on="1"/>
        <pt x="296" y="-117" on="0"/>
        <pt x="340" y="-156" on="0"/>
        <pt x="340" y="-190" on="1"/>
        <pt x="340" y="-212" on="0"/>
        <pt x="322" y="-248" on="0"/>
        <pt x="293" y="-273" on="0"/>
        <pt x="256" y="-287" on="0"/>
      </contour>
    </TTGlyph>
    <TTGlyph name="Scircumflex" xMin="57" yMin="-39" xMax="477" yMax="1739">
      <component glyphName="S" x="0" y="0" flags="0x204"/>
      <component glyphName="circumflex" x="76" y="475" scalex="0.895935058594" scaley="0.894348144531" flags="0x4"/>
    </TTGlyph>
    <TTGlyph name="T" xMin="29" yMin="8" xMax="539" yMax="1503">
      <contour>
        <pt x="346" y="1370" on="1"/>
        <pt x="346" y="113" on="1"/>
        <pt x="346" y="103" on="0"/>
        <pt x="354" y="78" on="0"/>
        <pt x="368" y="57" on="0"/>
        <pt x="388" y="43" on="0"/>
        <pt x="399" y="43" on="1"/>
        <pt x="457" y="43" on="1"/>
        <pt x="457" y="8" on="1"/>
        <pt x="131" y="8" on="1"/>
        <pt x="131" y="43" on="1"/>
        <pt x="188" y="43" on="1"/>
        <pt x="200" y="43" on="0"/>
        <pt x="220" y="58" on="0"/>
        <pt x="235" y="80" on="0"/>
        <pt x="244" y="105" on="0"/>
        <pt x="244" y="115" on="1"/>
        <pt x="244" y="1370" on="1"/>
        <pt x="135" y="1370" on="1"/>
        <pt x="98" y="1370" on="0"/>
        <pt x="63" y="1322" on="0"/>
        <pt x="63" y="1288" on="1"/>
        <pt x="63" y="1137" on="1"/>
        <pt x="29" y="1137" on="1"/>
        <pt x="29" y="1493" on="1"/>
        <pt x="63" y="1493" on="1"/>
        <pt x="63" y="1417" on="1"/>
        <pt x="504" y="1417" on="1"/>
        <pt x="504" y="1503" on="1"/>
        <pt x="539" y="1503" on="1"/>
        <pt x="539" y="1149" on="1"/>
        <pt x="504" y="1149" on="1"/>
        <pt x="504" y="1286" on="1"/>
        <pt x="504" y="1302" on="0"/>
        <pt x="497" y="1332" on="0"/>
        <pt x="482" y="1356" on="0"/>
        <pt x="456" y="1370" on="0"/>
        <pt x="438" y="1370" on="1"/>
      </contour>
    </TTGlyph>
    <TTGlyph name="Tbar" xMin="29" yMin="8" xMax="539" yMax="1503">
      <contour>
        <pt x="346" y="1370" on="1"/>
        <pt x="346" y="756" on="1"/>
        <pt x="489" y="756" on="1"/>
        <pt x="489" y="684" on="1"/>
        <pt x="346" y="684" on="1"/>
        <pt x="346" y="113" on="1"/>
        <pt x="346" y="103" on="0"/>
        <pt x="354" y="78" on="0"/>
        <pt x="368" y="57" on="0"/>
        <pt x="388" y="43" on="0"/>
        <pt x="399" y="43" on="1"/>
        <pt x="457" y="43" on="1"/>
        <pt x="457" y="8" on="1"/>
        <pt x="131" y="8" on="1"/>
        <pt x="131" y="43" on="1"/>
        <pt x="188" y="43" on="1"/>
        <pt x="200" y="43" on="0"/>
        <pt x="220" y="58" on="0"/>
        <pt x="235" y="80" on="0"/>
        <pt x="244" y="105" on="0"/>
        <pt x="244" y="115" on="1"/>
        <pt x="244" y="684" on="1"/>
        <pt x="80" y="684" on="1"/>
        <pt x="80" y="756" on="1"/>
        <pt x="244" y="756" on="1"/>
        <pt x="244" y="1370" on="1"/>
        <pt x="135" y="1370" on="1"/>
        <pt x="98" y="1370" on="0"/>
        <pt x="63" y="1322" on="0"/>
        <pt x="63" y="1288" on="1"/>
        <pt x="63" y="1137" on="1"/>
        <pt x="29" y="1137" on="1"/>
        <pt x="29" y="1493" on="1"/>
        <pt x="63" y="1493" on="1"/>
        <pt x="63" y="1417" on="1"/>
        <pt x="504" y="1417" on="1"/>
        <pt x="504" y="1503" on="1"/>
        <pt x="539" y="1503" on="1"/>
        <pt x="539" y="1149" on="1"/>
        <pt x="504" y="1149" on="1"/>
        <pt x="504" y="1286" on="1"/>
        <pt x="504" y="1302" on="0"/>
        <pt x="497" y="1332" on="0"/>
        <pt x="482" y="1356" on="0"/>
        <pt x="456" y="1370" on="0"/>
        <pt x="438" y="1370" on="1"/>
      </contour>
    </TTGlyph>
    <TTGlyph name="Tcaron" xMin="29" yMin="8" xMax="539" yMax="1769">
      <component glyphName="T" x="0" y="0" flags="0x204"/>
      <component glyphName="caron" x="117" y="356" flags="0x4"/>
    </TTGlyph>
    <TTGlyph name="Tcommaaccent" xMin="29" yMin="-387" xMax="539" yMax="1503">
      <component glyphName="T" x="0" y="0" flags="0x204"/>
      <component glyphName="uni0326" x="170" y="0" flags="0x4"/>
    </TTGlyph>
    <TTGlyph name="Thorn" xMin="20" yMin="23" xMax="545" yMax="1434">
      <contour>
        <pt x="250" y="1145" on="1"/>
        <pt x="333" y="1142" on="0"/>
        <pt x="446" y="1081" on="0"/>
        <pt x="515" y="980" on="0"/>
        <pt x="545" y="845" on="0"/>
        <pt x="545" y="768" on="1"/>
        <pt x="545" y="689" on="0"/>
        <pt x="511" y="552" on="0"/>
        <pt x="438" y="449" on="0"/>
        <pt x="321" y="383" on="0"/>
        <pt x="238" y="375" on="1"/>
        <pt x="233" y="137" on="1"/>
        <pt x="232" y="126" on="0"/>
        <pt x="241" y="104" on="0"/>
        <pt x="256" y="84" on="0"/>
        <pt x="277" y="72" on="0"/>
        <pt x="289" y="72" on="1"/>
        <pt x="303" y="72" on="0"/>
        <pt x="332" y="74" on="0"/>
        <pt x="346" y="76" on="1"/>
        <pt x="348" y="39" on="1"/>
        <pt x="20" y="23" on="1"/>
        <pt x="20" y="59" on="1"/>
        <pt x="34" y="59" on="0"/>
        <pt x="64" y="59" on="0"/>
        <pt x="78" y="61" on="1"/>
        <pt x="90" y="62" on="0"/>
        <pt x="110" y="77" on="0"/>
        <pt x="124" y="98" on="0"/>
        <pt x="132" y="123" on="0"/>
        <pt x="133" y="133" on="1"/>
        <pt x="152" y="1333" on="1"/>
        <pt x="152" y="1361" on="0"/>
        <pt x="129" y="1388" on="0"/>
        <pt x="94" y="1398" on="0"/>
        <pt x="52" y="1397" on="0"/>
        <pt x="33" y="1397" on="1"/>
        <pt x="33" y="1434" on="1"/>
        <pt x="254" y="1432" on="1"/>
      </contour>
      <contour>
        <pt x="446" y="786" on="1"/>
        <pt x="446" y="834" on="0"/>
        <pt x="429" y="939" on="0"/>
        <pt x="384" y="1030" on="0"/>
        <pt x="307" y="1093" on="0"/>
        <pt x="248" y="1098" on="1"/>
        <pt x="238" y="408" on="1"/>
        <pt x="303" y="418" on="0"/>
        <pt x="385" y="498" on="0"/>
        <pt x="430" y="608" on="0"/>
        <pt x="446" y="732" on="0"/>
      </contour>
    </TTGlyph>
    <TTGlyph name="U" xMin="12" yMin="-14" xMax="725" yMax="1427">
      <contour>
        <pt x="725" y="1313" on="1"/>
        <pt x="676" y="1313" on="1"/>
        <pt x="638" y="1313" on="0"/>
        <pt x="590" y="1273" on="0"/>
        <pt x="590" y="1231" on="1"/>
        <pt x="590" y="485" on="1"/>
        <pt x="590" y="449" on="0"/>
        <pt x="586" y="347" on="0"/>
        <pt x="571" y="236" on="0"/>
        <pt x="542" y="127" on="0"/>
        <pt x="493" y="40" on="0"/>
        <pt x="420" y="-14" on="0"/>
        <pt x="369" y="-14" on="1"/>
        <pt x="309" y="-14" on="0"/>
        <pt x="228" y="52" on="0"/>
        <pt x="174" y="157" on="0"/>
        <pt x="145" y="288" on="0"/>
        <pt x="131" y="421" on="0"/>
        <pt x="129" y="541" on="0"/>
        <pt x="129" y="582" on="1"/>
        <pt x="129" y="1333" on="1"/>
        <pt x="129" y="1360" on="0"/>
        <pt x="107" y="1386" on="0"/>
        <pt x="72" y="1395" on="0"/>
        <pt x="31" y="1394" on="0"/>
        <pt x="12" y="1393" on="1"/>
        <pt x="12" y="1427" on="1"/>
        <pt x="338" y="1427" on="1"/>
        <pt x="338" y="1393" on="1"/>
        <pt x="324" y="1393" on="0"/>
        <pt x="297" y="1395" on="0"/>
        <pt x="283" y="1395" on="1"/>
        <pt x="252" y="1395" on="0"/>
        <pt x="229" y="1366" on="0"/>
        <pt x="229" y="1335" on="1"/>
        <pt x="229" y="551" on="1"/>
        <pt x="229" y="523" on="0"/>
        <pt x="229" y="425" on="0"/>
        <pt x="236" y="310" on="0"/>
        <pt x="253" y="191" on="0"/>
        <pt x="289" y="94" on="0"/>
        <pt x="346" y="33" on="0"/>
        <pt x="389" y="33" on="1"/>
        <pt x="426" y="33" on="0"/>
        <pt x="479" y="86" on="0"/>
        <pt x="515" y="169" on="0"/>
        <pt x="536" y="271" on="0"/>
        <pt x="546" y="372" on="0"/>
        <pt x="549" y="459" on="0"/>
        <pt x="549" y="485" on="1"/>
        <pt x="549" y="1243" on="1"/>
        <pt x="549" y="1274" on="0"/>
        <pt x="525" y="1303" on="0"/>
        <pt x="487" y="1314" on="0"/>
        <pt x="443" y="1313" on="0"/>
        <pt x="422" y="1313" on="1"/>
        <pt x="422" y="1348" on="1"/>
        <pt x="725" y="1348" on="1"/>
      </contour>
    </TTGlyph>
    <TTGlyph name="Uacute" xMin="12" yMin="-14" xMax="725" yMax="1696">
      <component glyphName="U" x="0" y="0" flags="0x204"/>
      <component glyphName="acute" x="397" y="252" flags="0x4"/>
    </TTGlyph>
    <TTGlyph name="Ubreve" xMin="12" yMin="-14" xMax="725" yMax="1700">
      <component glyphName="U" x="0" y="0" flags="0x204"/>
      <component glyphName="breve" x="199" y="301" flags="0x4"/>
    </TTGlyph>
    <TTGlyph name="Ucircumflex" xMin="12" yMin="-14" xMax="725" yMax="1757">
      <component glyphName="U" x="0" y="0" flags="0x204"/>
      <component glyphName="circumflex" x="190" y="344" flags="0x4"/>
    </TTGlyph>
    <TTGlyph name="Udieresis" xMin="12" yMin="-14" xMax="725" yMax="1591">
      <component glyphName="U" x="0" y="0" flags="0x204"/>
      <component glyphName="dieresis" x="223" y="225" flags="0x4"/>
    </TTGlyph>
    <TTGlyph name="Ugrave" xMin="12" yMin="-14" xMax="725" yMax="1714">
      <component glyphName="U" x="0" y="0" flags="0x204"/>
      <component glyphName="grave" x="131" y="270" flags="0x4"/>
    </TTGlyph>
    <TTGlyph name="Uhungarumlaut" xMin="12" yMin="-14" xMax="764" yMax="1770">
      <component glyphName="U" x="0" y="0" flags="0x204"/>
      <component glyphName="hungarumlaut" x="287" y="326" flags="0x4"/>
    </TTGlyph>
    <TTGlyph name="Umacron" xMin="12" yMin="-14" xMax="725" yMax="1546">
      <component glyphName="U" x="0" y="0" flags="0x204"/>
      <component glyphName="macron" x="168" y="209" flags="0x4"/>
    </TTGlyph>
    <TTGlyph name="Uogonek" xMin="12" yMin="-250" xMax="725" yMax="1427">
      <contour>
        <pt x="463" y="-209" on="1"/>
        <pt x="447" y="-227" on="0"/>
        <pt x="393" y="-250" on="0"/>
        <pt x="369" y="-250" on="1"/>
        <pt x="319" y="-250" on="0"/>
        <pt x="258" y="-192" on="0"/>
        <pt x="258" y="-141" on="1"/>
        <pt x="258" y="-103" on="0"/>
        <pt x="304" y="-34" on="0"/>
        <pt x="338" y="-12" on="1"/>
        <pt x="286" y="-3" on="0"/>
        <pt x="215" y="70" on="0"/>
        <pt x="169" y="175" on="0"/>
        <pt x="143" y="302" on="0"/>
        <pt x="131" y="429" on="0"/>
        <pt x="129" y="543" on="0"/>
        <pt x="129" y="582" on="1"/>
        <pt x="129" y="1333" on="1"/>
        <pt x="129" y="1360" on="0"/>
        <pt x="107" y="1386" on="0"/>
        <pt x="72" y="1395" on="0"/>
        <pt x="31" y="1394" on="0"/>
        <pt x="12" y="1393" on="1"/>
        <pt x="12" y="1427" on="1"/>
        <pt x="338" y="1427" on="1"/>
        <pt x="338" y="1393" on="1"/>
        <pt x="324" y="1393" on="0"/>
        <pt x="297" y="1395" on="0"/>
        <pt x="283" y="1395" on="1"/>
        <pt x="252" y="1395" on="0"/>
        <pt x="229" y="1366" on="0"/>
        <pt x="229" y="1335" on="1"/>
        <pt x="229" y="551" on="1"/>
        <pt x="229" y="523" on="0"/>
        <pt x="229" y="425" on="0"/>
        <pt x="236" y="310" on="0"/>
        <pt x="253" y="191" on="0"/>
        <pt x="289" y="94" on="0"/>
        <pt x="346" y="33" on="0"/>
        <pt x="389" y="33" on="1"/>
        <pt x="426" y="33" on="0"/>
        <pt x="479" y="86" on="0"/>
        <pt x="515" y="169" on="0"/>
        <pt x="536" y="271" on="0"/>
        <pt x="546" y="372" on="0"/>
        <pt x="549" y="459" on="0"/>
        <pt x="549" y="485" on="1"/>
        <pt x="549" y="1243" on="1"/>
        <pt x="549" y="1274" on="0"/>
        <pt x="525" y="1303" on="0"/>
        <pt x="487" y="1314" on="0"/>
        <pt x="443" y="1313" on="0"/>
        <pt x="422" y="1313" on="1"/>
        <pt x="422" y="1348" on="1"/>
        <pt x="725" y="1348" on="1"/>
        <pt x="725" y="1313" on="1"/>
        <pt x="676" y="1313" on="1"/>
        <pt x="638" y="1313" on="0"/>
        <pt x="590" y="1273" on="0"/>
        <pt x="590" y="1231" on="1"/>
        <pt x="590" y="485" on="1"/>
        <pt x="590" y="449" on="0"/>
        <pt x="586" y="350" on="0"/>
        <pt x="572" y="242" on="0"/>
        <pt x="545" y="135" on="0"/>
        <pt x="499" y="48" on="0"/>
        <pt x="431" y="-9" on="0"/>
        <pt x="383" y="-12" on="1"/>
        <pt x="371" y="-22" on="0"/>
        <pt x="351" y="-50" on="0"/>
        <pt x="335" y="-81" on="0"/>
        <pt x="326" y="-113" on="0"/>
        <pt x="326" y="-127" on="1"/>
        <pt x="326" y="-164" on="0"/>
        <pt x="366" y="-209" on="0"/>
        <pt x="391" y="-209" on="1"/>
        <pt x="407" y="-209" on="0"/>
        <pt x="438" y="-196" on="0"/>
        <pt x="449" y="-188" on="1"/>
      </contour>
    </TTGlyph>
    <TTGlyph name="Uring" xMin="12" yMin="-14" xMax="725" yMax="1675">
      <component glyphName="U" x="0" y="0" flags="0x204"/>
      <component glyphName="ring" x="256" y="260" flags="0x4"/>
    </TTGlyph>
    <TTGlyph name="Utilde" xMin="12" yMin="-14" xMax="725" yMax="1685">
      <component glyphName="U" x="0" y="0" flags="0x204"/>
      <component glyphName="tilde" x="150" y="301" flags="0x4"/>
    </TTGlyph>
    <TTGlyph name="V" xMin="-2" yMin="-27" xMax="766" yMax="1446">
      <contour>
        <pt x="766" y="1407" on="1"/>
        <pt x="766" y="1372" on="1"/>
        <pt x="705" y="1372" on="1"/>
        <pt x="686" y="1372" on="0"/>
        <pt x="652" y="1359" on="0"/>
        <pt x="625" y="1336" on="0"/>
        <pt x="607" y="1306" on="0"/>
        <pt x="604" y="1288" on="1"/>
        <pt x="416" y="72" on="1"/>
        <pt x="416" y="61" on="1"/>
        <pt x="416" y="37" on="0"/>
        <pt x="436" y="15" on="0"/>
        <pt x="466" y="7" on="0"/>
        <pt x="503" y="8" on="0"/>
        <pt x="520" y="8" on="1"/>
        <pt x="520" y="-27" on="1"/>
        <pt x="193" y="-27" on="1"/>
        <pt x="195" y="8" on="1"/>
        <pt x="236" y="8" on="1"/>
        <pt x="265" y="8" on="0"/>
        <pt x="295" y="29" on="0"/>
        <pt x="295" y="61" on="1"/>
        <pt x="295" y="76" on="1"/>
        <pt x="119" y="1343" on="1"/>
        <pt x="114" y="1374" on="0"/>
        <pt x="93" y="1403" on="0"/>
        <pt x="62" y="1413" on="0"/>
        <pt x="22" y="1411" on="0"/>
        <pt x="-2" y="1411" on="1"/>
        <pt x="-2" y="1446" on="1"/>
        <pt x="317" y="1446" on="1"/>
        <pt x="319" y="1411" on="1"/>
        <pt x="293" y="1411" on="1"/>
        <pt x="256" y="1411" on="0"/>
        <pt x="217" y="1388" on="0"/>
        <pt x="217" y="1348" on="1"/>
        <pt x="217" y="1337" on="1"/>
        <pt x="383" y="125" on="1"/>
        <pt x="563" y="1290" on="1"/>
        <pt x="563" y="1295" on="0"/>
        <pt x="565" y="1301" on="0"/>
        <pt x="565" y="1305" on="1"/>
        <pt x="565" y="1334" on="0"/>
        <pt x="540" y="1362" on="0"/>
        <pt x="501" y="1373" on="0"/>
        <pt x="455" y="1372" on="0"/>
        <pt x="434" y="1372" on="1"/>
        <pt x="434" y="1409" on="1"/>
      </contour>
    </TTGlyph>
    <TTGlyph name="W" xMin="0" yMin="-4" xMax="819" yMax="1489">
      <contour>
        <pt x="819" y="1489" on="1"/>
        <pt x="819" y="1454" on="1"/>
        <pt x="754" y="1454" on="1"/>
        <pt x="720" y="1452" on="0"/>
        <pt x="675" y="1399" on="0"/>
        <pt x="672" y="1368" on="1"/>
        <pt x="590" y="182" on="1"/>
        <pt x="590" y="174" on="1"/>
        <pt x="589" y="162" on="0"/>
        <pt x="598" y="134" on="0"/>
        <pt x="614" y="109" on="0"/>
        <pt x="637" y="92" on="0"/>
        <pt x="651" y="92" on="1"/>
        <pt x="735" y="90" on="1"/>
        <pt x="733" y="55" on="1"/>
        <pt x="652" y="57" on="0"/>
        <pt x="489" y="59" on="0"/>
        <pt x="408" y="57" on="1"/>
        <pt x="408" y="94" on="1"/>
        <pt x="473" y="92" on="1"/>
        <pt x="490" y="92" on="0"/>
        <pt x="504" y="125" on="0"/>
        <pt x="504" y="139" on="1"/>
        <pt x="504" y="140" on="0"/>
        <pt x="503" y="148" on="0"/>
        <pt x="497" y="189" on="0"/>
        <pt x="485" y="275" on="0"/>
        <pt x="462" y="432" on="0"/>
        <pt x="427" y="674" on="0"/>
        <pt x="401" y="850" on="1"/>
        <pt x="313" y="84" on="1"/>
        <pt x="313" y="78" on="1"/>
        <pt x="311" y="57" on="0"/>
        <pt x="336" y="38" on="0"/>
        <pt x="372" y="30" on="0"/>
        <pt x="411" y="31" on="0"/>
        <pt x="424" y="31" on="1"/>
        <pt x="422" y="-4" on="1"/>
        <pt x="96" y="-2" on="1"/>
        <pt x="96" y="33" on="1"/>
        <pt x="168" y="33" on="1"/>
        <pt x="213" y="33" on="0"/>
        <pt x="213" y="74" on="1"/>
        <pt x="213" y="76" on="0"/>
        <pt x="211" y="81" on="0"/>
        <pt x="211" y="84" on="1"/>
        <pt x="121" y="1255" on="1"/>
        <pt x="116" y="1289" on="0"/>
        <pt x="103" y="1322" on="0"/>
        <pt x="77" y="1334" on="0"/>
        <pt x="34" y="1333" on="0"/>
        <pt x="0" y="1333" on="1"/>
        <pt x="0" y="1370" on="1"/>
        <pt x="328" y="1366" on="1"/>
        <pt x="328" y="1331" on="1"/>
        <pt x="264" y="1331" on="1"/>
        <pt x="252" y="1331" on="0"/>
        <pt x="235" y="1318" on="0"/>
        <pt x="225" y="1298" on="0"/>
        <pt x="221" y="1276" on="0"/>
        <pt x="221" y="1266" on="1"/>
        <pt x="221" y="1255" on="1"/>
        <pt x="295" y="229" on="1"/>
        <pt x="399" y="1149" on="1"/>
        <pt x="436" y="1149" on="1"/>
        <pt x="565" y="264" on="1"/>
        <pt x="635" y="1356" on="1"/>
        <pt x="635" y="1372" on="1"/>
        <pt x="633" y="1406" on="0"/>
        <pt x="607" y="1441" on="0"/>
        <pt x="568" y="1454" on="0"/>
        <pt x="519" y="1453" on="0"/>
        <pt x="492" y="1452" on="1"/>
        <pt x="494" y="1489" on="1"/>
      </contour>
    </TTGlyph>
    <TTGlyph name="Wacute" xMin="0" yMin="-4" xMax="819" yMax="1735">
      <component glyphName="W" x="0" y="0" flags="0x204"/>
      <component glyphName="acute" x="362" y="291" flags="0x4"/>
    </TTGlyph>
    <TTGlyph name="Wcircumflex" xMin="0" yMin="-4" xMax="819" yMax="1814">
      <component glyphName="W" x="0" y="0" flags="0x204"/>
      <component glyphName="circumflex" x="225" y="401" flags="0x4"/>
    </TTGlyph>
    <TTGlyph name="Wdieresis" xMin="0" yMin="-4" xMax="819" yMax="1667">
      <component glyphName="W" x="0" y="0" flags="0x204"/>
      <component glyphName="dieresis" x="258" y="301" flags="0x4"/>
    </TTGlyph>
    <TTGlyph name="Wgrave" xMin="0" yMin="-4" xMax="819" yMax="1710">
      <component glyphName="W" x="0" y="0" flags="0x204"/>
      <component glyphName="grave" x="145" y="266" flags="0x4"/>
    </TTGlyph>
    <TTGlyph name="X" xMin="-10" yMin="-6" xMax="745" yMax="1497">
      <contour>
        <pt x="147" y="1337" on="1"/>
        <pt x="142" y="1362" on="0"/>
        <pt x="122" y="1385" on="0"/>
        <pt x="94" y="1393" on="0"/>
        <pt x="57" y="1391" on="0"/>
        <pt x="35" y="1391" on="1"/>
        <pt x="35" y="1425" on="1"/>
        <pt x="362" y="1421" on="1"/>
        <pt x="362" y="1386" on="1"/>
        <pt x="299" y="1386" on="1"/>
        <pt x="287" y="1386" on="0"/>
        <pt x="270" y="1375" on="0"/>
        <pt x="259" y="1357" on="0"/>
        <pt x="254" y="1335" on="0"/>
        <pt x="254" y="1325" on="1"/>
        <pt x="254" y="1311" on="0"/>
        <pt x="315" y="1068" on="0"/>
        <pt x="371" y="844" on="1"/>
        <pt x="530" y="1382" on="1"/>
        <pt x="532" y="1390" on="0"/>
        <pt x="537" y="1406" on="0"/>
        <pt x="537" y="1415" on="1"/>
        <pt x="537" y="1432" on="0"/>
        <pt x="520" y="1462" on="0"/>
        <pt x="500" y="1462" on="1"/>
        <pt x="418" y="1462" on="1"/>
        <pt x="418" y="1497" on="1"/>
        <pt x="743" y="1497" on="1"/>
        <pt x="745" y="1462" on="1"/>
        <pt x="708" y="1462" on="0"/>
        <pt x="652" y="1464" on="0"/>
        <pt x="608" y="1451" on="0"/>
        <pt x="577" y="1415" on="0"/>
        <pt x="565" y="1376" on="1"/>
        <pt x="387" y="776" on="1"/>
        <pt x="422" y="639" on="0"/>
        <pt x="505" y="304" on="0"/>
        <pt x="555" y="104" on="1"/>
        <pt x="562" y="75" on="0"/>
        <pt x="577" y="46" on="0"/>
        <pt x="601" y="34" on="0"/>
        <pt x="639" y="33" on="0"/>
        <pt x="668" y="33" on="1"/>
        <pt x="668" y="-4" on="1"/>
        <pt x="340" y="-2" on="1"/>
        <pt x="342" y="33" on="1"/>
        <pt x="414" y="33" on="1"/>
        <pt x="431" y="33" on="0"/>
        <pt x="457" y="50" on="0"/>
        <pt x="457" y="70" on="1"/>
        <pt x="457" y="73" on="0"/>
        <pt x="457" y="81" on="0"/>
        <pt x="455" y="84" on="1"/>
        <pt x="332" y="586" on="1"/>
        <pt x="299" y="475" on="0"/>
        <pt x="244" y="294" on="0"/>
        <pt x="205" y="162" on="0"/>
        <pt x="184" y="86" on="0"/>
        <pt x="184" y="82" on="1"/>
        <pt x="184" y="62" on="0"/>
        <pt x="208" y="31" on="0"/>
        <pt x="229" y="31" on="1"/>
        <pt x="297" y="31" on="1"/>
        <pt x="297" y="-4" on="1"/>
        <pt x="-8" y="-6" on="1"/>
        <pt x="-10" y="29" on="1"/>
        <pt x="18" y="29" on="0"/>
        <pt x="69" y="28" on="0"/>
        <pt x="110" y="39" on="0"/>
        <pt x="142" y="70" on="0"/>
        <pt x="152" y="102" on="1"/>
        <pt x="315" y="653" on="1"/>
      </contour>
    </TTGlyph>
    <TTGlyph name="Y" xMin="-4" yMin="-27" xMax="698" yMax="1440">
      <contour>
        <pt x="526" y="1325" on="1"/>
        <pt x="528" y="1333" on="0"/>
        <pt x="530" y="1349" on="0"/>
        <pt x="530" y="1358" on="1"/>
        <pt x="530" y="1366" on="0"/>
        <pt x="527" y="1383" on="0"/>
        <pt x="518" y="1396" on="0"/>
        <pt x="504" y="1404" on="0"/>
        <pt x="494" y="1403" on="1"/>
        <pt x="414" y="1403" on="1"/>
        <pt x="414" y="1438" on="1"/>
        <pt x="698" y="1440" on="1"/>
        <pt x="698" y="1405" on="1"/>
        <pt x="677" y="1405" on="0"/>
        <pt x="638" y="1407" on="0"/>
        <pt x="602" y="1395" on="0"/>
        <pt x="572" y="1358" on="0"/>
        <pt x="561" y="1319" on="1"/>
        <pt x="371" y="604" on="1"/>
        <pt x="371" y="569" on="1"/>
        <pt x="354" y="94" on="1"/>
        <pt x="354" y="82" on="0"/>
        <pt x="363" y="52" on="0"/>
        <pt x="379" y="26" on="0"/>
        <pt x="402" y="8" on="0"/>
        <pt x="416" y="8" on="1"/>
        <pt x="467" y="8" on="1"/>
        <pt x="465" y="-27" on="1"/>
        <pt x="139" y="-27" on="1"/>
        <pt x="139" y="10" on="1"/>
        <pt x="197" y="8" on="1"/>
        <pt x="210" y="8" on="0"/>
        <pt x="231" y="25" on="0"/>
        <pt x="246" y="51" on="0"/>
        <pt x="254" y="79" on="0"/>
        <pt x="254" y="90" on="1"/>
        <pt x="270" y="590" on="1"/>
        <pt x="270" y="625" on="0"/>
        <pt x="264" y="655" on="1"/>
        <pt x="109" y="1294" on="1"/>
        <pt x="103" y="1319" on="0"/>
        <pt x="83" y="1344" on="0"/>
        <pt x="55" y="1355" on="0"/>
        <pt x="18" y="1356" on="0"/>
        <pt x="-4" y="1356" on="1"/>
        <pt x="-2" y="1382" on="1"/>
        <pt x="324" y="1378" on="1"/>
        <pt x="324" y="1343" on="1"/>
        <pt x="260" y="1343" on="1"/>
        <pt x="237" y="1343" on="0"/>
        <pt x="215" y="1311" on="0"/>
        <pt x="215" y="1288" on="1"/>
        <pt x="215" y="1283" on="0"/>
        <pt x="215" y="1274" on="0"/>
        <pt x="217" y="1268" on="1"/>
        <pt x="356" y="702" on="1"/>
      </contour>
    </TTGlyph>
    <TTGlyph name="Yacute" xMin="-4" yMin="-27" xMax="698" yMax="1712">
      <component glyphName="Y" x="0" y="0" flags="0x204"/>
      <component glyphName="acute" x="332" y="268" flags="0x4"/>
    </TTGlyph>
    <TTGlyph name="Ycircumflex" xMin="-4" yMin="-27" xMax="698" yMax="1759">
      <component glyphName="Y" x="0" y="0" flags="0x204"/>
      <component glyphName="circumflex" x="147" y="346" flags="0x4"/>
    </TTGlyph>
    <TTGlyph name="Ydieresis" xMin="-4" yMin="-27" xMax="698" yMax="1608">
      <component glyphName="Y" x="0" y="0" flags="0x204"/>
      <component glyphName="dieresis" x="203" y="242" flags="0x4"/>
    </TTGlyph>
    <TTGlyph name="Ygrave" xMin="-4" yMin="-27" xMax="698" yMax="1725">
      <component glyphName="Y" x="0" y="0" flags="0x204"/>
      <component glyphName="grave" x="68" y="281" flags="0x4"/>
    </TTGlyph>
    <TTGlyph name="Z" xMin="39" yMin="-12" xMax="596" yMax="1364">
      <contour>
        <pt x="596" y="1329" on="1"/>
        <pt x="575" y="1329" on="0"/>
        <pt x="544" y="1329" on="0"/>
        <pt x="521" y="1320" on="0"/>
        <pt x="504" y="1298" on="0"/>
        <pt x="498" y="1276" on="1"/>
        <pt x="156" y="29" on="1"/>
        <pt x="410" y="41" on="1"/>
        <pt x="455" y="43" on="0"/>
        <pt x="500" y="100" on="0"/>
        <pt x="500" y="143" on="1"/>
        <pt x="500" y="193" on="0"/>
        <pt x="498" y="290" on="0"/>
        <pt x="496" y="340" on="1"/>
        <pt x="530" y="342" on="1"/>
        <pt x="539" y="10" on="1"/>
        <pt x="39" y="-12" on="1"/>
        <pt x="414" y="1327" on="1"/>
        <pt x="160" y="1325" on="1"/>
        <pt x="145" y="1325" on="0"/>
        <pt x="119" y="1309" on="0"/>
        <pt x="100" y="1284" on="0"/>
        <pt x="90" y="1254" on="0"/>
        <pt x="90" y="1241" on="1"/>
        <pt x="90" y="1020" on="1"/>
        <pt x="55" y="1020" on="1"/>
        <pt x="57" y="1360" on="1"/>
        <pt x="596" y="1364" on="1"/>
      </contour>
    </TTGlyph>
    <TTGlyph name="Zacute" xMin="39" yMin="-12" xMax="596" yMax="1700">
      <component glyphName="Z" x="0" y="0" flags="0x204"/>
      <component glyphName="acute" x="283" y="256" flags="0x4"/>
    </TTGlyph>
    <TTGlyph name="Zcaron" xMin="39" yMin="-12" xMax="596" yMax="1700">
      <component glyphName="Z" x="0" y="0" flags="0x204"/>
      <component glyphName="caron" x="139" y="287" flags="0x4"/>
    </TTGlyph>
    <TTGlyph name="Zdotaccent" xMin="39" yMin="-12" xMax="596" yMax="1544">
      <component glyphName="Z" x="0" y="0" flags="0x204"/>
      <component glyphName="dotaccent" x="244" y="178" flags="0x4"/>
    </TTGlyph>
    <TTGlyph name="a" xMin="41" yMin="139" xMax="549" yMax="1069">
      <contour>
        <pt x="346" y="248" on="1"/>
        <pt x="334" y="227" on="0"/>
        <pt x="294" y="191" on="0"/>
        <pt x="248" y="163" on="0"/>
        <pt x="198" y="147" on="0"/>
        <pt x="176" y="147" on="1"/>
        <pt x="142" y="147" on="0"/>
        <pt x="92" y="176" on="0"/>
        <pt x="58" y="223" on="0"/>
        <pt x="41" y="282" on="0"/>
        <pt x="41" y="313" on="1"/>
        <pt x="41" y="371" on="0"/>
        <pt x="91" y="460" on="0"/>
        <pt x="165" y="534" on="0"/>
        <pt x="253" y="602" on="0"/>
        <pt x="327" y="680" on="0"/>
        <pt x="377" y="774" on="0"/>
        <pt x="377" y="838" on="1"/>
        <pt x="378" y="869" on="0"/>
        <pt x="364" y="937" on="0"/>
        <pt x="329" y="994" on="0"/>
        <pt x="275" y="1030" on="0"/>
        <pt x="238" y="1030" on="1"/>
        <pt x="198" y="1030" on="0"/>
        <pt x="147" y="992" on="0"/>
        <pt x="117" y="933" on="0"/>
        <pt x="106" y="860" on="0"/>
        <pt x="106" y="825" on="1"/>
        <pt x="106" y="811" on="0"/>
        <pt x="110" y="769" on="0"/>
        <pt x="120" y="730" on="0"/>
        <pt x="137" y="702" on="0"/>
        <pt x="150" y="702" on="1"/>
        <pt x="164" y="702" on="0"/>
        <pt x="181" y="720" on="0"/>
        <pt x="190" y="745" on="0"/>
        <pt x="191" y="773" on="0"/>
        <pt x="190" y="784" on="1"/>
        <pt x="225" y="786" on="1"/>
        <pt x="226" y="763" on="0"/>
        <pt x="219" y="720" on="0"/>
        <pt x="201" y="686" on="0"/>
        <pt x="171" y="666" on="0"/>
        <pt x="150" y="666" on="1"/>
        <pt x="121" y="666" on="0"/>
        <pt x="82" y="699" on="0"/>
        <pt x="60" y="748" on="0"/>
        <pt x="51" y="804" on="0"/>
        <pt x="51" y="827" on="1"/>
        <pt x="51" y="872" on="0"/>
        <pt x="75" y="958" on="0"/>
        <pt x="123" y="1027" on="0"/>
        <pt x="197" y="1069" on="0"/>
        <pt x="248" y="1069" on="1"/>
        <pt x="312" y="1069" on="0"/>
        <pt x="396" y="1007" on="0"/>
        <pt x="446" y="912" on="0"/>
        <pt x="467" y="801" on="0"/>
        <pt x="467" y="752" on="1"/>
        <pt x="467" y="625" on="0"/>
        <pt x="449" y="374" on="0"/>
        <pt x="449" y="246" on="1"/>
        <pt x="449" y="218" on="0"/>
        <pt x="463" y="189" on="0"/>
        <pt x="489" y="177" on="0"/>
        <pt x="526" y="175" on="0"/>
        <pt x="549" y="174" on="1"/>
        <pt x="549" y="139" on="1"/>
        <pt x="496" y="141" on="0"/>
        <pt x="393" y="144" on="0"/>
        <pt x="342" y="147" on="1"/>
      </contour>
      <contour>
        <pt x="231" y="211" on="1"/>
        <pt x="245" y="211" on="0"/>
        <pt x="278" y="226" on="0"/>
        <pt x="310" y="253" on="0"/>
        <pt x="339" y="288" on="0"/>
        <pt x="350" y="309" on="1"/>
        <pt x="369" y="670" on="1"/>
        <pt x="340" y="630" on="0"/>
        <pt x="263" y="551" on="0"/>
        <pt x="194" y="469" on="0"/>
        <pt x="145" y="381" on="0"/>
        <pt x="145" y="332" on="1"/>
        <pt x="145" y="314" on="0"/>
        <pt x="155" y="271" on="0"/>
        <pt x="176" y="235" on="0"/>
        <pt x="209" y="211" on="0"/>
      </contour>
    </TTGlyph>
    <TTGlyph name="aacute" xMin="41" yMin="139" xMax="549" yMax="1402">
      <component glyphName="a" x="0" y="0" flags="0x204"/>
      <component glyphName="acute" x="238" y="-42" flags="0x4"/>
    </TTGlyph>
    <TTGlyph name="abreve" xMin="41" yMin="139" xMax="549" yMax="1349">
      <component glyphName="a" x="0" y="0" flags="0x204"/>
      <component glyphName="breve" x="117" y="-50" flags="0x4"/>
    </TTGlyph>
    <TTGlyph name="acircumflex" xMin="41" yMin="139" xMax="549" yMax="1381">
      <component glyphName="a" x="0" y="0" flags="0x204"/>
      <component glyphName="circumflex" x="82" y="-32" flags="0x4"/>
    </TTGlyph>
    <TTGlyph name="acute" xMin="0" yMin="1155" xMax="279" yMax="1444">
      <contour>
        <pt x="190" y="1444" on="1"/>
        <pt x="279" y="1372" on="1"/>
        <pt x="16" y="1155" on="1"/>
        <pt x="0" y="1176" on="1"/>
      </contour>
    </TTGlyph>
    <TTGlyph name="adieresis" xMin="41" yMin="139" xMax="549" yMax="1232">
      <component glyphName="a" x="0" y="0" flags="0x204"/>
      <component glyphName="dieresis" x="94" y="-134" flags="0x4"/>
    </TTGlyph>
    <TTGlyph name="ae" xMin="41" yMin="141" xMax="748" yMax="1137">
      <contour>
        <pt x="485" y="711" on="1"/>
        <pt x="530" y="711" on="0"/>
        <pt x="587" y="708" on="0"/>
        <pt x="617" y="724" on="0"/>
        <pt x="626" y="768" on="0"/>
        <pt x="625" y="815" on="1"/>
        <pt x="659" y="815" on="1"/>
        <pt x="659" y="545" on="1"/>
        <pt x="625" y="545" on="1"/>
        <pt x="625" y="623" on="1"/>
        <pt x="625" y="631" on="0"/>
        <pt x="620" y="651" on="0"/>
        <pt x="610" y="668" on="0"/>
        <pt x="596" y="680" on="0"/>
        <pt x="586" y="680" on="1"/>
        <pt x="485" y="676" on="1"/>
        <pt x="496" y="279" on="1"/>
        <pt x="527" y="279" on="0"/>
        <pt x="585" y="279" on="0"/>
        <pt x="614" y="281" on="1"/>
        <pt x="633" y="282" on="0"/>
        <pt x="668" y="302" on="0"/>
        <pt x="695" y="332" on="0"/>
        <pt x="711" y="369" on="0"/>
        <pt x="711" y="387" on="1"/>
        <pt x="713" y="528" on="1"/>
        <pt x="748" y="528" on="1"/>
        <pt x="745" y="248" on="1"/>
        <pt x="688" y="247" on="0"/>
        <pt x="603" y="244" on="0"/>
        <pt x="524" y="241" on="0"/>
        <pt x="439" y="237" on="0"/>
        <pt x="381" y="236" on="1"/>
        <pt x="367" y="216" on="0"/>
        <pt x="324" y="178" on="0"/>
        <pt x="271" y="152" on="0"/>
        <pt x="209" y="141" on="0"/>
        <pt x="176" y="147" on="1"/>
        <pt x="110" y="160" on="0"/>
        <pt x="41" y="251" on="0"/>
        <pt x="41" y="313" on="1"/>
        <pt x="41" y="371" on="0"/>
        <pt x="91" y="460" on="0"/>
        <pt x="165" y="534" on="0"/>
        <pt x="253" y="602" on="0"/>
        <pt x="327" y="680" on="0"/>
        <pt x="377" y="774" on="0"/>
        <pt x="377" y="838" on="1"/>
        <pt x="375" y="869" on="0"/>
        <pt x="360" y="937" on="0"/>
        <pt x="327" y="994" on="0"/>
        <pt x="275" y="1030" on="0"/>
        <pt x="238" y="1030" on="1"/>
        <pt x="198" y="1030" on="0"/>
        <pt x="140" y="992" on="0"/>
        <pt x="103" y="933" on="0"/>
        <pt x="86" y="860" on="0"/>
        <pt x="86" y="825" on="1"/>
        <pt x="86" y="811" on="0"/>
        <pt x="91" y="769" on="0"/>
        <pt x="106" y="730" on="0"/>
        <pt x="130" y="702" on="0"/>
        <pt x="150" y="702" on="1"/>
        <pt x="164" y="702" on="0"/>
        <pt x="181" y="720" on="0"/>
        <pt x="190" y="745" on="0"/>
        <pt x="191" y="773" on="0"/>
        <pt x="190" y="784" on="1"/>
        <pt x="225" y="786" on="1"/>
        <pt x="226" y="763" on="0"/>
        <pt x="219" y="720" on="0"/>
        <pt x="201" y="686" on="0"/>
        <pt x="171" y="666" on="0"/>
        <pt x="150" y="666" on="1"/>
        <pt x="121" y="666" on="0"/>
        <pt x="82" y="699" on="0"/>
        <pt x="60" y="748" on="0"/>
        <pt x="51" y="804" on="0"/>
        <pt x="51" y="827" on="1"/>
        <pt x="51" y="872" on="0"/>
        <pt x="75" y="958" on="0"/>
        <pt x="123" y="1027" on="0"/>
        <pt x="197" y="1069" on="0"/>
        <pt x="248" y="1069" on="1"/>
        <pt x="288" y="1069" on="0"/>
        <pt x="352" y="1042" on="0"/>
        <pt x="375" y="1020" on="1"/>
        <pt x="374" y="1055" on="0"/>
        <pt x="373" y="1096" on="0"/>
        <pt x="373" y="1107" on="1"/>
        <pt x="373" y="1124" on="1"/>
        <pt x="723" y="1137" on="1"/>
        <pt x="725" y="852" on="1"/>
        <pt x="690" y="852" on="1"/>
        <pt x="688" y="1001" on="1"/>
        <pt x="688" y="1040" on="0"/>
        <pt x="655" y="1098" on="0"/>
        <pt x="610" y="1098" on="1"/>
        <pt x="576" y="1098" on="0"/>
        <pt x="511" y="1096" on="0"/>
        <pt x="477" y="1096" on="1"/>
      </contour>
      <contour>
        <pt x="381" y="690" on="1"/>
        <pt x="355" y="648" on="0"/>
        <pt x="274" y="565" on="0"/>
        <pt x="199" y="478" on="0"/>
        <pt x="145" y="384" on="0"/>
        <pt x="145" y="332" on="1"/>
        <pt x="145" y="314" on="0"/>
        <pt x="156" y="275" on="0"/>
        <pt x="177" y="241" on="0"/>
        <pt x="210" y="215" on="0"/>
        <pt x="231" y="211" on="1"/>
        <pt x="255" y="206" on="0"/>
        <pt x="302" y="219" on="0"/>
        <pt x="344" y="249" on="0"/>
        <pt x="378" y="290" on="0"/>
        <pt x="389" y="313" on="1"/>
      </contour>
    </TTGlyph>
    <TTGlyph name="aeacute" xMin="41" yMin="141" xMax="748" yMax="1469">
      <component glyphName="ae" x="0" y="0" flags="0x204"/>
      <component glyphName="acute" x="356" y="25" flags="0x4"/>
    </TTGlyph>
    <TTGlyph name="agrave" xMin="-17" yMin="139" xMax="549" yMax="1400">
      <component glyphName="a" x="0" y="0" flags="0x204"/>
      <component glyphName="grave" x="-17" y="-44" flags="0x4"/>
    </TTGlyph>
    <TTGlyph name="amacron" xMin="41" yMin="139" xMax="549" yMax="1199">
      <component glyphName="a" x="0" y="0" flags="0x204"/>
      <component glyphName="macron" x="86" y="-138" flags="0x4"/>
    </TTGlyph>
    <TTGlyph name="ampersand" xMin="47" yMin="-16" xMax="713" yMax="1206">
      <contour>
        <pt x="172" y="971" on="1"/>
        <pt x="172" y="1011" on="0"/>
        <pt x="188" y="1094" on="0"/>
        <pt x="225" y="1162" on="0"/>
        <pt x="288" y="1206" on="0"/>
        <pt x="336" y="1206" on="1"/>
        <pt x="377" y="1206" on="0"/>
        <pt x="438" y="1174" on="0"/>
        <pt x="477" y="1121" on="0"/>
        <pt x="496" y="1051" on="0"/>
        <pt x="496" y="1014" on="1"/>
        <pt x="496" y="965" on="0"/>
        <pt x="470" y="874" on="0"/>
        <pt x="428" y="787" on="0"/>
        <pt x="372" y="702" on="0"/>
        <pt x="342" y="659" on="1"/>
        <pt x="374" y="557" on="0"/>
        <pt x="447" y="344" on="0"/>
        <pt x="489" y="244" on="1"/>
        <pt x="511" y="298" on="0"/>
        <pt x="535" y="398" on="0"/>
        <pt x="535" y="430" on="1"/>
        <pt x="535" y="452" on="0"/>
        <pt x="516" y="461" on="0"/>
        <pt x="498" y="463" on="1"/>
        <pt x="436" y="463" on="1"/>
        <pt x="436" y="498" on="1"/>
        <pt x="501" y="498" on="0"/>
        <pt x="627" y="496" on="0"/>
        <pt x="690" y="496" on="1"/>
        <pt x="690" y="459" on="1"/>
        <pt x="672" y="461" on="0"/>
        <pt x="634" y="461" on="0"/>
        <pt x="614" y="461" on="1"/>
        <pt x="585" y="461" on="0"/>
        <pt x="570" y="430" on="0"/>
        <pt x="567" y="406" on="1"/>
        <pt x="559" y="359" on="0"/>
        <pt x="531" y="253" on="0"/>
        <pt x="508" y="201" on="1"/>
        <pt x="523" y="164" on="0"/>
        <pt x="555" y="96" on="0"/>
        <pt x="573" y="66" on="1"/>
        <pt x="584" y="47" on="0"/>
        <pt x="617" y="28" on="0"/>
        <pt x="654" y="20" on="0"/>
        <pt x="695" y="19" on="0"/>
        <pt x="713" y="18" on="1"/>
        <pt x="713" y="-16" on="1"/>
        <pt x="489" y="-6" on="1"/>
        <pt x="477" y="16" on="0"/>
        <pt x="453" y="63" on="0"/>
        <pt x="440" y="88" on="1"/>
        <pt x="406" y="46" on="0"/>
        <pt x="320" y="-6" on="0"/>
        <pt x="266" y="-6" on="1"/>
        <pt x="218" y="-6" on="0"/>
        <pt x="138" y="29" on="0"/>
        <pt x="80" y="90" on="0"/>
        <pt x="47" y="172" on="0"/>
        <pt x="47" y="219" on="1"/>
        <pt x="47" y="275" on="0"/>
        <pt x="85" y="374" on="0"/>
        <pt x="145" y="468" on="0"/>
        <pt x="219" y="560" on="0"/>
        <pt x="256" y="610" on="1"/>
        <pt x="241" y="649" on="0"/>
        <pt x="211" y="742" on="0"/>
        <pt x="187" y="838" on="0"/>
        <pt x="172" y="931" on="0"/>
      </contour>
      <contour>
        <pt x="158" y="197" on="1"/>
        <pt x="158" y="170" on="0"/>
        <pt x="172" y="110" on="0"/>
        <pt x="200" y="60" on="0"/>
        <pt x="245" y="27" on="0"/>
        <pt x="276" y="27" on="1"/>
        <pt x="320" y="27" on="0"/>
        <pt x="395" y="82" on="0"/>
        <pt x="426" y="125" on="1"/>
        <pt x="404" y="177" on="0"/>
        <pt x="364" y="288" on="0"/>
        <pt x="327" y="399" on="0"/>
        <pt x="292" y="508" on="0"/>
        <pt x="274" y="559" on="1"/>
        <pt x="250" y="520" on="0"/>
        <pt x="208" y="437" on="0"/>
        <pt x="177" y="348" on="0"/>
        <pt x="158" y="251" on="0"/>
      </contour>
      <contour>
        <pt x="401" y="999" on="1"/>
        <pt x="401" y="1034" on="0"/>
        <pt x="397" y="1096" on="0"/>
        <pt x="384" y="1142" on="0"/>
        <pt x="359" y="1169" on="0"/>
        <pt x="338" y="1169" on="1"/>
        <pt x="315" y="1169" on="0"/>
        <pt x="288" y="1138" on="0"/>
        <pt x="274" y="1089" on="0"/>
        <pt x="270" y="1026" on="0"/>
        <pt x="270" y="995" on="1"/>
        <pt x="270" y="964" on="0"/>
        <pt x="280" y="891" on="0"/>
        <pt x="297" y="816" on="0"/>
        <pt x="317" y="745" on="0"/>
        <pt x="326" y="717" on="1"/>
        <pt x="358" y="777" on="0"/>
        <pt x="401" y="914" on="0"/>
      </contour>
    </TTGlyph>
    <TTGlyph name="aogonek" xMin="41" yMin="-78" xMax="549" yMax="1069">
      <contour>
        <pt x="514" y="-37" on="1"/>
        <pt x="499" y="-55" on="0"/>
        <pt x="445" y="-78" on="0"/>
        <pt x="420" y="-78" on="1"/>
        <pt x="370" y="-78" on="0"/>
        <pt x="309" y="-20" on="0"/>
        <pt x="309" y="31" on="1"/>
        <pt x="309" y="63" on="0"/>
        <pt x="343" y="122" on="0"/>
        <pt x="371" y="145" on="1"/>
        <pt x="363" y="145" on="0"/>
        <pt x="348" y="145" on="0"/>
        <pt x="342" y="147" on="1"/>
        <pt x="346" y="248" on="1"/>
        <pt x="334" y="227" on="0"/>
        <pt x="294" y="191" on="0"/>
        <pt x="248" y="163" on="0"/>
        <pt x="198" y="147" on="0"/>
        <pt x="176" y="147" on="1"/>
        <pt x="142" y="147" on="0"/>
        <pt x="92" y="176" on="0"/>
        <pt x="58" y="223" on="0"/>
        <pt x="41" y="282" on="0"/>
        <pt x="41" y="313" on="1"/>
        <pt x="41" y="371" on="0"/>
        <pt x="91" y="460" on="0"/>
        <pt x="165" y="534" on="0"/>
        <pt x="253" y="602" on="0"/>
        <pt x="327" y="680" on="0"/>
        <pt x="377" y="774" on="0"/>
        <pt x="377" y="838" on="1"/>
        <pt x="378" y="869" on="0"/>
        <pt x="364" y="937" on="0"/>
        <pt x="329" y="994" on="0"/>
        <pt x="275" y="1030" on="0"/>
        <pt x="238" y="1030" on="1"/>
        <pt x="198" y="1030" on="0"/>
        <pt x="147" y="992" on="0"/>
        <pt x="117" y="933" on="0"/>
        <pt x="106" y="860" on="0"/>
        <pt x="106" y="825" on="1"/>
        <pt x="106" y="811" on="0"/>
        <pt x="110" y="769" on="0"/>
        <pt x="120" y="730" on="0"/>
        <pt x="137" y="702" on="0"/>
        <pt x="150" y="702" on="1"/>
        <pt x="164" y="702" on="0"/>
        <pt x="181" y="720" on="0"/>
        <pt x="190" y="745" on="0"/>
        <pt x="191" y="773" on="0"/>
        <pt x="190" y="784" on="1"/>
        <pt x="225" y="786" on="1"/>
        <pt x="226" y="763" on="0"/>
        <pt x="219" y="720" on="0"/>
        <pt x="201" y="686" on="0"/>
        <pt x="171" y="666" on="0"/>
        <pt x="150" y="666" on="1"/>
        <pt x="121" y="666" on="0"/>
        <pt x="82" y="699" on="0"/>
        <pt x="60" y="748" on="0"/>
        <pt x="51" y="804" on="0"/>
        <pt x="51" y="827" on="1"/>
        <pt x="51" y="872" on="0"/>
        <pt x="75" y="958" on="0"/>
        <pt x="123" y="1027" on="0"/>
        <pt x="197" y="1069" on="0"/>
        <pt x="248" y="1069" on="1"/>
        <pt x="312" y="1069" on="0"/>
        <pt x="396" y="1007" on="0"/>
        <pt x="446" y="912" on="0"/>
        <pt x="467" y="801" on="0"/>
        <pt x="467" y="752" on="1"/>
        <pt x="467" y="625" on="0"/>
        <pt x="449" y="374" on="0"/>
        <pt x="449" y="246" on="1"/>
        <pt x="449" y="218" on="0"/>
        <pt x="463" y="189" on="0"/>
        <pt x="489" y="177" on="0"/>
        <pt x="526" y="175" on="0"/>
        <pt x="549" y="174" on="1"/>
        <pt x="549" y="139" on="1"/>
        <pt x="515" y="139" on="0"/>
        <pt x="450" y="141" on="0"/>
        <pt x="418" y="143" on="1"/>
        <pt x="401" y="122" on="0"/>
        <pt x="377" y="67" on="0"/>
        <pt x="377" y="45" on="1"/>
        <pt x="377" y="8" on="0"/>
        <pt x="418" y="-37" on="0"/>
        <pt x="442" y="-37" on="1"/>
        <pt x="458" y="-37" on="0"/>
        <pt x="489" y="-24" on="0"/>
        <pt x="500" y="-16" on="1"/>
      </contour>
      <contour>
        <pt x="231" y="211" on="1"/>
        <pt x="245" y="211" on="0"/>
        <pt x="278" y="226" on="0"/>
        <pt x="310" y="253" on="0"/>
        <pt x="339" y="288" on="0"/>
        <pt x="350" y="309" on="1"/>
        <pt x="369" y="670" on="1"/>
        <pt x="340" y="630" on="0"/>
        <pt x="263" y="551" on="0"/>
        <pt x="194" y="469" on="0"/>
        <pt x="145" y="381" on="0"/>
        <pt x="145" y="332" on="1"/>
        <pt x="145" y="314" on="0"/>
        <pt x="155" y="271" on="0"/>
        <pt x="176" y="235" on="0"/>
        <pt x="209" y="211" on="0"/>
      </contour>
    </TTGlyph>
    <TTGlyph name="approxequal" xMin="63" yMin="487" xMax="557" yMax="1018">
      <contour>
        <pt x="553" y="762" on="1"/>
        <pt x="555" y="745" on="0"/>
        <pt x="557" y="711" on="0"/>
        <pt x="557" y="694" on="1"/>
        <pt x="557" y="652" on="0"/>
        <pt x="540" y="578" on="0"/>
        <pt x="504" y="524" on="0"/>
        <pt x="448" y="492" on="0"/>
        <pt x="408" y="492" on="1"/>
        <pt x="382" y="492" on="0"/>
        <pt x="343" y="513" on="0"/>
        <pt x="310" y="545" on="0"/>
        <pt x="281" y="582" on="0"/>
        <pt x="250" y="614" on="0"/>
        <pt x="216" y="635" on="0"/>
        <pt x="195" y="635" on="1"/>
        <pt x="165" y="635" on="0"/>
        <pt x="128" y="606" on="0"/>
        <pt x="108" y="561" on="0"/>
        <pt x="102" y="509" on="0"/>
        <pt x="104" y="487" on="1"/>
        <pt x="68" y="489" on="1"/>
        <pt x="66" y="505" on="0"/>
        <pt x="63" y="535" on="0"/>
        <pt x="63" y="551" on="1"/>
        <pt x="63" y="596" on="0"/>
        <pt x="88" y="663" on="0"/>
        <pt x="133" y="707" on="0"/>
        <pt x="194" y="729" on="0"/>
        <pt x="229" y="729" on="1"/>
        <pt x="267" y="729" on="0"/>
        <pt x="324" y="685" on="0"/>
        <pt x="372" y="632" on="0"/>
        <pt x="419" y="588" on="0"/>
        <pt x="446" y="588" on="1"/>
        <pt x="474" y="588" on="0"/>
        <pt x="506" y="628" on="0"/>
        <pt x="520" y="683" on="0"/>
        <pt x="521" y="742" on="0"/>
        <pt x="520" y="760" on="1"/>
      </contour>
      <contour>
        <pt x="553" y="1018" on="1"/>
        <pt x="555" y="1001" on="0"/>
        <pt x="557" y="967" on="0"/>
        <pt x="557" y="950" on="1"/>
        <pt x="557" y="908" on="0"/>
        <pt x="540" y="834" on="0"/>
        <pt x="504" y="780" on="0"/>
        <pt x="448" y="748" on="0"/>
        <pt x="408" y="748" on="1"/>
        <pt x="382" y="748" on="0"/>
        <pt x="343" y="769" on="0"/>
        <pt x="310" y="801" on="0"/>
        <pt x="281" y="838" on="0"/>
        <pt x="250" y="870" on="0"/>
        <pt x="216" y="891" on="0"/>
        <pt x="195" y="891" on="1"/>
        <pt x="165" y="891" on="0"/>
        <pt x="128" y="862" on="0"/>
        <pt x="108" y="817" on="0"/>
        <pt x="102" y="765" on="0"/>
        <pt x="104" y="743" on="1"/>
        <pt x="68" y="745" on="1"/>
        <pt x="66" y="761" on="0"/>
        <pt x="63" y="791" on="0"/>
        <pt x="63" y="807" on="1"/>
        <pt x="63" y="852" on="0"/>
        <pt x="88" y="919" on="0"/>
        <pt x="133" y="963" on="0"/>
        <pt x="194" y="985" on="0"/>
        <pt x="229" y="985" on="1"/>
        <pt x="267" y="985" on="0"/>
        <pt x="324" y="941" on="0"/>
        <pt x="372" y="888" on="0"/>
        <pt x="419" y="844" on="0"/>
        <pt x="446" y="844" on="1"/>
        <pt x="474" y="844" on="0"/>
        <pt x="506" y="884" on="0"/>
        <pt x="520" y="939" on="0"/>
        <pt x="521" y="998" on="0"/>
        <pt x="520" y="1016" on="1"/>
      </contour>
    </TTGlyph>
    <TTGlyph name="aring" xMin="41" yMin="139" xMax="549" yMax="1303">
      <component glyphName="a" x="0" y="0" flags="0x204"/>
      <component glyphName="ring" x="150" y="-112" flags="0x4"/>
    </TTGlyph>
    <TTGlyph name="asciicircum" xMin="29" yMin="838" xMax="446" yMax="1368">
      <contour>
        <pt x="446" y="844" on="1"/>
        <pt x="422" y="838" on="1"/>
        <pt x="246" y="1247" on="1"/>
        <pt x="55" y="842" on="1"/>
        <pt x="29" y="852" on="1"/>
        <pt x="190" y="1368" on="1"/>
        <pt x="305" y="1368" on="1"/>
      </contour>
    </TTGlyph>
    <TTGlyph name="asciitilde" xMin="51" yMin="590" xMax="545" yMax="864">
      <contour>
        <pt x="541" y="864" on="1"/>
        <pt x="543" y="847" on="0"/>
        <pt x="545" y="814" on="0"/>
        <pt x="545" y="797" on="1"/>
        <pt x="545" y="755" on="0"/>
        <pt x="528" y="681" on="0"/>
        <pt x="492" y="626" on="0"/>
        <pt x="435" y="594" on="0"/>
        <pt x="395" y="594" on="1"/>
        <pt x="369" y="594" on="0"/>
        <pt x="330" y="615" on="0"/>
        <pt x="297" y="647" on="0"/>
        <pt x="268" y="684" on="0"/>
        <pt x="238" y="716" on="0"/>
        <pt x="203" y="737" on="0"/>
        <pt x="182" y="737" on="1"/>
        <pt x="152" y="737" on="0"/>
        <pt x="115" y="708" on="0"/>
        <pt x="96" y="664" on="0"/>
        <pt x="90" y="612" on="0"/>
        <pt x="92" y="590" on="1"/>
        <pt x="55" y="592" on="1"/>
        <pt x="53" y="607" on="0"/>
        <pt x="51" y="638" on="0"/>
        <pt x="51" y="653" on="1"/>
        <pt x="51" y="698" on="0"/>
        <pt x="76" y="765" on="0"/>
        <pt x="121" y="809" on="0"/>
        <pt x="182" y="831" on="0"/>
        <pt x="217" y="831" on="1"/>
        <pt x="254" y="831" on="0"/>
        <pt x="311" y="787" on="0"/>
        <pt x="360" y="734" on="0"/>
        <pt x="406" y="690" on="0"/>
        <pt x="434" y="690" on="1"/>
        <pt x="462" y="690" on="0"/>
        <pt x="494" y="730" on="0"/>
        <pt x="508" y="785" on="0"/>
        <pt x="509" y="844" on="0"/>
        <pt x="508" y="862" on="1"/>
      </contour>
    </TTGlyph>
    <TTGlyph name="asterisk" xMin="41" yMin="1024" xMax="389" yMax="1425">
      <contour>
        <pt x="354" y="1102" on="1"/>
        <pt x="337" y="1102" on="0"/>
        <pt x="324" y="1112" on="1"/>
        <pt x="311" y="1120" on="0"/>
        <pt x="289" y="1146" on="0"/>
        <pt x="281" y="1155" on="1"/>
        <pt x="268" y="1167" on="0"/>
        <pt x="241" y="1191" on="0"/>
        <pt x="227" y="1202" on="1"/>
        <pt x="227" y="1185" on="0"/>
        <pt x="234" y="1150" on="0"/>
        <pt x="238" y="1133" on="1"/>
        <pt x="243" y="1119" on="0"/>
        <pt x="252" y="1089" on="0"/>
        <pt x="252" y="1073" on="1"/>
        <pt x="252" y="1056" on="0"/>
        <pt x="235" y="1024" on="0"/>
        <pt x="215" y="1024" on="1"/>
        <pt x="195" y="1024" on="0"/>
        <pt x="178" y="1056" on="0"/>
        <pt x="178" y="1073" on="1"/>
        <pt x="178" y="1089" on="0"/>
        <pt x="188" y="1119" on="0"/>
        <pt x="193" y="1133" on="1"/>
        <pt x="196" y="1150" on="0"/>
        <pt x="203" y="1185" on="0"/>
        <pt x="203" y="1202" on="1"/>
        <pt x="189" y="1191" on="0"/>
        <pt x="162" y="1167" on="0"/>
        <pt x="150" y="1155" on="1"/>
        <pt x="142" y="1146" on="0"/>
        <pt x="119" y="1120" on="0"/>
        <pt x="106" y="1112" on="1"/>
        <pt x="93" y="1102" on="0"/>
        <pt x="76" y="1102" on="1"/>
        <pt x="62" y="1102" on="0"/>
        <pt x="41" y="1119" on="0"/>
        <pt x="41" y="1135" on="1"/>
        <pt x="41" y="1150" on="0"/>
        <pt x="58" y="1169" on="0"/>
        <pt x="68" y="1176" on="1"/>
        <pt x="77" y="1184" on="0"/>
        <pt x="110" y="1191" on="0"/>
        <pt x="123" y="1196" on="1"/>
        <pt x="140" y="1201" on="0"/>
        <pt x="176" y="1215" on="0"/>
        <pt x="193" y="1225" on="1"/>
        <pt x="176" y="1234" on="0"/>
        <pt x="140" y="1247" on="0"/>
        <pt x="123" y="1253" on="1"/>
        <pt x="110" y="1258" on="0"/>
        <pt x="77" y="1266" on="0"/>
        <pt x="68" y="1274" on="1"/>
        <pt x="58" y="1280" on="0"/>
        <pt x="41" y="1299" on="0"/>
        <pt x="41" y="1313" on="1"/>
        <pt x="41" y="1328" on="0"/>
        <pt x="62" y="1348" on="0"/>
        <pt x="76" y="1348" on="1"/>
        <pt x="85" y="1348" on="0"/>
        <pt x="100" y="1342" on="0"/>
        <pt x="106" y="1337" on="1"/>
        <pt x="119" y="1329" on="0"/>
        <pt x="142" y="1304" on="0"/>
        <pt x="150" y="1294" on="1"/>
        <pt x="174" y="1269" on="0"/>
        <pt x="203" y="1247" on="1"/>
        <pt x="203" y="1264" on="0"/>
        <pt x="196" y="1300" on="0"/>
        <pt x="193" y="1317" on="1"/>
        <pt x="188" y="1331" on="0"/>
        <pt x="178" y="1360" on="0"/>
        <pt x="178" y="1374" on="1"/>
        <pt x="178" y="1393" on="0"/>
        <pt x="195" y="1425" on="0"/>
        <pt x="215" y="1425" on="1"/>
        <pt x="235" y="1425" on="0"/>
        <pt x="252" y="1393" on="0"/>
        <pt x="252" y="1374" on="1"/>
        <pt x="252" y="1360" on="0"/>
        <pt x="243" y="1331" on="0"/>
        <pt x="238" y="1317" on="1"/>
        <pt x="234" y="1300" on="0"/>
        <pt x="227" y="1264" on="0"/>
        <pt x="227" y="1247" on="1"/>
        <pt x="241" y="1258" on="0"/>
        <pt x="268" y="1282" on="0"/>
        <pt x="281" y="1294" on="1"/>
        <pt x="289" y="1304" on="0"/>
        <pt x="311" y="1329" on="0"/>
        <pt x="324" y="1337" on="1"/>
        <pt x="330" y="1342" on="0"/>
        <pt x="345" y="1348" on="0"/>
        <pt x="354" y="1348" on="1"/>
        <pt x="368" y="1348" on="0"/>
        <pt x="389" y="1328" on="0"/>
        <pt x="389" y="1313" on="1"/>
        <pt x="389" y="1299" on="0"/>
        <pt x="372" y="1280" on="0"/>
        <pt x="362" y="1274" on="1"/>
        <pt x="353" y="1266" on="0"/>
        <pt x="320" y="1258" on="0"/>
        <pt x="307" y="1253" on="1"/>
        <pt x="290" y="1247" on="0"/>
        <pt x="255" y="1234" on="0"/>
        <pt x="238" y="1225" on="1"/>
        <pt x="255" y="1215" on="0"/>
        <pt x="290" y="1201" on="0"/>
        <pt x="307" y="1196" on="1"/>
        <pt x="320" y="1191" on="0"/>
        <pt x="353" y="1184" on="0"/>
        <pt x="362" y="1176" on="1"/>
        <pt x="372" y="1169" on="0"/>
        <pt x="389" y="1150" on="0"/>
        <pt x="389" y="1135" on="1"/>
        <pt x="389" y="1119" on="0"/>
        <pt x="368" y="1102" on="0"/>
      </contour>
    </TTGlyph>
    <TTGlyph name="at" xMin="61" yMin="170" xMax="862" yMax="1217">
      <contour>
        <pt x="635" y="358" on="1"/>
        <pt x="623" y="358" on="0"/>
        <pt x="593" y="369" on="0"/>
        <pt x="565" y="393" on="0"/>
        <pt x="542" y="431" on="0"/>
        <pt x="537" y="459" on="1"/>
        <pt x="527" y="428" on="0"/>
        <pt x="498" y="389" on="0"/>
        <pt x="465" y="366" on="0"/>
        <pt x="433" y="358" on="0"/>
        <pt x="420" y="358" on="1"/>
        <pt x="378" y="358" on="0"/>
        <pt x="315" y="399" on="0"/>
        <pt x="274" y="474" on="0"/>
        <pt x="257" y="578" on="0"/>
        <pt x="262" y="641" on="1"/>
        <pt x="264" y="673" on="0"/>
        <pt x="275" y="747" on="0"/>
        <pt x="293" y="819" on="0"/>
        <pt x="322" y="886" on="0"/>
        <pt x="364" y="937" on="0"/>
        <pt x="420" y="967" on="0"/>
        <pt x="457" y="967" on="1"/>
        <pt x="478" y="967" on="0"/>
        <pt x="509" y="954" on="0"/>
        <pt x="533" y="929" on="0"/>
        <pt x="553" y="889" on="0"/>
        <pt x="563" y="862" on="1"/>
        <pt x="573" y="985" on="1"/>
        <pt x="664" y="989" on="1"/>
        <pt x="654" y="870" on="0"/>
        <pt x="630" y="636" on="0"/>
        <pt x="621" y="518" on="1"/>
        <pt x="621" y="500" on="1"/>
        <pt x="621" y="487" on="0"/>
        <pt x="625" y="455" on="0"/>
        <pt x="637" y="427" on="0"/>
        <pt x="657" y="408" on="0"/>
        <pt x="672" y="408" on="1"/>
        <pt x="707" y="408" on="0"/>
        <pt x="748" y="471" on="0"/>
        <pt x="769" y="570" on="0"/>
        <pt x="776" y="693" on="0"/>
        <pt x="778" y="754" on="1"/>
        <pt x="780" y="833" on="0"/>
        <pt x="762" y="987" on="0"/>
        <pt x="701" y="1109" on="0"/>
        <pt x="588" y="1184" on="0"/>
        <pt x="496" y="1184" on="1"/>
        <pt x="431" y="1184" on="0"/>
        <pt x="330" y="1136" on="0"/>
        <pt x="253" y="1052" on="0"/>
        <pt x="199" y="938" on="0"/>
        <pt x="165" y="809" on="0"/>
        <pt x="150" y="670" on="0"/>
        <pt x="150" y="602" on="1"/>
        <pt x="150" y="512" on="0"/>
        <pt x="194" y="371" on="0"/>
        <pt x="266" y="274" on="0"/>
        <pt x="361" y="223" on="0"/>
        <pt x="412" y="223" on="1"/>
        <pt x="426" y="223" on="0"/>
        <pt x="476" y="224" on="0"/>
        <pt x="536" y="236" on="0"/>
        <pt x="599" y="263" on="0"/>
        <pt x="625" y="289" on="1"/>
        <pt x="643" y="272" on="1"/>
        <pt x="622" y="247" on="0"/>
        <pt x="565" y="209" on="0"/>
        <pt x="502" y="183" on="0"/>
        <pt x="437" y="170" on="0"/>
        <pt x="408" y="170" on="1"/>
        <pt x="361" y="170" on="0"/>
        <pt x="241" y="220" on="0"/>
        <pt x="134" y="326" on="0"/>
        <pt x="61" y="491" on="0"/>
        <pt x="61" y="606" on="1"/>
        <pt x="61" y="739" on="0"/>
        <pt x="117" y="963" on="0"/>
        <pt x="229" y="1126" on="0"/>
        <pt x="397" y="1217" on="0"/>
        <pt x="510" y="1217" on="1"/>
        <pt x="612" y="1217" on="0"/>
        <pt x="750" y="1138" on="0"/>
        <pt x="831" y="1008" on="0"/>
        <pt x="862" y="841" on="0"/>
        <pt x="858" y="754" on="1"/>
        <pt x="853" y="665" on="0"/>
        <pt x="829" y="520" on="0"/>
        <pt x="778" y="415" on="0"/>
        <pt x="696" y="358" on="0"/>
      </contour>
      <contour>
        <pt x="551" y="756" on="1"/>
        <pt x="551" y="780" on="0"/>
        <pt x="546" y="836" on="0"/>
        <pt x="528" y="885" on="0"/>
        <pt x="494" y="918" on="0"/>
        <pt x="465" y="918" on="1"/>
        <pt x="445" y="918" on="0"/>
        <pt x="414" y="890" on="0"/>
        <pt x="389" y="844" on="0"/>
        <pt x="372" y="788" on="0"/>
        <pt x="360" y="731" on="0"/>
        <pt x="353" y="681" on="0"/>
        <pt x="352" y="664" on="1"/>
        <pt x="347" y="611" on="0"/>
        <pt x="349" y="521" on="0"/>
        <pt x="366" y="454" on="0"/>
        <pt x="401" y="416" on="0"/>
        <pt x="430" y="416" on="1"/>
        <pt x="453" y="416" on="0"/>
        <pt x="490" y="457" on="0"/>
        <pt x="517" y="522" on="0"/>
        <pt x="535" y="601" on="0"/>
        <pt x="546" y="676" on="0"/>
        <pt x="551" y="740" on="0"/>
      </contour>
    </TTGlyph>
    <TTGlyph name="atilde" xMin="41" yMin="139" xMax="549" yMax="1330">
      <component glyphName="a" x="0" y="0" flags="0x204"/>
      <component glyphName="tilde" x="47" y="-54" flags="0x4"/>
    </TTGlyph>
    <TTGlyph name="b" xMin="-10" yMin="66" xMax="506" yMax="1393">
      <contour>
        <pt x="205" y="66" on="1"/>
        <pt x="-2" y="66" on="1"/>
        <pt x="-2" y="102" on="1"/>
        <pt x="35" y="102" on="1"/>
        <pt x="53" y="101" on="0"/>
        <pt x="79" y="116" on="0"/>
        <pt x="95" y="140" on="0"/>
        <pt x="102" y="172" on="0"/>
        <pt x="102" y="188" on="1"/>
        <pt x="94" y="1255" on="1"/>
        <pt x="94" y="1272" on="0"/>
        <pt x="89" y="1308" on="0"/>
        <pt x="75" y="1338" on="0"/>
        <pt x="48" y="1358" on="0"/>
        <pt x="27" y="1358" on="1"/>
        <pt x="-10" y="1358" on="1"/>
        <pt x="-10" y="1393" on="1"/>
        <pt x="197" y="1393" on="1"/>
        <pt x="199" y="983" on="1"/>
        <pt x="225" y="1011" on="0"/>
        <pt x="293" y="1036" on="0"/>
        <pt x="324" y="1036" on="1"/>
        <pt x="392" y="1036" on="0"/>
        <pt x="466" y="961" on="0"/>
        <pt x="500" y="841" on="0"/>
        <pt x="506" y="689" on="0"/>
        <pt x="506" y="612" on="1"/>
        <pt x="506" y="547" on="0"/>
        <pt x="504" y="418" on="0"/>
        <pt x="494" y="300" on="0"/>
        <pt x="472" y="197" on="0"/>
        <pt x="432" y="121" on="0"/>
        <pt x="369" y="78" on="0"/>
        <pt x="324" y="78" on="1"/>
        <pt x="296" y="78" on="0"/>
        <pt x="231" y="96" on="0"/>
        <pt x="203" y="121" on="1"/>
      </contour>
      <contour>
        <pt x="299" y="121" on="1"/>
        <pt x="338" y="121" on="0"/>
        <pt x="380" y="186" on="0"/>
        <pt x="400" y="306" on="0"/>
        <pt x="403" y="473" on="0"/>
        <pt x="403" y="575" on="1"/>
        <pt x="403" y="674" on="0"/>
        <pt x="400" y="829" on="0"/>
        <pt x="381" y="936" on="0"/>
        <pt x="339" y="991" on="0"/>
        <pt x="301" y="991" on="1"/>
        <pt x="272" y="991" on="0"/>
        <pt x="219" y="955" on="0"/>
        <pt x="199" y="926" on="1"/>
        <pt x="203" y="166" on="1"/>
        <pt x="224" y="146" on="0"/>
        <pt x="277" y="121" on="0"/>
      </contour>
    </TTGlyph>
    <TTGlyph name="backslash" xMin="23" yMin="27" xMax="561" yMax="1382">
      <contour>
        <pt x="129" y="1382" on="1"/>
        <pt x="561" y="37" on="1"/>
        <pt x="526" y="27" on="1"/>
        <pt x="23" y="1380" on="1"/>
      </contour>
    </TTGlyph>
    <TTGlyph name="bar" xMin="102" yMin="-82" xMax="199" yMax="1540">
      <contour>
        <pt x="199" y="1540" on="1"/>
        <pt x="166" y="-82" on="1"/>
        <pt x="111" y="-78" on="1"/>
        <pt x="102" y="1540" on="1"/>
      </contour>
    </TTGlyph>
    <TTGlyph name="braceleft" xMin="29" yMin="-123" xMax="322" yMax="1546">
      <contour>
        <pt x="322" y="1538" on="1"/>
        <pt x="319" y="1511" on="1"/>
        <pt x="310" y="1513" on="0"/>
        <pt x="292" y="1513" on="0"/>
        <pt x="283" y="1513" on="1"/>
        <pt x="251" y="1513" on="0"/>
        <pt x="205" y="1491" on="0"/>
        <pt x="175" y="1454" on="0"/>
        <pt x="160" y="1403" on="0"/>
        <pt x="160" y="1374" on="1"/>
        <pt x="160" y="1326" on="0"/>
        <pt x="193" y="1232" on="0"/>
        <pt x="233" y="1135" on="0"/>
        <pt x="266" y="1033" on="0"/>
        <pt x="266" y="979" on="1"/>
        <pt x="266" y="940" on="0"/>
        <pt x="243" y="865" on="0"/>
        <pt x="200" y="806" on="0"/>
        <pt x="136" y="766" on="0"/>
        <pt x="94" y="762" on="1"/>
        <pt x="184" y="737" on="0"/>
        <pt x="270" y="617" on="0"/>
        <pt x="270" y="526" on="1"/>
        <pt x="270" y="464" on="0"/>
        <pt x="236" y="351" on="0"/>
        <pt x="194" y="240" on="0"/>
        <pt x="160" y="129" on="0"/>
        <pt x="160" y="70" on="1"/>
        <pt x="160" y="37" on="0"/>
        <pt x="177" y="-27" on="0"/>
        <pt x="212" y="-75" on="0"/>
        <pt x="267" y="-101" on="0"/>
        <pt x="305" y="-96" on="1"/>
        <pt x="307" y="-119" on="1"/>
        <pt x="298" y="-121" on="0"/>
        <pt x="279" y="-123" on="0"/>
        <pt x="268" y="-123" on="1"/>
        <pt x="222" y="-123" on="0"/>
        <pt x="147" y="-85" on="0"/>
        <pt x="95" y="-21" on="0"/>
        <pt x="66" y="60" on="0"/>
        <pt x="66" y="104" on="1"/>
        <pt x="66" y="166" on="0"/>
        <pt x="111" y="277" on="0"/>
        <pt x="166" y="385" on="0"/>
        <pt x="211" y="496" on="0"/>
        <pt x="211" y="559" on="1"/>
        <pt x="211" y="646" on="0"/>
        <pt x="115" y="742" on="0"/>
        <pt x="29" y="745" on="1"/>
        <pt x="29" y="770" on="1"/>
        <pt x="104" y="775" on="0"/>
        <pt x="195" y="857" on="0"/>
        <pt x="195" y="936" on="1"/>
        <pt x="195" y="987" on="0"/>
        <pt x="155" y="1082" on="0"/>
        <pt x="108" y="1177" on="0"/>
        <pt x="68" y="1274" on="0"/>
        <pt x="68" y="1327" on="1"/>
        <pt x="68" y="1370" on="0"/>
        <pt x="97" y="1449" on="0"/>
        <pt x="151" y="1510" on="0"/>
        <pt x="225" y="1546" on="0"/>
        <pt x="270" y="1546" on="1"/>
        <pt x="283" y="1546" on="0"/>
        <pt x="309" y="1541" on="0"/>
      </contour>
    </TTGlyph>
    <TTGlyph name="braceright" xMin="27" yMin="-123" xMax="319" yMax="1546">
      <contour>
        <pt x="319" y="745" on="1"/>
        <pt x="233" y="742" on="0"/>
        <pt x="139" y="646" on="0"/>
        <pt x="139" y="559" on="1"/>
        <pt x="139" y="496" on="0"/>
        <pt x="184" y="385" on="0"/>
        <pt x="238" y="277" on="0"/>
        <pt x="283" y="166" on="0"/>
        <pt x="283" y="104" on="1"/>
        <pt x="283" y="60" on="0"/>
        <pt x="254" y="-21" on="0"/>
        <pt x="201" y="-85" on="0"/>
        <pt x="126" y="-123" on="0"/>
        <pt x="80" y="-123" on="1"/>
        <pt x="71" y="-123" on="0"/>
        <pt x="50" y="-121" on="0"/>
        <pt x="41" y="-119" on="1"/>
        <pt x="45" y="-96" on="1"/>
        <pt x="82" y="-101" on="0"/>
        <pt x="137" y="-75" on="0"/>
        <pt x="171" y="-27" on="0"/>
        <pt x="188" y="37" on="0"/>
        <pt x="188" y="70" on="1"/>
        <pt x="188" y="129" on="0"/>
        <pt x="154" y="240" on="0"/>
        <pt x="112" y="351" on="0"/>
        <pt x="78" y="464" on="0"/>
        <pt x="78" y="526" on="1"/>
        <pt x="78" y="617" on="0"/>
        <pt x="166" y="737" on="0"/>
        <pt x="254" y="762" on="1"/>
        <pt x="212" y="766" on="0"/>
        <pt x="148" y="806" on="0"/>
        <pt x="105" y="865" on="0"/>
        <pt x="82" y="940" on="0"/>
        <pt x="82" y="979" on="1"/>
        <pt x="82" y="1033" on="0"/>
        <pt x="116" y="1135" on="0"/>
        <pt x="156" y="1232" on="0"/>
        <pt x="190" y="1326" on="0"/>
        <pt x="190" y="1374" on="1"/>
        <pt x="190" y="1403" on="0"/>
        <pt x="175" y="1454" on="0"/>
        <pt x="145" y="1491" on="0"/>
        <pt x="99" y="1513" on="0"/>
        <pt x="68" y="1513" on="1"/>
        <pt x="58" y="1513" on="0"/>
        <pt x="40" y="1513" on="0"/>
        <pt x="31" y="1511" on="1"/>
        <pt x="27" y="1538" on="1"/>
        <pt x="39" y="1541" on="0"/>
        <pt x="66" y="1546" on="0"/>
        <pt x="80" y="1546" on="1"/>
        <pt x="125" y="1546" on="0"/>
        <pt x="200" y="1510" on="0"/>
        <pt x="254" y="1449" on="0"/>
        <pt x="283" y="1370" on="0"/>
        <pt x="283" y="1327" on="1"/>
        <pt x="283" y="1274" on="0"/>
        <pt x="243" y="1177" on="0"/>
        <pt x="196" y="1082" on="0"/>
        <pt x="156" y="987" on="0"/>
        <pt x="156" y="936" on="1"/>
        <pt x="156" y="857" on="0"/>
        <pt x="245" y="775" on="0"/>
        <pt x="319" y="770" on="1"/>
      </contour>
    </TTGlyph>
    <TTGlyph name="bracketleft" xMin="98" yMin="-139" xMax="385" yMax="1559">
      <contour>
        <pt x="385" y="1524" on="1"/>
        <pt x="211" y="1522" on="1"/>
        <pt x="201" y="-100" on="1"/>
        <pt x="379" y="-102" on="1"/>
        <pt x="377" y="-139" on="1"/>
        <pt x="98" y="-131" on="1"/>
        <pt x="113" y="1552" on="1"/>
        <pt x="383" y="1559" on="1"/>
      </contour>
    </TTGlyph>
    <TTGlyph name="bracketright" xMin="10" yMin="-139" xMax="297" yMax="1559">
      <contour>
        <pt x="297" y="1552" on="1"/>
        <pt x="283" y="-133" on="1"/>
        <pt x="10" y="-139" on="1"/>
        <pt x="10" y="-102" on="1"/>
        <pt x="182" y="-100" on="1"/>
        <pt x="195" y="1520" on="1"/>
        <pt x="16" y="1524" on="1"/>
        <pt x="16" y="1559" on="1"/>
      </contour>
    </TTGlyph>
    <TTGlyph name="breve" xMin="0" yMin="1176" xMax="309" yMax="1399">
      <contour>
        <pt x="309" y="1399" on="1"/>
        <pt x="309" y="1372" on="1"/>
        <pt x="309" y="1331" on="0"/>
        <pt x="293" y="1259" on="0"/>
        <pt x="256" y="1206" on="0"/>
        <pt x="198" y="1176" on="0"/>
        <pt x="156" y="1176" on="1"/>
        <pt x="114" y="1176" on="0"/>
        <pt x="55" y="1205" on="0"/>
        <pt x="18" y="1256" on="0"/>
        <pt x="0" y="1326" on="0"/>
        <pt x="0" y="1368" on="1"/>
        <pt x="0" y="1389" on="1"/>
        <pt x="37" y="1389" on="1"/>
        <pt x="38" y="1364" on="0"/>
        <pt x="58" y="1318" on="0"/>
        <pt x="91" y="1283" on="0"/>
        <pt x="134" y="1262" on="0"/>
        <pt x="158" y="1262" on="1"/>
        <pt x="183" y="1262" on="0"/>
        <pt x="225" y="1285" on="0"/>
        <pt x="254" y="1323" on="0"/>
        <pt x="268" y="1373" on="0"/>
        <pt x="266" y="1399" on="1"/>
      </contour>
    </TTGlyph>
    <TTGlyph name="brokenbar" xMin="82" yMin="-70" xMax="188" yMax="1518">
      <contour>
        <pt x="188" y="1518" on="1"/>
        <pt x="154" y="788" on="1"/>
        <pt x="127" y="786" on="1"/>
        <pt x="96" y="1518" on="1"/>
      </contour>
      <contour>
        <pt x="170" y="-70" on="1"/>
        <pt x="82" y="-63" on="1"/>
        <pt x="127" y="698" on="1"/>
        <pt x="156" y="692" on="1"/>
      </contour>
    </TTGlyph>
    <TTGlyph name="bullet" xMin="92" yMin="610" xMax="279" yMax="795">
      <contour>
        <pt x="279" y="702" on="1"/>
        <pt x="279" y="684" on="0"/>
        <pt x="264" y="650" on="0"/>
        <pt x="238" y="625" on="0"/>
        <pt x="205" y="610" on="0"/>
        <pt x="186" y="610" on="1"/>
        <pt x="166" y="610" on="0"/>
        <pt x="132" y="625" on="0"/>
        <pt x="106" y="650" on="0"/>
        <pt x="92" y="684" on="0"/>
        <pt x="92" y="702" on="1"/>
        <pt x="92" y="741" on="0"/>
        <pt x="146" y="795" on="0"/>
        <pt x="186" y="795" on="1"/>
        <pt x="205" y="795" on="0"/>
        <pt x="238" y="781" on="0"/>
        <pt x="264" y="755" on="0"/>
        <pt x="279" y="721" on="0"/>
      </contour>
    </TTGlyph>
    <TTGlyph name="c" xMin="57" yMin="57" xMax="465" yMax="1182">
      <contour>
        <pt x="465" y="680" on="1"/>
        <pt x="430" y="680" on="1"/>
        <pt x="430" y="805" on="1"/>
        <pt x="430" y="836" on="0"/>
        <pt x="416" y="918" on="0"/>
        <pt x="384" y="992" on="0"/>
        <pt x="329" y="1042" on="0"/>
        <pt x="289" y="1042" on="1"/>
        <pt x="242" y="1042" on="0"/>
        <pt x="191" y="991" on="0"/>
        <pt x="168" y="874" on="0"/>
        <pt x="164" y="681" on="0"/>
        <pt x="164" y="539" on="1"/>
        <pt x="164" y="516" on="0"/>
        <pt x="163" y="433" on="0"/>
        <pt x="168" y="335" on="0"/>
        <pt x="181" y="233" on="0"/>
        <pt x="208" y="149" on="0"/>
        <pt x="253" y="96" on="0"/>
        <pt x="287" y="96" on="1"/>
        <pt x="317" y="96" on="0"/>
        <pt x="362" y="123" on="0"/>
        <pt x="394" y="167" on="0"/>
        <pt x="415" y="222" on="0"/>
        <pt x="426" y="280" on="0"/>
        <pt x="429" y="335" on="0"/>
        <pt x="428" y="356" on="1"/>
        <pt x="463" y="356" on="1"/>
        <pt x="463" y="308" on="0"/>
        <pt x="446" y="203" on="0"/>
        <pt x="402" y="115" on="0"/>
        <pt x="328" y="57" on="0"/>
        <pt x="270" y="57" on="1"/>
        <pt x="217" y="57" on="0"/>
        <pt x="144" y="112" on="0"/>
        <pt x="96" y="200" on="0"/>
        <pt x="71" y="310" on="0"/>
        <pt x="59" y="420" on="0"/>
        <pt x="57" y="520" on="0"/>
        <pt x="57" y="553" on="1"/>
        <pt x="57" y="622" on="0"/>
        <pt x="59" y="756" on="0"/>
        <pt x="71" y="875" on="0"/>
        <pt x="96" y="977" on="0"/>
        <pt x="143" y="1050" on="0"/>
        <pt x="215" y="1092" on="0"/>
        <pt x="268" y="1092" on="1"/>
        <pt x="325" y="1092" on="0"/>
        <pt x="408" y="1028" on="0"/>
        <pt x="430" y="977" on="1"/>
        <pt x="430" y="1182" on="1"/>
        <pt x="465" y="1182" on="1"/>
      </contour>
    </TTGlyph>
    <TTGlyph name="cacute" xMin="57" yMin="57" xMax="543" yMax="1429">
      <component glyphName="c" x="0" y="0" flags="0x204"/>
      <component glyphName="acute" x="264" y="-15" flags="0x4"/>
    </TTGlyph>
    <TTGlyph name="caron" xMin="0" yMin="1122" xMax="354" yMax="1413">
      <contour>
        <pt x="221" y="1122" on="1"/>
        <pt x="139" y="1122" on="1"/>
        <pt x="0" y="1393" on="1"/>
        <pt x="27" y="1407" on="1"/>
        <pt x="172" y="1208" on="1"/>
        <pt x="332" y="1413" on="1"/>
        <pt x="354" y="1399" on="1"/>
      </contour>
    </TTGlyph>
    <TTGlyph name="ccaron" xMin="57" yMin="57" xMax="465" yMax="1448">
      <component glyphName="c" x="0" y="0" flags="0x204"/>
      <component glyphName="caron" x="84" y="35" flags="0x4"/>
    </TTGlyph>
    <TTGlyph name="ccedilla" xMin="57" yMin="-182" xMax="465" yMax="1182">
      <contour>
        <pt x="250" y="-182" on="1"/>
        <pt x="230" y="-182" on="0"/>
        <pt x="178" y="-167" on="0"/>
        <pt x="166" y="-150" on="1"/>
        <pt x="180" y="-125" on="1"/>
        <pt x="191" y="-137" on="0"/>
        <pt x="216" y="-145" on="0"/>
        <pt x="231" y="-145" on="1"/>
        <pt x="250" y="-145" on="0"/>
        <pt x="272" y="-109" on="0"/>
        <pt x="272" y="-92" on="1"/>
        <pt x="272" y="-70" on="0"/>
        <pt x="243" y="-47" on="0"/>
        <pt x="223" y="-47" on="1"/>
        <pt x="211" y="-47" on="0"/>
        <pt x="199" y="-53" on="1"/>
        <pt x="248" y="59" on="1"/>
        <pt x="200" y="65" on="0"/>
        <pt x="135" y="125" on="0"/>
        <pt x="92" y="214" on="0"/>
        <pt x="69" y="320" on="0"/>
        <pt x="59" y="426" on="0"/>
        <pt x="57" y="521" on="0"/>
        <pt x="57" y="553" on="1"/>
        <pt x="57" y="622" on="0"/>
        <pt x="59" y="756" on="0"/>
        <pt x="71" y="875" on="0"/>
        <pt x="96" y="977" on="0"/>
        <pt x="143" y="1050" on="0"/>
        <pt x="215" y="1092" on="0"/>
        <pt x="268" y="1092" on="1"/>
        <pt x="325" y="1092" on="0"/>
        <pt x="408" y="1028" on="0"/>
        <pt x="430" y="977" on="1"/>
        <pt x="430" y="1182" on="1"/>
        <pt x="465" y="1182" on="1"/>
        <pt x="465" y="680" on="1"/>
        <pt x="430" y="680" on="1"/>
        <pt x="430" y="805" on="1"/>
        <pt x="430" y="836" on="0"/>
        <pt x="416" y="918" on="0"/>
        <pt x="384" y="992" on="0"/>
        <pt x="329" y="1042" on="0"/>
        <pt x="289" y="1042" on="1"/>
        <pt x="242" y="1042" on="0"/>
        <pt x="191" y="991" on="0"/>
        <pt x="168" y="874" on="0"/>
        <pt x="164" y="681" on="0"/>
        <pt x="164" y="539" on="1"/>
        <pt x="164" y="516" on="0"/>
        <pt x="163" y="433" on="0"/>
        <pt x="168" y="335" on="0"/>
        <pt x="181" y="233" on="0"/>
        <pt x="208" y="149" on="0"/>
        <pt x="253" y="96" on="0"/>
        <pt x="287" y="96" on="1"/>
        <pt x="317" y="96" on="0"/>
        <pt x="362" y="123" on="0"/>
        <pt x="394" y="167" on="0"/>
        <pt x="415" y="222" on="0"/>
        <pt x="426" y="280" on="0"/>
        <pt x="429" y="335" on="0"/>
        <pt x="428" y="356" on="1"/>
        <pt x="463" y="356" on="1"/>
        <pt x="463" y="309" on="0"/>
        <pt x="447" y="206" on="0"/>
        <pt x="406" y="118" on="0"/>
        <pt x="335" y="59" on="0"/>
        <pt x="281" y="57" on="1"/>
        <pt x="254" y="-12" on="1"/>
        <pt x="276" y="-12" on="1"/>
        <pt x="311" y="-12" on="0"/>
        <pt x="354" y="-52" on="0"/>
        <pt x="354" y="-86" on="1"/>
        <pt x="354" y="-107" on="0"/>
        <pt x="336" y="-143" on="0"/>
        <pt x="307" y="-168" on="0"/>
        <pt x="270" y="-182" on="0"/>
      </contour>
    </TTGlyph>
    <TTGlyph name="ccircumflex" xMin="57" yMin="57" xMax="465" yMax="1513">
      <component glyphName="c" x="0" y="0" flags="0x204"/>
      <component glyphName="circumflex" x="88" y="100" flags="0x4"/>
    </TTGlyph>
    <TTGlyph name="cdotaccent" xMin="57" yMin="57" xMax="465" yMax="1271">
      <component glyphName="c" x="0" y="0" flags="0x204"/>
      <component glyphName="dotaccent" x="201" y="-95" flags="0x4"/>
    </TTGlyph>
    <TTGlyph name="cedilla" xMin="0" yMin="-270" xMax="188" yMax="-4">
      <contour>
        <pt x="84" y="-270" on="1"/>
        <pt x="64" y="-270" on="0"/>
        <pt x="12" y="-255" on="0"/>
        <pt x="0" y="-238" on="1"/>
        <pt x="14" y="-213" on="1"/>
        <pt x="25" y="-225" on="0"/>
        <pt x="50" y="-233" on="0"/>
        <pt x="66" y="-233" on="1"/>
        <pt x="84" y="-233" on="0"/>
        <pt x="106" y="-197" on="0"/>
        <pt x="106" y="-180" on="1"/>
        <pt x="106" y="-159" on="0"/>
        <pt x="77" y="-135" on="0"/>
        <pt x="57" y="-135" on="1"/>
        <pt x="45" y="-135" on="0"/>
        <pt x="33" y="-141" on="1"/>
        <pt x="92" y="-4" on="1"/>
        <pt x="123" y="-10" on="1"/>
        <pt x="88" y="-100" on="1"/>
        <pt x="111" y="-100" on="1"/>
        <pt x="145" y="-100" on="0"/>
        <pt x="188" y="-140" on="0"/>
        <pt x="188" y="-174" on="1"/>
        <pt x="188" y="-195" on="0"/>
        <pt x="170" y="-231" on="0"/>
        <pt x="141" y="-256" on="0"/>
        <pt x="104" y="-270" on="0"/>
      </contour>
    </TTGlyph>
    <TTGlyph name="cent" xMin="53" yMin="29" xMax="358" yMax="1366">
      <contour>
        <pt x="229" y="983" on="1"/>
        <pt x="263" y="980" on="0"/>
        <pt x="301" y="937" on="0"/>
        <pt x="313" y="915" on="1"/>
        <pt x="313" y="1108" on="1"/>
        <pt x="348" y="1108" on="1"/>
        <pt x="348" y="700" on="1"/>
        <pt x="313" y="700" on="1"/>
        <pt x="313" y="714" on="0"/>
        <pt x="315" y="744" on="0"/>
        <pt x="315" y="760" on="1"/>
        <pt x="315" y="784" on="0"/>
        <pt x="307" y="845" on="0"/>
        <pt x="286" y="900" on="0"/>
        <pt x="249" y="938" on="0"/>
        <pt x="221" y="938" on="1"/>
        <pt x="205" y="938" on="0"/>
        <pt x="182" y="922" on="0"/>
        <pt x="168" y="897" on="0"/>
        <pt x="161" y="867" on="0"/>
        <pt x="160" y="854" on="1"/>
        <pt x="154" y="782" on="0"/>
        <pt x="152" y="638" on="0"/>
        <pt x="152" y="565" on="1"/>
        <pt x="152" y="543" on="0"/>
        <pt x="155" y="466" on="0"/>
        <pt x="171" y="392" on="0"/>
        <pt x="207" y="338" on="0"/>
        <pt x="240" y="338" on="1"/>
        <pt x="269" y="338" on="0"/>
        <pt x="302" y="373" on="0"/>
        <pt x="318" y="423" on="0"/>
        <pt x="323" y="479" on="0"/>
        <pt x="324" y="500" on="1"/>
        <pt x="358" y="500" on="1"/>
        <pt x="358" y="489" on="1"/>
        <pt x="358" y="459" on="0"/>
        <pt x="344" y="396" on="0"/>
        <pt x="316" y="341" on="0"/>
        <pt x="272" y="301" on="0"/>
        <pt x="242" y="295" on="1"/>
        <pt x="242" y="29" on="1"/>
        <pt x="205" y="29" on="1"/>
        <pt x="205" y="293" on="1"/>
        <pt x="154" y="297" on="0"/>
        <pt x="94" y="357" on="0"/>
        <pt x="63" y="443" on="0"/>
        <pt x="53" y="541" on="0"/>
        <pt x="53" y="582" on="1"/>
        <pt x="53" y="639" on="0"/>
        <pt x="54" y="754" on="0"/>
        <pt x="57" y="811" on="1"/>
        <pt x="59" y="844" on="0"/>
        <pt x="78" y="904" on="0"/>
        <pt x="113" y="952" on="0"/>
        <pt x="166" y="982" on="0"/>
        <pt x="203" y="985" on="1"/>
        <pt x="168" y="1296" on="1"/>
        <pt x="270" y="1366" on="1"/>
      </contour>
    </TTGlyph>
    <TTGlyph name="circumflex" xMin="0" yMin="1122" xMax="354" yMax="1413">
      <contour>
        <pt x="354" y="1137" on="1"/>
        <pt x="332" y="1122" on="1"/>
        <pt x="172" y="1327" on="1"/>
        <pt x="27" y="1128" on="1"/>
        <pt x="0" y="1143" on="1"/>
        <pt x="139" y="1413" on="1"/>
        <pt x="221" y="1413" on="1"/>
      </contour>
    </TTGlyph>
    <TTGlyph name="colon" xMin="76" yMin="123" xMax="221" yMax="877">
      <contour>
        <pt x="221" y="195" on="1"/>
        <pt x="221" y="180" on="0"/>
        <pt x="209" y="154" on="0"/>
        <pt x="190" y="135" on="0"/>
        <pt x="164" y="123" on="0"/>
        <pt x="150" y="123" on="1"/>
        <pt x="119" y="123" on="0"/>
        <pt x="76" y="166" on="0"/>
        <pt x="76" y="195" on="1"/>
        <pt x="76" y="226" on="0"/>
        <pt x="119" y="268" on="0"/>
        <pt x="150" y="268" on="1"/>
        <pt x="179" y="268" on="0"/>
        <pt x="221" y="226" on="0"/>
      </contour>
      <contour>
        <pt x="221" y="805" on="1"/>
        <pt x="221" y="774" on="0"/>
        <pt x="179" y="731" on="0"/>
        <pt x="150" y="731" on="1"/>
        <pt x="119" y="731" on="0"/>
        <pt x="76" y="774" on="0"/>
        <pt x="76" y="805" on="1"/>
        <pt x="76" y="834" on="0"/>
        <pt x="119" y="877" on="0"/>
        <pt x="150" y="877" on="1"/>
        <pt x="164" y="877" on="0"/>
        <pt x="190" y="865" on="0"/>
        <pt x="209" y="846" on="0"/>
        <pt x="221" y="820" on="0"/>
      </contour>
    </TTGlyph>
    <TTGlyph name="comma" xMin="41" yMin="-31" xMax="188" yMax="264">
      <contour>
        <pt x="188" y="190" on="1"/>
        <pt x="188" y="160" on="0"/>
        <pt x="164" y="91" on="0"/>
        <pt x="123" y="28" on="0"/>
        <pt x="70" y="-21" on="0"/>
        <pt x="41" y="-31" on="1"/>
        <pt x="70" y="3" on="0"/>
        <pt x="109" y="72" on="0"/>
        <pt x="119" y="117" on="1"/>
        <pt x="115" y="117" on="1"/>
        <pt x="100" y="116" on="0"/>
        <pt x="73" y="128" on="0"/>
        <pt x="53" y="148" on="0"/>
        <pt x="41" y="175" on="0"/>
        <pt x="41" y="190" on="1"/>
        <pt x="41" y="205" on="0"/>
        <pt x="53" y="231" on="0"/>
        <pt x="74" y="252" on="0"/>
        <pt x="100" y="264" on="0"/>
        <pt x="115" y="264" on="1"/>
        <pt x="130" y="264" on="0"/>
        <pt x="156" y="252" on="0"/>
        <pt x="176" y="231" on="0"/>
        <pt x="188" y="205" on="0"/>
      </contour>
    </TTGlyph>
    <TTGlyph name="copyright" xMin="70" yMin="358" xMax="430" yMax="1038">
      <contour>
        <pt x="328" y="719" on="1"/>
        <pt x="305" y="719" on="1"/>
        <pt x="305" y="774" on="1"/>
        <pt x="305" y="786" on="0"/>
        <pt x="301" y="818" on="0"/>
        <pt x="289" y="847" on="0"/>
        <pt x="269" y="866" on="0"/>
        <pt x="254" y="866" on="1"/>
        <pt x="236" y="866" on="0"/>
        <pt x="217" y="846" on="0"/>
        <pt x="208" y="800" on="0"/>
        <pt x="207" y="724" on="0"/>
        <pt x="207" y="668" on="1"/>
        <pt x="207" y="655" on="1"/>
        <pt x="207" y="638" on="0"/>
        <pt x="208" y="583" on="0"/>
        <pt x="216" y="530" on="0"/>
        <pt x="236" y="492" on="0"/>
        <pt x="254" y="492" on="1"/>
        <pt x="270" y="492" on="0"/>
        <pt x="290" y="515" on="0"/>
        <pt x="301" y="548" on="0"/>
        <pt x="305" y="584" on="0"/>
        <pt x="305" y="596" on="1"/>
        <pt x="328" y="596" on="1"/>
        <pt x="328" y="575" on="0"/>
        <pt x="321" y="530" on="0"/>
        <pt x="302" y="492" on="0"/>
        <pt x="270" y="467" on="0"/>
        <pt x="246" y="467" on="1"/>
        <pt x="212" y="467" on="0"/>
        <pt x="176" y="515" on="0"/>
        <pt x="159" y="582" on="0"/>
        <pt x="156" y="651" on="0"/>
        <pt x="156" y="672" on="1"/>
        <pt x="156" y="715" on="0"/>
        <pt x="159" y="795" on="0"/>
        <pt x="175" y="857" on="0"/>
        <pt x="211" y="895" on="0"/>
        <pt x="244" y="895" on="1"/>
        <pt x="288" y="895" on="0"/>
        <pt x="305" y="860" on="1"/>
        <pt x="305" y="932" on="1"/>
        <pt x="328" y="932" on="1"/>
      </contour>
      <contour>
        <pt x="430" y="713" on="1"/>
        <pt x="430" y="684" on="0"/>
        <pt x="428" y="609" on="0"/>
        <pt x="418" y="530" on="0"/>
        <pt x="396" y="454" on="0"/>
        <pt x="355" y="395" on="0"/>
        <pt x="292" y="358" on="0"/>
        <pt x="246" y="358" on="1"/>
        <pt x="205" y="358" on="0"/>
        <pt x="147" y="391" on="0"/>
        <pt x="108" y="445" on="0"/>
        <pt x="85" y="513" on="0"/>
        <pt x="73" y="583" on="0"/>
        <pt x="70" y="649" on="0"/>
        <pt x="70" y="674" on="1"/>
        <pt x="70" y="704" on="0"/>
        <pt x="72" y="782" on="0"/>
        <pt x="84" y="863" on="0"/>
        <pt x="107" y="940" on="0"/>
        <pt x="149" y="1001" on="0"/>
        <pt x="214" y="1038" on="0"/>
        <pt x="260" y="1038" on="1"/>
        <pt x="321" y="1038" on="0"/>
        <pt x="389" y="975" on="0"/>
        <pt x="422" y="879" on="0"/>
        <pt x="430" y="764" on="0"/>
      </contour>
      <contour>
        <pt x="260" y="1016" on="1"/>
        <pt x="209" y="1016" on="0"/>
        <pt x="153" y="949" on="0"/>
        <pt x="127" y="847" on="0"/>
        <pt x="123" y="725" on="0"/>
        <pt x="123" y="670" on="1"/>
        <pt x="123" y="628" on="0"/>
        <pt x="127" y="527" on="0"/>
        <pt x="150" y="440" on="0"/>
        <pt x="200" y="381" on="0"/>
        <pt x="246" y="381" on="1"/>
        <pt x="294" y="381" on="0"/>
        <pt x="345" y="442" on="0"/>
        <pt x="369" y="534" on="0"/>
        <pt x="373" y="641" on="0"/>
        <pt x="373" y="686" on="1"/>
        <pt x="373" y="753" on="0"/>
        <pt x="369" y="873" on="0"/>
        <pt x="348" y="963" on="0"/>
        <pt x="302" y="1016" on="0"/>
      </contour>
    </TTGlyph>
    <TTGlyph name="currency" xMin="41" yMin="442" xMax="532" yMax="1073">
      <contour>
        <pt x="291" y="1042" on="1"/>
        <pt x="262" y="1042" on="0"/>
        <pt x="232" y="982" on="0"/>
        <pt x="217" y="890" on="0"/>
        <pt x="215" y="780" on="0"/>
        <pt x="215" y="729" on="1"/>
        <pt x="215" y="691" on="0"/>
        <pt x="217" y="602" on="0"/>
        <pt x="230" y="525" on="0"/>
        <pt x="257" y="473" on="0"/>
        <pt x="283" y="473" on="1"/>
        <pt x="310" y="473" on="0"/>
        <pt x="338" y="528" on="0"/>
        <pt x="352" y="609" on="0"/>
        <pt x="354" y="704" on="0"/>
        <pt x="354" y="745" on="1"/>
        <pt x="354" y="804" on="0"/>
        <pt x="352" y="912" on="0"/>
        <pt x="340" y="994" on="0"/>
        <pt x="315" y="1042" on="0"/>
      </contour>
      <contour>
        <pt x="483" y="510" on="1"/>
        <pt x="416" y="575" on="1"/>
        <pt x="410" y="548" on="0"/>
        <pt x="389" y="499" on="0"/>
        <pt x="357" y="463" on="0"/>
        <pt x="313" y="442" on="0"/>
        <pt x="283" y="442" on="1"/>
        <pt x="254" y="442" on="0"/>
        <pt x="212" y="462" on="0"/>
        <pt x="180" y="497" on="0"/>
        <pt x="160" y="543" on="0"/>
        <pt x="154" y="569" on="1"/>
        <pt x="92" y="508" on="1"/>
        <pt x="41" y="559" on="1"/>
        <pt x="141" y="659" on="1"/>
        <pt x="139" y="679" on="0"/>
        <pt x="139" y="718" on="0"/>
        <pt x="139" y="733" on="1"/>
        <pt x="139" y="758" on="0"/>
        <pt x="138" y="818" on="0"/>
        <pt x="141" y="850" on="1"/>
        <pt x="47" y="946" on="1"/>
        <pt x="98" y="995" on="1"/>
        <pt x="154" y="938" on="1"/>
        <pt x="161" y="966" on="0"/>
        <pt x="183" y="1015" on="0"/>
        <pt x="216" y="1052" on="0"/>
        <pt x="262" y="1073" on="0"/>
        <pt x="293" y="1073" on="1"/>
        <pt x="322" y="1073" on="0"/>
        <pt x="365" y="1052" on="0"/>
        <pt x="396" y="1016" on="0"/>
        <pt x="415" y="966" on="0"/>
        <pt x="420" y="938" on="1"/>
        <pt x="477" y="995" on="1"/>
        <pt x="528" y="944" on="1"/>
        <pt x="428" y="844" on="1"/>
        <pt x="430" y="825" on="0"/>
        <pt x="430" y="787" on="0"/>
        <pt x="430" y="770" on="1"/>
        <pt x="430" y="748" on="0"/>
        <pt x="430" y="693" on="0"/>
        <pt x="428" y="664" on="1"/>
        <pt x="532" y="561" on="1"/>
      </contour>
    </TTGlyph>
    <TTGlyph name="d" xMin="59" yMin="98" xMax="649" yMax="1337">
      <contour>
        <pt x="418" y="1198" on="1"/>
        <pt x="417" y="1216" on="0"/>
        <pt x="412" y="1252" on="0"/>
        <pt x="398" y="1281" on="0"/>
        <pt x="372" y="1300" on="0"/>
        <pt x="350" y="1300" on="1"/>
        <pt x="313" y="1300" on="1"/>
        <pt x="313" y="1335" on="1"/>
        <pt x="326" y="1335" on="0"/>
        <pt x="356" y="1336" on="0"/>
        <pt x="402" y="1336" on="0"/>
        <pt x="469" y="1337" on="0"/>
        <pt x="520" y="1337" on="1"/>
        <pt x="543" y="231" on="1"/>
        <pt x="544" y="199" on="0"/>
        <pt x="555" y="161" on="0"/>
        <pt x="580" y="140" on="0"/>
        <pt x="620" y="134" on="0"/>
        <pt x="649" y="135" on="1"/>
        <pt x="649" y="100" on="1"/>
        <pt x="636" y="99" on="0"/>
        <pt x="607" y="98" on="0"/>
        <pt x="562" y="98" on="0"/>
        <pt x="494" y="98" on="0"/>
        <pt x="442" y="98" on="1"/>
        <pt x="440" y="182" on="1"/>
        <pt x="424" y="165" on="0"/>
        <pt x="383" y="135" on="0"/>
        <pt x="339" y="112" on="0"/>
        <pt x="293" y="98" on="0"/>
        <pt x="272" y="98" on="1"/>
        <pt x="219" y="98" on="0"/>
        <pt x="147" y="140" on="0"/>
        <pt x="99" y="213" on="0"/>
        <pt x="73" y="313" on="0"/>
        <pt x="61" y="429" on="0"/>
        <pt x="59" y="555" on="0"/>
        <pt x="59" y="618" on="1"/>
        <pt x="59" y="654" on="0"/>
        <pt x="63" y="738" on="0"/>
        <pt x="76" y="821" on="0"/>
        <pt x="101" y="897" on="0"/>
        <pt x="143" y="956" on="0"/>
        <pt x="205" y="991" on="0"/>
        <pt x="248" y="991" on="1"/>
        <pt x="347" y="991" on="0"/>
        <pt x="424" y="881" on="1"/>
      </contour>
      <contour>
        <pt x="274" y="938" on="1"/>
        <pt x="245" y="938" on="0"/>
        <pt x="207" y="896" on="0"/>
        <pt x="183" y="831" on="0"/>
        <pt x="171" y="750" on="0"/>
        <pt x="166" y="671" on="0"/>
        <pt x="166" y="603" on="0"/>
        <pt x="166" y="584" on="1"/>
        <pt x="166" y="555" on="0"/>
        <pt x="167" y="467" on="0"/>
        <pt x="174" y="369" on="0"/>
        <pt x="190" y="271" on="0"/>
        <pt x="219" y="192" on="0"/>
        <pt x="263" y="143" on="0"/>
        <pt x="295" y="143" on="1"/>
        <pt x="313" y="143" on="0"/>
        <pt x="353" y="160" on="0"/>
        <pt x="391" y="187" on="0"/>
        <pt x="425" y="221" on="0"/>
        <pt x="438" y="238" on="1"/>
        <pt x="426" y="803" on="1"/>
        <pt x="414" y="825" on="0"/>
        <pt x="381" y="873" on="0"/>
        <pt x="342" y="912" on="0"/>
        <pt x="297" y="938" on="0"/>
      </contour>
    </TTGlyph>
    <TTGlyph name="dagger" xMin="29" yMin="-78" xMax="397" yMax="1540">
      <contour>
        <pt x="264" y="1540" on="1"/>
        <pt x="258" y="1200" on="1"/>
        <pt x="397" y="1200" on="1"/>
        <pt x="397" y="1165" on="1"/>
        <pt x="256" y="1165" on="1"/>
        <pt x="231" y="-78" on="1"/>
        <pt x="176" y="-78" on="1"/>
        <pt x="170" y="1165" on="1"/>
        <pt x="29" y="1167" on="1"/>
        <pt x="29" y="1200" on="1"/>
        <pt x="170" y="1200" on="1"/>
        <pt x="168" y="1540" on="1"/>
      </contour>
    </TTGlyph>
    <TTGlyph name="daggerdbl" xMin="29" yMin="-78" xMax="397" yMax="1540">
      <contour>
        <pt x="397" y="221" on="1"/>
        <pt x="397" y="186" on="1"/>
        <pt x="236" y="186" on="1"/>
        <pt x="231" y="-78" on="1"/>
        <pt x="176" y="-78" on="1"/>
        <pt x="174" y="186" on="1"/>
        <pt x="29" y="188" on="1"/>
        <pt x="29" y="221" on="1"/>
        <pt x="174" y="221" on="1"/>
        <pt x="170" y="1165" on="1"/>
        <pt x="29" y="1167" on="1"/>
        <pt x="29" y="1200" on="1"/>
        <pt x="170" y="1200" on="1"/>
        <pt x="168" y="1540" on="1"/>
        <pt x="264" y="1540" on="1"/>
        <pt x="258" y="1200" on="1"/>
        <pt x="397" y="1200" on="1"/>
        <pt x="397" y="1165" on="1"/>
        <pt x="256" y="1165" on="1"/>
        <pt x="238" y="221" on="1"/>
      </contour>
    </TTGlyph>
    <TTGlyph name="dcaron" xMin="59" yMin="98" xMax="784" yMax="1411">
      <component glyphName="d" x="0" y="0" flags="0x4"/>
      <component glyphName="uni0315" x="637" y="0" flags="0x4"/>
    </TTGlyph>
    <TTGlyph name="dcroat" xMin="59" yMin="98" xMax="649" yMax="1337">
      <contour>
        <pt x="418" y="1198" on="1"/>
        <pt x="417" y="1216" on="0"/>
        <pt x="412" y="1252" on="0"/>
        <pt x="398" y="1281" on="0"/>
        <pt x="372" y="1300" on="0"/>
        <pt x="350" y="1300" on="1"/>
        <pt x="313" y="1300" on="1"/>
        <pt x="313" y="1335" on="1"/>
        <pt x="326" y="1335" on="0"/>
        <pt x="356" y="1336" on="0"/>
        <pt x="402" y="1336" on="0"/>
        <pt x="469" y="1337" on="0"/>
        <pt x="520" y="1337" on="1"/>
        <pt x="522" y="1186" on="1"/>
        <pt x="612" y="1186" on="1"/>
        <pt x="612" y="1114" on="1"/>
        <pt x="524" y="1114" on="1"/>
        <pt x="543" y="231" on="1"/>
        <pt x="544" y="199" on="0"/>
        <pt x="555" y="161" on="0"/>
        <pt x="580" y="140" on="0"/>
        <pt x="620" y="134" on="0"/>
        <pt x="649" y="135" on="1"/>
        <pt x="649" y="100" on="1"/>
        <pt x="636" y="99" on="0"/>
        <pt x="607" y="98" on="0"/>
        <pt x="562" y="98" on="0"/>
        <pt x="494" y="98" on="0"/>
        <pt x="442" y="98" on="1"/>
        <pt x="440" y="182" on="1"/>
        <pt x="424" y="165" on="0"/>
        <pt x="383" y="135" on="0"/>
        <pt x="339" y="112" on="0"/>
        <pt x="293" y="98" on="0"/>
        <pt x="272" y="98" on="1"/>
        <pt x="219" y="98" on="0"/>
        <pt x="147" y="140" on="0"/>
        <pt x="99" y="213" on="0"/>
        <pt x="73" y="313" on="0"/>
        <pt x="61" y="429" on="0"/>
        <pt x="59" y="555" on="0"/>
        <pt x="59" y="618" on="1"/>
        <pt x="59" y="654" on="0"/>
        <pt x="63" y="738" on="0"/>
        <pt x="76" y="821" on="0"/>
        <pt x="101" y="897" on="0"/>
        <pt x="143" y="956" on="0"/>
        <pt x="205" y="991" on="0"/>
        <pt x="248" y="991" on="1"/>
        <pt x="347" y="991" on="0"/>
        <pt x="424" y="881" on="1"/>
        <pt x="418" y="1114" on="1"/>
        <pt x="297" y="1114" on="1"/>
        <pt x="297" y="1186" on="1"/>
        <pt x="418" y="1186" on="1"/>
      </contour>
      <contour>
        <pt x="274" y="938" on="1"/>
        <pt x="245" y="938" on="0"/>
        <pt x="207" y="896" on="0"/>
        <pt x="183" y="831" on="0"/>
        <pt x="171" y="750" on="0"/>
        <pt x="166" y="671" on="0"/>
        <pt x="166" y="603" on="0"/>
        <pt x="166" y="584" on="1"/>
        <pt x="166" y="555" on="0"/>
        <pt x="167" y="467" on="0"/>
        <pt x="174" y="369" on="0"/>
        <pt x="190" y="271" on="0"/>
        <pt x="219" y="192" on="0"/>
        <pt x="263" y="143" on="0"/>
        <pt x="295" y="143" on="1"/>
        <pt x="313" y="143" on="0"/>
        <pt x="353" y="160" on="0"/>
        <pt x="391" y="187" on="0"/>
        <pt x="425" y="221" on="0"/>
        <pt x="438" y="238" on="1"/>
        <pt x="426" y="803" on="1"/>
        <pt x="414" y="825" on="0"/>
        <pt x="381" y="873" on="0"/>
        <pt x="342" y="912" on="0"/>
        <pt x="297" y="938" on="0"/>
      </contour>
    </TTGlyph>
    <TTGlyph name="degree" xMin="37" yMin="1219" xMax="233" yMax="1415">
      <contour>
        <pt x="233" y="1317" on="1"/>
        <pt x="233" y="1297" on="0"/>
        <pt x="217" y="1262" on="0"/>
        <pt x="190" y="1235" on="0"/>
        <pt x="155" y="1219" on="0"/>
        <pt x="135" y="1219" on="1"/>
        <pt x="115" y="1219" on="0"/>
        <pt x="80" y="1235" on="0"/>
        <pt x="53" y="1262" on="0"/>
        <pt x="37" y="1297" on="0"/>
        <pt x="37" y="1317" on="1"/>
        <pt x="37" y="1338" on="0"/>
        <pt x="53" y="1373" on="0"/>
        <pt x="80" y="1400" on="0"/>
        <pt x="115" y="1415" on="0"/>
        <pt x="135" y="1415" on="1"/>
        <pt x="155" y="1415" on="0"/>
        <pt x="190" y="1400" on="0"/>
        <pt x="217" y="1373" on="0"/>
        <pt x="233" y="1338" on="0"/>
      </contour>
      <contour>
        <pt x="178" y="1317" on="1"/>
        <pt x="178" y="1329" on="0"/>
        <pt x="173" y="1353" on="0"/>
        <pt x="162" y="1373" on="0"/>
        <pt x="146" y="1386" on="0"/>
        <pt x="135" y="1386" on="1"/>
        <pt x="123" y="1386" on="0"/>
        <pt x="107" y="1373" on="0"/>
        <pt x="97" y="1353" on="0"/>
        <pt x="92" y="1329" on="0"/>
        <pt x="92" y="1317" on="1"/>
        <pt x="92" y="1306" on="0"/>
        <pt x="97" y="1282" on="0"/>
        <pt x="107" y="1261" on="0"/>
        <pt x="123" y="1247" on="0"/>
        <pt x="135" y="1247" on="1"/>
        <pt x="146" y="1247" on="0"/>
        <pt x="162" y="1261" on="0"/>
        <pt x="173" y="1282" on="0"/>
        <pt x="178" y="1306" on="0"/>
      </contour>
    </TTGlyph>
    <TTGlyph name="dieresis" xMin="0" yMin="1243" xMax="289" yMax="1366">
      <contour>
        <pt x="289" y="1303" on="1"/>
        <pt x="289" y="1280" on="0"/>
        <pt x="254" y="1245" on="0"/>
        <pt x="229" y="1245" on="1"/>
        <pt x="206" y="1245" on="0"/>
        <pt x="172" y="1280" on="0"/>
        <pt x="172" y="1303" on="1"/>
        <pt x="172" y="1326" on="0"/>
        <pt x="206" y="1360" on="0"/>
        <pt x="229" y="1360" on="1"/>
        <pt x="254" y="1360" on="0"/>
        <pt x="289" y="1326" on="0"/>
      </contour>
      <contour>
        <pt x="121" y="1305" on="1"/>
        <pt x="121" y="1279" on="0"/>
        <pt x="86" y="1243" on="0"/>
        <pt x="61" y="1243" on="1"/>
        <pt x="35" y="1243" on="0"/>
        <pt x="0" y="1279" on="0"/>
        <pt x="0" y="1305" on="1"/>
        <pt x="0" y="1329" on="0"/>
        <pt x="35" y="1366" on="0"/>
        <pt x="61" y="1366" on="1"/>
        <pt x="86" y="1366" on="0"/>
        <pt x="121" y="1329" on="0"/>
      </contour>
    </TTGlyph>
    <TTGlyph name="divide" xMin="35" yMin="430" xMax="535" yMax="897">
      <contour>
        <pt x="535" y="627" on="1"/>
        <pt x="35" y="627" on="1"/>
        <pt x="35" y="698" on="1"/>
        <pt x="535" y="698" on="1"/>
      </contour>
      <contour>
        <pt x="365" y="502" on="1"/>
        <pt x="365" y="473" on="0"/>
        <pt x="322" y="430" on="0"/>
        <pt x="293" y="430" on="1"/>
        <pt x="262" y="430" on="0"/>
        <pt x="219" y="473" on="0"/>
        <pt x="219" y="502" on="1"/>
        <pt x="219" y="533" on="0"/>
        <pt x="262" y="575" on="0"/>
        <pt x="293" y="575" on="1"/>
        <pt x="322" y="575" on="0"/>
        <pt x="365" y="533" on="0"/>
      </contour>
      <contour>
        <pt x="365" y="825" on="1"/>
        <pt x="365" y="794" on="0"/>
        <pt x="322" y="752" on="0"/>
        <pt x="293" y="752" on="1"/>
        <pt x="262" y="752" on="0"/>
        <pt x="219" y="794" on="0"/>
        <pt x="219" y="825" on="1"/>
        <pt x="219" y="854" on="0"/>
        <pt x="262" y="897" on="0"/>
        <pt x="293" y="897" on="1"/>
        <pt x="322" y="897" on="0"/>
        <pt x="365" y="854" on="0"/>
      </contour>
    </TTGlyph>
    <TTGlyph name="dollar" xMin="37" yMin="10" xMax="367" yMax="1384">
      <contour>
        <pt x="190" y="274" on="1"/>
        <pt x="162" y="276" on="0"/>
        <pt x="113" y="293" on="0"/>
        <pt x="77" y="323" on="0"/>
        <pt x="57" y="365" on="0"/>
        <pt x="57" y="391" on="1"/>
        <pt x="57" y="441" on="0"/>
        <pt x="120" y="504" on="0"/>
        <pt x="170" y="504" on="1"/>
        <pt x="184" y="504" on="0"/>
        <pt x="213" y="499" on="0"/>
        <pt x="225" y="494" on="1"/>
        <pt x="213" y="461" on="1"/>
        <pt x="204" y="464" on="0"/>
        <pt x="181" y="469" on="0"/>
        <pt x="170" y="469" on="1"/>
        <pt x="135" y="469" on="0"/>
        <pt x="92" y="425" on="0"/>
        <pt x="92" y="391" on="1"/>
        <pt x="92" y="371" on="0"/>
        <pt x="109" y="341" on="0"/>
        <pt x="136" y="320" on="0"/>
        <pt x="170" y="309" on="0"/>
        <pt x="188" y="309" on="1"/>
        <pt x="213" y="309" on="0"/>
        <pt x="252" y="331" on="0"/>
        <pt x="278" y="366" on="0"/>
        <pt x="291" y="410" on="0"/>
        <pt x="291" y="432" on="1"/>
        <pt x="291" y="481" on="0"/>
        <pt x="253" y="546" on="0"/>
        <pt x="197" y="596" on="0"/>
        <pt x="131" y="641" on="0"/>
        <pt x="75" y="698" on="0"/>
        <pt x="37" y="777" on="0"/>
        <pt x="37" y="836" on="1"/>
        <pt x="37" y="869" on="0"/>
        <pt x="58" y="938" on="0"/>
        <pt x="96" y="995" on="0"/>
        <pt x="150" y="1034" on="0"/>
        <pt x="184" y="1038" on="1"/>
        <pt x="154" y="1315" on="1"/>
        <pt x="256" y="1384" on="1"/>
        <pt x="215" y="1040" on="1"/>
        <pt x="249" y="1037" on="0"/>
        <pt x="300" y="1009" on="0"/>
        <pt x="317" y="989" on="1"/>
        <pt x="315" y="1124" on="1"/>
        <pt x="350" y="1126" on="1"/>
        <pt x="356" y="786" on="1"/>
        <pt x="322" y="786" on="1"/>
        <pt x="319" y="899" on="1"/>
        <pt x="319" y="917" on="0"/>
        <pt x="305" y="951" on="0"/>
        <pt x="281" y="978" on="0"/>
        <pt x="250" y="995" on="0"/>
        <pt x="233" y="995" on="1"/>
        <pt x="208" y="995" on="0"/>
        <pt x="172" y="963" on="0"/>
        <pt x="150" y="917" on="0"/>
        <pt x="139" y="865" on="0"/>
        <pt x="139" y="844" on="1"/>
        <pt x="139" y="790" on="0"/>
        <pt x="173" y="713" on="0"/>
        <pt x="223" y="653" on="0"/>
        <pt x="283" y="605" on="0"/>
        <pt x="333" y="554" on="0"/>
        <pt x="367" y="494" on="0"/>
        <pt x="367" y="453" on="1"/>
        <pt x="367" y="424" on="0"/>
        <pt x="345" y="366" on="0"/>
        <pt x="307" y="316" on="0"/>
        <pt x="255" y="281" on="0"/>
        <pt x="225" y="276" on="1"/>
        <pt x="225" y="10" on="1"/>
        <pt x="190" y="10" on="1"/>
      </contour>
    </TTGlyph>
    <TTGlyph name="dotaccent" xMin="0" yMin="1243" xMax="121" yMax="1366">
      <contour>
        <pt x="121" y="1305" on="1"/>
        <pt x="121" y="1279" on="0"/>
        <pt x="86" y="1243" on="0"/>
        <pt x="61" y="1243" on="1"/>
        <pt x="35" y="1243" on="0"/>
        <pt x="0" y="1279" on="0"/>
        <pt x="0" y="1305" on="1"/>
        <pt x="0" y="1329" on="0"/>
        <pt x="35" y="1366" on="0"/>
        <pt x="61" y="1366" on="1"/>
        <pt x="86" y="1366" on="0"/>
        <pt x="121" y="1329" on="0"/>
      </contour>
    </TTGlyph>
    <TTGlyph name="dotlessi" xMin="14" yMin="250" xMax="317" yMax="1042">
      <contour>
        <pt x="317" y="285" on="1"/>
        <pt x="317" y="250" on="1"/>
        <pt x="31" y="250" on="1"/>
        <pt x="31" y="287" on="1"/>
        <pt x="125" y="287" on="1"/>
        <pt x="127" y="901" on="1"/>
        <pt x="127" y="919" on="0"/>
        <pt x="121" y="956" on="0"/>
        <pt x="105" y="987" on="0"/>
        <pt x="78" y="1007" on="0"/>
        <pt x="57" y="1008" on="1"/>
        <pt x="14" y="1008" on="1"/>
        <pt x="14" y="1042" on="1"/>
        <pt x="233" y="1038" on="1"/>
        <pt x="225" y="287" on="1"/>
      </contour>
    </TTGlyph>
</ttFont>
